<svg width="48" height="48" viewBox="0 0 48 48" fill="none" xmlns="http://www.w3.org/2000/svg">
    <path d="M24 45.3c11.764 0 21.3-9.536 21.3-21.3 0-11.764-9.536-21.3-21.3-21.3C12.236 2.7 2.7 12.236 2.7 24c0 11.764 9.537 21.3 21.3 21.3z" fill="#317AFD"/>
    <path d="M26.25 29.4c0 1.2-1.05 2.25-2.25 2.25s-2.25-1.05-2.25-2.25 1.05.6 2.25.6 2.25-1.8 2.25-.6z" fill="#fff"/>
    <path d="M31.95 22.5c-.45-.15-.9-.15-1.5-.3-.3-2.4-1.5-4.05-3.9-4.35-2.85-.45-4.5 1.2-5.25 3.75-1.2-.75-2.4-1.2-3.75-.45s-1.65 1.95-1.5 3.45h-.75c-1.65 0-3 1.35-3 3s1.35 3 3 3H20.85c-.15-.45-.3-.75-.3-1.2 0-.75.3-1.5.75-2.1.15-.3.6-.3.75-.15.3.15.3.6.15.75-.3.45-.45.9-.45 1.35 0 .45.15.9.3 1.2l4.05-.15c.15-.3.3-.75.3-1.05 0-.45-.15-1.05-.45-1.35-.15-.3-.15-.6.15-.75.3-.15.6-.15.75.15.45.6.75 1.35.75 2.1 0 .45-.15.75-.15 1.05l5.1-.15c1.5-.45 2.55-1.8 2.7-3.45 0-1.95-1.2-3.9-3.3-4.35zm-7.35 6.6c0 .3-.3.6-.6.6s-.6-.3-.6-.6v-3.3c0-.3.3-.6.6-.6s.6.3.6.6v3.3z" fill="#fff"/>
</svg>
