<svg width="64" height="64" viewBox="0 0 64 64" fill="none" xmlns="http://www.w3.org/2000/svg">
    <path d="M52.6 36.4c-1 0-1.6-.6-2-1.4-.4-.8-.2-1.6.4-2.4.4-.4.4-.6 0-1.2l-1.2-1.2c-.6-.4-.6-.4-1.2 0-1 .8-2.4.8-3.4-.2-.4-.4-.4-1-.4-1.4 0-.4-.2-.6-.6-.8h-2.4c-.4.2-.6.4-.6.8v5.8c2.2 0 4 1.8 4 4s-1.8 4-4 4V48c0 .4.2.6.6.8h2.4c.4-.2.6-.4.6-1 0-1 .6-1.6 1.4-2 .8-.4 1.6-.2 2.2.2.2 0 .2.2.4.4s.6.2.8 0c.6-.4 1.2-1 1.6-1.6.2-.4.2-.6 0-.8l-.2-.2c-1-1.2-.6-3.2 1.2-3.6h.6c.4 0 .6-.2.8-.6v-2.4c-.2-.6-.6-.8-1-.8z" stroke="#86B0FE" stroke-miterlimit="10" stroke-linecap="round" stroke-linejoin="round"/>
    <path d="M13.8 48.4h-.4v3.4c0 1.2 1 2.2 2.2 2.2H36c1.2 0 2.2-1 2.2-2.2V48c-.2.2-.4.2-.6.2H13.8v.2zm12.6 3.4h-1c-.6 0-1-.4-1-1s.4-1 1-1h1c.6 0 1 .4 1 1s-.6 1-1 1z" fill="url(#m51ttlguwa)"/>
    <path d="M37.4 46.4c.2 0 .6.2.6.2V12.2c.2-1.2-.8-2.2-2-2.2H15.6c-1.2 0-2.2 1-2.2 2.2v34.4h24v-.2zM25.4 12h1c.6 0 1 .4 1 1s-.6 1-1 1h-1c-.6 0-1-.4-1-1s.4-1 1-1z" fill="url(#3cqju43wfb)"/>
    <defs>
        <linearGradient id="m51ttlguwa" x1="13.428" y1="50.997" x2="38.195" y2="50.997" gradientUnits="userSpaceOnUse">
            <stop offset="0" stop-color="#379FFF"/>
            <stop offset="1" stop-color="#0017E4"/>
        </linearGradient>
        <linearGradient id="3cqju43wfb" x1="13.428" y1="28.283" x2="38.021" y2="28.283" gradientUnits="userSpaceOnUse">
            <stop offset="0" stop-color="#379FFF"/>
            <stop offset="1" stop-color="#0017E4"/>
        </linearGradient>
    </defs>
</svg>
