<svg width="48" height="48" viewBox="0 0 48 48" fill="none" xmlns="http://www.w3.org/2000/svg">
    <path d="M24 45.3c11.764 0 21.3-9.536 21.3-21.3 0-11.764-9.536-21.3-21.3-21.3C12.236 2.7 2.7 12.236 2.7 24c0 11.764 9.537 21.3 21.3 21.3z" fill="#317AFD"/>
    <path d="M32.1 28.95h-5.55c-.6 0-1.2-.3-1.5-.75L24 26.7l-.9 1.35c-.45.45-1.05.75-1.65.75H15.9c-1.05 0-1.8-.9-1.8-2.1v-6.75c0-.6.45-1.05.9-1.05h18c.45 0 .9.45.9 1.05v6.75c0 1.35-.9 2.25-1.8 2.25zM34.95 20.85v5.85c.6 0 1.05-.45 1.05-1.05V21.9c-.15-.6-.6-1.05-1.05-1.05zM13.05 20.85v5.85c-.6 0-1.05-.45-1.05-1.05V21.9c.15-.6.6-1.05 1.05-1.05z" fill="#fff"/>
</svg>
