<svg width="48" height="48" viewBox="0 0 48 48" fill="none" xmlns="http://www.w3.org/2000/svg">
    <path d="M24 45.3c11.764 0 21.3-9.536 21.3-21.3 0-11.764-9.536-21.3-21.3-21.3C12.236 2.7 2.7 12.236 2.7 24c0 11.764 9.537 21.3 21.3 21.3z" fill="#317AFD"/>
    <path d="M28.05 21.6v-1.5c0-.75-.6-1.35-1.35-1.35h-5.55c-.75 0-1.35.6-1.35 1.35v1.5" fill="#fff"/>
    <path d="M24 20.1c-.3 0-.45-.15-.45-.45V17.1c0-.3.15-.45.45-.45.3 0 .45.15.45.45v2.55c0 .3-.15.45-.45.45z" fill="#fff"/>
    <path d="M24 16.95a1.2 1.2 0 1 0 0-2.4 1.2 1.2 0 0 0 0 2.4zM29.25 22.65H18.6c-1.8 0-3.3 1.5-3.3 3.3V30c0 1.8 1.5 3.3 3.3 3.3h10.65c1.8 0 3.3-1.5 3.3-3.3v-4.05c.15-1.8-1.35-3.3-3.3-3.3zm-9.45 6.6c-1.8 0-1.8-2.85 0-2.85s1.8 2.85 0 2.85zm8.85 0c-1.8 0-1.8-2.85 0-2.85s1.8 2.85 0 2.85z" fill="#fff"/>
</svg>
