<svg width="48" height="48" viewBox="0 0 48 48" fill="none" xmlns="http://www.w3.org/2000/svg">
    <path d="M24 45.3c11.764 0 21.3-9.537 21.3-21.3 0-11.764-9.536-21.3-21.3-21.3C12.236 2.7 2.7 12.236 2.7 24c0 11.763 9.537 21.3 21.3 21.3z" fill="#317AFD"/>
    <path d="M24 19.95c-4.05 0-7.2-.75-7.2-1.8v3.45c0 1.05 3.15 1.8 7.2 1.8 4.05 0 7.2-.75 7.2-1.8v-3.45c0 1.05-3.15 1.8-7.2 1.8zm-5.7 1.5c-.15 0-.45-.15-.45-.45 0-.3.15-.45.45-.45.15 0 .45.15.45.45 0 .3-.15.45-.45.45z" fill="#fff"/>
    <path d="M24 24.45c-4.05 0-7.2-.75-7.2-1.8v3.45c0 1.05 3.15 1.8 7.2 1.8 4.05 0 7.2-.75 7.2-1.8v-3.45c0 .9-3.15 1.8-7.2 1.8zm-5.7 1.35c-.15 0-.45-.15-.45-.45 0-.15.15-.45.45-.45.15 0 .45.15.45.45 0 .3-.15.45-.45.45z" fill="#fff"/>
    <path d="M24 28.8c-4.05 0-7.2-.75-7.2-1.8v3.45c0 1.05 3.15 1.8 7.2 1.8 4.05 0 7.2-.75 7.2-1.8V27c0 .9-3.15 1.8-7.2 1.8zm-5.7 1.5c-.15 0-.45-.15-.45-.45 0-.15.15-.45.45-.45.15 0 .45.15.45.45 0 .15-.15.45-.45.45zM24 15.75c-3.75 0-6.9.75-7.2 1.65v.15c0 .9 3.15 1.8 7.2 1.8 4.05 0 7.2-.75 7.2-1.8v-.15c-.3-.9-3.45-1.65-7.2-1.65z" fill="#fff"/>
</svg>
