<svg width="64" height="64" viewBox="0 0 64 64" fill="none" xmlns="http://www.w3.org/2000/svg">
    <path d="M39.2 18c-.6 0-1.2-.4-1.4-1-.2-.6-.2-1.2.4-1.8.4-.4.4-.6 0-.8-.2-.4-.6-.6-1-1s-.6-.4-1 0c-.8.6-1.8.6-2.4-.2-.2-.4-.4-.6-.4-1s-.2-.6-.4-.6h-1.8c-.4.2-.4.4-.4.6 0 .4-.2.6-.4 1-.6.8-1.8.8-2.4.2-.4-.4-.6-.4-1 0-.4.2-.6.6-1 1-.2.4-.2.4 0 .8.4.4.4.8.4 1.2 0 .8-.6 1.4-1.4 1.6h-.4c-.2 0-.4.2-.6.4v1.8c.2.2.4.4.6.4.8 0 1.4.6 1.6 1.4.2.6 0 1-.4 1.4l-.2.2c-.2.2-.2.4 0 .6l1.2 1.2c.2.2.4.2.6 0 .2-.2.4-.4.6-.4 1-.4 2.2.2 2.2 1.4v.2c0 .4.2.6.4.6h1.8c.4-.2.4-.4.4-.6 0-.6.4-1.2 1-1.4.6-.2 1.2-.2 1.6.2l.2.2c.2.2.4.2.6 0l1.2-1.2c.2-.2.2-.4 0-.6l-.2-.2c-.8-.8-.4-2.4 1-2.8h.4c.4 0 .6-.2.6-.4v-1.8c.6-.6.4-.6 0-.6z" stroke="#86B0FE" stroke-miterlimit="10" stroke-linecap="round" stroke-linejoin="round"/>
    <path d="M32.2 21.2a2 2 0 1 0 0-4 2 2 0 0 0 0 4z" stroke="#86B0FE" stroke-miterlimit="10" stroke-linecap="round" stroke-linejoin="round"/>
    <path d="M50.6 16.6H42v.6c.4.2.6.6.8 1.2l.2.4v3c-.4 1-1.2 1.8-2.2 2 .8 1 .8 2.2 0 3.2-.4.6-1 1.2-1.8 1.8-1 .8-2.2.8-3.2 0-.2 1.4-1.4 2-1.8 2.2l-.4.2h-2.8c-1.2-.4-1.8-1.2-2-2.2-1.2.8-2.2.8-3.2 0-.6-.4-1.2-1-1.6-1.8-.8-1-.8-2.2 0-3.2-1-.2-1.8-.8-2.2-1.6l-.2-.4v-4c.2-.4.4-.6.6-.8v-.6h-8.6c-1 0-2 .8-2 2v24.6c0 1 .8 2 2 2h37.2c1 0 2-.8 2-2V18.4c-.2-1-1-1.8-2.2-1.8z" fill="url(#aviz88fasa)"/>
    <path d="M34.2 45.8v3.6c0 .8-.6 1.2-1.2 1.2-.8 0-1.2-.6-1.2-1.2v-3.6" fill="url(#fkpalgktdb)"/>
    <path d="M34.8 49.8c0 1-.6 1.4-1.2 1.4h-1.2c-.8 0-1.2-.6-1.2-1.2v-.2c-3 .2-5.2.6-5.2 1.2 0 .8 3.2 1.4 7 1.4s7-.6 7-1.4c-.2-.4-2.4-1-5.2-1.2z" fill="url(#gz4udtki1c)"/>
    <defs>
        <linearGradient id="aviz88fasa" x1="11.646" y1="30.887" x2="52.792" y2="30.887" gradientUnits="userSpaceOnUse">
            <stop offset="0" stop-color="#379FFF"/>
            <stop offset="1" stop-color="#0017E4"/>
        </linearGradient>
        <linearGradient id="fkpalgktdb" x1="31.803" y1="48.198" x2="34.2" y2="48.198" gradientUnits="userSpaceOnUse">
            <stop offset="0" stop-color="#379FFF"/>
            <stop offset="1" stop-color="#0017E4"/>
        </linearGradient>
        <linearGradient id="gz4udtki1c" x1="26.016" y1="51.099" x2="39.997" y2="51.099" gradientUnits="userSpaceOnUse">
            <stop offset="0" stop-color="#379FFF"/>
            <stop offset="1" stop-color="#0017E4"/>
        </linearGradient>
    </defs>
</svg>
