<svg width="168" height="96" viewBox="0 0 168 96" fill="none" xmlns="http://www.w3.org/2000/svg">
    <rect x="1" y="1" width="166" height="94" rx="8" fill="#fff"/>
    <path d="M113.251 31.574c.021.08.032.162.032.245v12.879a.937.937 0 0 1-.471.814l-10.81 6.224V64.07a.941.941 0 0 1-.469.815L78.969 77.875c-.052.03-.108.048-.164.068-.022.007-.042.02-.064.026a.944.944 0 0 1-.481 0c-.026-.007-.05-.021-.074-.03-.052-.02-.106-.036-.155-.064l-22.56-12.99a.942.942 0 0 1-.471-.814V25.435c0-.085.012-.167.033-.247.007-.027.023-.051.033-.078.017-.05.034-.1.06-.146.017-.03.043-.055.064-.083.027-.038.052-.077.084-.11.026-.027.062-.047.092-.07.034-.028.065-.059.103-.081h.002l11.28-6.495a.943.943 0 0 1 .939 0l11.28 6.495h.002c.038.023.07.053.104.08.03.023.064.044.091.07.033.034.056.073.085.11.02.029.047.053.063.084.027.047.042.096.061.146.01.027.026.051.033.08.022.08.033.162.033.245v24.132l9.4-5.413V31.818a.95.95 0 0 1 .032-.244c.009-.029.024-.053.033-.08.02-.05.035-.1.061-.146.018-.03.044-.055.064-.083.028-.038.051-.076.084-.11.027-.026.061-.046.092-.07.035-.028.066-.058.103-.08h.001l11.282-6.495a.936.936 0 0 1 .939 0l11.28 6.494c.04.024.07.053.105.08.03.024.064.045.091.07.033.035.056.073.084.11.021.029.047.054.064.084.027.046.042.097.061.146.01.027.026.051.033.08zm-1.848 12.58v-10.71l-3.947 2.273-5.454 3.14v10.71l9.402-5.413h-.001zm-11.28 19.374V52.81l-5.364 3.064-15.318 8.742v10.818l20.682-11.907zM56.88 27.06v36.468l20.68 11.905V64.618l-10.803-6.114-.004-.002-.004-.003c-.037-.021-.067-.052-.102-.077-.029-.024-.063-.043-.089-.068l-.002-.004c-.03-.03-.052-.066-.078-.099-.023-.031-.051-.058-.07-.091l-.001-.004c-.021-.035-.034-.077-.05-.117-.015-.035-.035-.068-.044-.106-.012-.045-.014-.092-.019-.138-.004-.035-.014-.07-.014-.106V32.473l-5.452-3.141-3.948-2.27v-.002zm10.342-7.035-9.399 5.41 9.396 5.41 9.398-5.412-9.398-5.408h.003zm4.887 33.763 5.452-3.14V27.06l-3.947 2.273-5.454 3.14V56.06l3.95-2.273zm28.954-27.38-9.397 5.41 9.397 5.41 9.396-5.41-9.396-5.41zm-.94 12.449-5.454-3.14-3.947-2.272v10.71l5.452 3.138 3.949 2.274v-10.71zM78.499 62.99l13.784-7.869 6.89-3.932-9.39-5.407-10.812 6.225-9.854 5.673 9.382 5.31z" fill="#FF2D20"/>
    <rect x="1" y="1" width="166" height="94" rx="8" stroke="url(#vizi9vu8ya)" stroke-opacity=".27"/>
    <defs>
        <linearGradient id="vizi9vu8ya" x1="84" y1="1" x2="84" y2="95" gradientUnits="userSpaceOnUse">
            <stop stop-color="#B9B9B9" stop-opacity=".44"/>
            <stop offset="1" stop-color="#5E5E5E" stop-opacity=".58"/>
        </linearGradient>
    </defs>
</svg>
