<svg width="168" height="96" viewBox="0 0 168 96" fill="none" xmlns="http://www.w3.org/2000/svg">
    <rect x="1" y="1" width="166" height="94" rx="8" fill="#fff"/>
    <path d="M84.47 76.837a1.88 1.88 0 0 1-.89-.23L80.76 74.95c-.424-.23-.212-.316-.085-.358.573-.19.68-.23 1.273-.566.064-.041.15-.02.212.02l2.164 1.28c.085.043.19.043.254 0l8.466-4.845c.085-.042.127-.126.127-.23v-9.673c0-.105-.043-.19-.127-.23l-8.466-4.825c-.085-.042-.19-.042-.254 0l-8.466 4.825c-.085.043-.127.148-.127.23v9.672c0 .085.043.19.127.23l2.313 1.322c1.252.63 2.037-.105 2.037-.84v-9.546c0-.125.106-.252.255-.252h1.082c.127 0 .255.105.255.252v9.547c0 1.657-.912 2.623-2.504 2.623-.488 0-.87 0-1.952-.525l-2.228-1.26a1.766 1.766 0 0 1-.89-1.532v-9.673c0-.63.34-1.216.89-1.531l8.466-4.846a1.912 1.912 0 0 1 1.783 0l8.466 4.846c.552.315.89.902.89 1.532v9.672c0 .63-.34 1.216-.89 1.531l-8.466 4.847c-.28.124-.584.189-.891.188l-.002.002zm2.6-6.65c-3.712 0-4.476-1.678-4.476-3.105 0-.126.106-.252.255-.252h1.103c.127 0 .233.084.233.2.17 1.111.658 1.656 2.907 1.656 1.782 0 2.546-.4 2.546-1.343 0-.544-.212-.944-2.992-1.217-2.313-.23-3.756-.734-3.756-2.56 0-1.7 1.443-2.707 3.862-2.707 2.716 0 4.053.923 4.223 2.938a.33.33 0 0 1-.064.19c-.043.041-.106.083-.17.083h-1.103a.247.247 0 0 1-.233-.19c-.255-1.154-.912-1.532-2.652-1.532-1.952 0-2.186.67-2.186 1.175 0 .608.276.797 2.907 1.133 2.6.337 3.84.819 3.84 2.623-.02 1.847-1.55 2.895-4.244 2.895v.012z" fill="#539E43"/>
    <path d="M58.2 39.008c0-.378-.212-.734-.552-.923l-8.997-5.12a1.322 1.322 0 0 0-.488-.147h-.085c-.17 0-.34.063-.488.147l-8.997 5.12c-.34.19-.552.545-.552.923l.02 13.763a.52.52 0 0 0 .276.462c.17.105.382.105.53 0l5.347-3.02c.34-.19.552-.545.552-.923v-6.44c0-.378.212-.734.552-.923l2.27-1.3c.17-.105.36-.147.552-.147a.92.92 0 0 1 .531.147l2.27 1.3c.34.19.552.545.552.923v6.44c0 .378.212.734.552.923l5.347 3.02c.17.105.382.105.552 0a.52.52 0 0 0 .276-.462l-.02-13.763zm43.245-18.945a.587.587 0 0 0-.531 0 .545.545 0 0 0-.276.46V34.16a.405.405 0 0 1-.19.336.409.409 0 0 1-.382 0l-2.25-1.28a1.098 1.098 0 0 0-1.082 0l-8.997 5.14c-.34.19-.552.545-.552.923v10.26c0 .378.212.734.552.923l8.997 5.14c.335.19.747.19 1.082 0l8.997-5.14c.34-.19.552-.545.552-.923V23.965c0-.4-.212-.755-.552-.944l-5.368-2.958zm-.827 26.1c0 .105-.042.19-.127.23l-3.077 1.762a.318.318 0 0 1-.276 0l-3.077-1.762c-.085-.042-.127-.147-.127-.23v-3.525c0-.105.042-.19.127-.23l3.077-1.762a.318.318 0 0 1 .276 0l3.077 1.762c.085.042.127.147.127.23v3.525zm30.767-3.61c.34-.19.53-.545.53-.923v-2.497a1.087 1.087 0 0 0-.531-.923l-8.933-5.12a1.098 1.098 0 0 0-1.082 0l-8.997 5.14c-.34.19-.552.545-.552.923v10.26c0 .378.212.734.552.923l8.933 5.035c.34.19.743.19 1.06 0l5.41-2.98a.513.513 0 0 0 .202-.192.512.512 0 0 0 .074-.27.513.513 0 0 0-.074-.27.513.513 0 0 0-.202-.192l-9.04-5.14a.545.545 0 0 1-.276-.46v-3.2a.522.522 0 0 1 .276-.462l2.822-1.595a.523.523 0 0 1 .552 0l2.822 1.595c.17.105.276.273.276.462v2.518a.52.52 0 0 0 .276.461c.17.105.382.105.552 0l5.347-3.084.003-.009z" fill="#333"/>
    <path d="M121.773 42.07a.194.194 0 0 1 .212 0l1.72.987a.22.22 0 0 1 .106.19v1.972a.217.217 0 0 1-.106.189l-1.72.986a.194.194 0 0 1-.212 0l-1.72-.986a.227.227 0 0 1-.078-.081.228.228 0 0 1-.028-.108v-1.972c0-.084.042-.147.106-.19l1.72-.986z" fill="#539E43"/>
    <path d="M73.244 33.133a1.098 1.098 0 0 0-1.082 0L63.23 38.23c-.34.19-.53.545-.53.923v10.218a1.091 1.091 0 0 0 .531.923l8.933 5.098c.335.19.747.19 1.082 0l8.933-5.098c.34-.19.53-.545.53-.923V39.154a1.09 1.09 0 0 0-.53-.923l-8.934-5.098z" fill="url(#9hgfn70o1a)"/>
    <mask id="czjodmpvnb" style="mask-type:alpha" maskUnits="userSpaceOnUse" x="62" y="32" width="21" height="24">
        <path d="M73.244 33.133a1.098 1.098 0 0 0-1.082 0L63.23 38.23c-.34.19-.53.545-.53.923v10.218a1.091 1.091 0 0 0 .531.923l8.933 5.098c.335.19.747.19 1.082 0l8.933-5.098c.34-.19.53-.545.53-.923V39.154a1.09 1.09 0 0 0-.53-.923l-8.934-5.098z" fill="#fff"/>
    </mask>
    <g mask="url(#czjodmpvnb)">
        <path d="m82.2 38.231-8.985-5.098a.834.834 0 0 0-.266-.104L62.89 50.064c.083.1.184.186.297.252l8.976 5.098c.255.147.552.19.827.105l9.444-17.078a1.106 1.106 0 0 0-.234-.21H82.2z" fill="url(#kaisqj6vjc)"/>
    </g>
    <mask id="2a9y1cuhyd" style="mask-type:alpha" maskUnits="userSpaceOnUse" x="62" y="32" width="21" height="24">
        <path d="M73.244 33.133a1.098 1.098 0 0 0-1.082 0L63.23 38.23c-.34.19-.53.545-.53.923v10.218a1.091 1.091 0 0 0 .531.923l8.933 5.098c.335.19.747.19 1.082 0l8.933-5.098c.34-.19.53-.545.53-.923V39.154a1.09 1.09 0 0 0-.53-.923l-8.934-5.098z" fill="#fff"/>
    </mask>
    <g mask="url(#2a9y1cuhyd)">
        <path fill-rule="evenodd" clip-rule="evenodd" d="M82.22 50.295c.255-.147.445-.4.53-.67L72.903 33.01c-.255-.042-.53-.02-.764.126l-8.91 5.076 9.612 17.33c.14-.022.275-.065.403-.126l8.975-5.12z" fill="url(#fcp62xc56e)"/>
        <path d="m82.22 50.294-8.954 5.099a1.29 1.29 0 0 1-.403.126l.17.315 9.93-5.686v-.126l-.255-.42a.972.972 0 0 1-.488.693z" fill="url(#jv8f9k2arf)"/>
        <path d="m82.22 50.294-8.954 5.099a1.29 1.29 0 0 1-.403.126l.17.315 9.93-5.686v-.126l-.255-.42a.972.972 0 0 1-.488.693z" fill="url(#czb4fbt8rg)"/>
    </g>
    <rect x="1" y="1" width="166" height="94" rx="8" stroke="url(#siwc2g46zh)" stroke-opacity=".27"/>
    <defs>
        <linearGradient id="9hgfn70o1a" x1="75.571" y1="36.933" x2="67.831" y2="52.543" gradientUnits="userSpaceOnUse">
            <stop stop-color="#41873F"/>
            <stop offset=".329" stop-color="#418B3D"/>
            <stop offset=".635" stop-color="#419637"/>
            <stop offset=".932" stop-color="#3FA92D"/>
            <stop offset="1" stop-color="#3FAE2A"/>
        </linearGradient>
        <linearGradient id="kaisqj6vjc" x1="71.674" y1="45.461" x2="90.675" y2="31.578" gradientUnits="userSpaceOnUse">
            <stop offset=".138" stop-color="#41873F"/>
            <stop offset=".403" stop-color="#54A044"/>
            <stop offset=".714" stop-color="#66B848"/>
            <stop offset=".908" stop-color="#6CC04A"/>
        </linearGradient>
        <linearGradient id="fcp62xc56e" x1="62.372" y1="44.265" x2="83.042" y2="44.265" gradientUnits="userSpaceOnUse">
            <stop offset=".092" stop-color="#6CC04A"/>
            <stop offset=".286" stop-color="#66B848"/>
            <stop offset=".597" stop-color="#54A044"/>
            <stop offset=".862" stop-color="#41873F"/>
        </linearGradient>
        <linearGradient id="jv8f9k2arf" x1="62.373" y1="52.735" x2="83.044" y2="52.735" gradientUnits="userSpaceOnUse">
            <stop offset=".092" stop-color="#6CC04A"/>
            <stop offset=".286" stop-color="#66B848"/>
            <stop offset=".597" stop-color="#54A044"/>
            <stop offset=".862" stop-color="#41873F"/>
        </linearGradient>
        <linearGradient id="czb4fbt8rg" x1="86.055" y1="46.527" x2="79.645" y2="59.456" gradientUnits="userSpaceOnUse">
            <stop stop-color="#41873F"/>
            <stop offset=".329" stop-color="#418B3D"/>
            <stop offset=".635" stop-color="#419637"/>
            <stop offset=".932" stop-color="#3FA92D"/>
            <stop offset="1" stop-color="#3FAE2A"/>
        </linearGradient>
        <linearGradient id="siwc2g46zh" x1="84" y1="1" x2="84" y2="95" gradientUnits="userSpaceOnUse">
            <stop stop-color="#B9B9B9" stop-opacity=".44"/>
            <stop offset="1" stop-color="#5E5E5E" stop-opacity=".58"/>
        </linearGradient>
    </defs>
</svg>
