<svg width="168" height="96" viewBox="0 0 168 96" fill="none" xmlns="http://www.w3.org/2000/svg">
    <rect x="1" y="1" width="166" height="94" rx="8" fill="#fff"/>
    <path fill-rule="evenodd" clip-rule="evenodd" d="M70.76 48.18c0 1.978-.475 3.62-1.429 4.925-1.064 1.478-2.538 2.24-4.423 2.28-1.42.044-2.884-.4-4.4-1.303v8.446l-2.436-.85V42.93c.4-.48.914-.9 1.538-1.24 1.45-.826 3.212-1.25 5.286-1.272l.035.034c1.895-.024 3.356.737 4.382 2.28.957 1.415 1.437 3.228 1.437 5.446l.01.002zm-2.812-.164c0-3.893-1.135-5.892-3.406-6a6.536 6.536 0 0 0-2.644.425c-.685.24-1.146.477-1.4.717v9.292c1.453.9 2.743 1.305 3.868 1.24 2.38-.154 3.572-2.043 3.572-5.673l.01-.001zm17.69 5.706c0 2.653-.272 4.5-.816 5.5-.544 1-1.586 1.837-3.12 2.444-1.245.48-2.6.74-4.036.784l-.403-1.5c1.47-.195 2.503-.4 3.103-.587 1.18-.4 2-1 2.436-1.793.357-.654.533-1.902.533-3.75v-.62a12.76 12.76 0 0 1-5.238 1.108c-1.2 0-2.258-.368-3.17-1.108-1.024-.805-1.535-1.827-1.535-3.064v-9.91l2.436-.816v9.978c0 1.066.352 1.887 1.056 2.462.704.575 1.615.852 2.732.83 1.117-.022 2.314-.446 3.585-1.272V40.78h2.436v12.943l.001-.001zm9.512 1.532-.803.034c-1.378 0-2.452-.32-3.22-.964-.768-.644-1.148-1.532-1.148-2.666v-9.38h-1.67V40.78h1.67V36.8l2.434-.847v4.827h2.737v1.498h-2.737v9.316c0 .894.245 1.527.736 1.897.42.305 1.1.48 2.002.524v1.24-.001zm14.752-.194h-2.436v-9.193c0-.935-.224-1.74-.67-2.413a2.445 2.445 0 0 0-2.146-1.14c-1.117 0-2.514.576-4.2 1.727v11.02h-2.436V33.084l2.436-.75v10c1.568-1.11 3.268-1.664 5.115-1.664 1.3 0 2.335.425 3.135 1.272.8.847 1.202 1.902 1.202 3.163v9.955zm15.618-7.402c0 2.13-.557 3.9-1.67 5.316-1.223 1.585-2.913 2.38-5.07 2.38-2.138 0-3.804-.795-5.006-2.38-1.1-1.415-1.634-3.187-1.634-5.316 0-2 .6-3.685 1.767-5.055 1.256-1.453 2.892-2.183 4.916-2.183 2.024 0 3.67.73 4.94 2.183 1.178 1.37 1.767 3.054 1.767 5.055h-.01zm-2.658-.016c0-1.496-.3-2.73-.87-3.708-.688-1.2-1.756-1.82-3.202-1.884-2.67.15-4.004 2.022-4.004 5.608 0 1.644.278 3.018.837 4.12.714 1.405 1.786 2.098 3.215 2.074 2.682-.02 4.022-2.1 4.022-6.2l.002-.01zM139.5 55.06h-2.436v-9.714c0-1.066-.328-1.897-.983-2.496s-1.53-.886-2.62-.863c-1.157.02-2.258.4-3.303 1.108V55.06h-2.436V42.8c1.402-.998 2.693-1.65 3.87-1.954 1.1-.284 2.092-.425 2.938-.425.578 0 1.122.054 1.634.164.958.216 1.736.617 2.335 1.206a3.152 3.152 0 0 1 1.002 2.348v10.92l-.001.001z" fill="#646464"/>
    <mask id="pbeojr8ika" style="mask-type:alpha" maskUnits="userSpaceOnUse" x="19" y="33" width="23" height="23">
        <path d="M34.02 33.172c-1.253.006-2.45.1-3.504.292-3.103.536-3.666 1.658-3.666 3.726v2.732h7.333v.91H24.097c-2.13 0-3.997 1.252-4.58 3.634-.339 1.374-.515 2.486-.517 3.617v.038c.002 1.105.17 2.23.516 3.63.52 2.122 1.766 3.634 3.897 3.634h2.52V52.11c0-2.366 2.094-4.453 4.58-4.453h7.324a3.65 3.65 0 0 0 3.666-3.643V37.19c0-1.942-1.676-3.402-3.666-3.726a23.325 23.325 0 0 0-3.707-.292h-.114.004zm-5.342 3.568c0-.756.616-1.37 1.376-1.37.76 0 1.376.614 1.376 1.37a1.37 1.37 0 0 1-1.376 1.362 1.37 1.37 0 0 1-1.376-1.362z" fill="#fff"/>
    </mask>
    <g mask="url(#pbeojr8ika)">
        <path fill-rule="evenodd" clip-rule="evenodd" d="M34.02 33.172c-1.253.006-2.45.1-3.504.292-3.103.536-3.666 1.658-3.666 3.726v2.732h7.333v.91H24.097c-2.13 0-3.997 1.252-4.58 3.634-.339 1.374-.515 2.486-.517 3.617v.038c.002 1.105.17 2.23.516 3.63.52 2.122 1.766 3.634 3.897 3.634h2.52V52.11c0-2.366 2.094-4.453 4.58-4.453h7.324a3.65 3.65 0 0 0 3.666-3.643V37.19c0-1.942-1.676-3.402-3.666-3.726a23.325 23.325 0 0 0-3.707-.292h-.114.004zm-5.342 3.568c0-.756.616-1.37 1.376-1.37.76 0 1.376.614 1.376 1.37a1.37 1.37 0 0 1-1.376 1.362 1.37 1.37 0 0 1-1.376-1.362z" fill="url(#8xvxtf8phb)"/>
    </g>
    <mask id="ofa23ieo8c" style="mask-type:alpha" maskUnits="userSpaceOnUse" x="26" y="40" width="24" height="24">
        <path d="M42.422 40.833v3.184c0 2.468-2.14 4.545-4.58 4.545h-7.326c-2.006 0-3.666 1.68-3.666 3.643v6.826c0 1.942 1.728 3.085 3.666 3.642 2.32.667 4.547.788 7.324 0 1.846-.522 3.666-1.574 3.666-3.642v-2.724h-7.322v-.9h10.99c2.13 0 2.925-1.453 3.666-3.634.766-2.245.733-4.405 0-7.285-.526-2.095-1.532-3.655-3.666-3.655h-2.752zM36.927 59.48a1.37 1.37 0 0 1 1.376-1.362c.76 0 1.376.61 1.376 1.362a1.376 1.376 0 0 1-2.752 0z" fill="#fff"/>
    </mask>
    <g mask="url(#ofa23ieo8c)">
        <path fill-rule="evenodd" clip-rule="evenodd" d="M42.422 40.833v3.184c0 2.468-2.14 4.545-4.58 4.545h-7.326c-2.006 0-3.666 1.68-3.666 3.643v6.826c0 1.942 1.728 3.085 3.666 3.642 2.32.667 4.547.788 7.324 0 1.846-.522 3.666-1.574 3.666-3.642v-2.724h-7.322v-.9h10.99c2.13 0 2.925-1.453 3.666-3.634.766-2.245.733-4.405 0-7.285-.526-2.095-1.532-3.655-3.666-3.655h-2.752zM36.927 59.48a1.37 1.37 0 0 1 1.376-1.362c.76 0 1.376.61 1.376 1.362a1.376 1.376 0 0 1-2.752 0z" fill="url(#l78r23600d)"/>
    </g>
    <mask id="beecdh0jfe" style="mask-type:alpha" maskUnits="userSpaceOnUse" x="143" y="35" width="6" height="4">
        <path d="M143.232 35.724h5.618v2.93h-5.618v-2.93z" fill="#fff"/>
    </mask>
    <g mask="url(#beecdh0jfe)">
        <path fill-rule="evenodd" clip-rule="evenodd" d="M146.062 38.655h.365v-2.392l.793 2.392h.406l.824-2.384v2.384h.398v-2.931h-.527l-.901 2.51-.77-2.51h-.59v2.93h.002zm-1.818 0h.427v-2.618h1.012v-.313h-2.451v.313h1.012v2.62-.002z" fill="#646464"/>
    </g>
    <rect x="1" y="1" width="166" height="94" rx="8" stroke="url(#8k4167795f)" stroke-opacity=".27"/>
    <defs>
        <linearGradient id="8xvxtf8phb" x1="18.255" y1="34.29" x2="34.844" y2="48.378" gradientUnits="userSpaceOnUse">
            <stop stop-color="#599ED4"/>
            <stop offset="1" stop-color="#2F6997"/>
        </linearGradient>
        <linearGradient id="l78r23600d" x1="41.51" y1="56.818" x2="35.579" y2="48.536" gradientUnits="userSpaceOnUse">
            <stop stop-color="#FFD43B"/>
            <stop offset="1" stop-color="#FFE872"/>
        </linearGradient>
        <linearGradient id="8k4167795f" x1="84" y1="1" x2="84" y2="95" gradientUnits="userSpaceOnUse">
            <stop stop-color="#B9B9B9" stop-opacity=".44"/>
            <stop offset="1" stop-color="#5E5E5E" stop-opacity=".58"/>
        </linearGradient>
    </defs>
</svg>
