<svg width="168" height="96" viewBox="0 0 168 96" fill="none" xmlns="http://www.w3.org/2000/svg">
    <rect x="1" y="1" width="166" height="94" rx="8" fill="#fff"/>
    <mask id="7zv87wtksa" style="mask-type:alpha" maskUnits="userSpaceOnUse" x="36" y="22" width="96" height="52">
        <path d="M36.092 47.972c0 13.849 21.45 25.075 47.924 25.075s47.934-11.226 47.934-25.075c0-13.85-21.46-25.077-47.934-25.077-26.474 0-47.924 11.23-47.924 25.077z" fill="#fff"/>
    </mask>
    <g mask="url(#7zv87wtksa)">
        <path d="M36.092 47.972c0 13.849 21.45 25.075 47.924 25.075s47.934-11.226 47.934-25.075c0-13.85-21.46-25.077-47.934-25.077-26.474 0-47.924 11.23-47.924 25.077z" fill="url(#29t7k1cezb)"/>
    </g>
    <mask id="dp0qbhs3ic" style="mask-type:alpha" maskUnits="userSpaceOnUse" x="34" y="20" width="100" height="56">
        <path d="M34.084 20.041h99.86v55.862h-99.86V20.041z" fill="#fff"/>
    </mask>
    <g mask="url(#dp0qbhs3ic)">
        <path d="M84.013 71.186c25.438 0 46.06-10.393 46.06-23.214 0-12.821-20.62-23.214-46.06-23.214s-46.06 10.395-46.06 23.215 20.622 23.213 46.06 23.213z" fill="#777BB3"/>
    </g>
    <mask id="0yoqsore2d" style="mask-type:alpha" maskUnits="userSpaceOnUse" x="34" y="20" width="100" height="56">
        <path d="M34.084 20.041h99.86v55.862h-99.86V20.041z" fill="#fff"/>
    </mask>
    <g mask="url(#0yoqsore2d)">
        <path d="M62.124 50.85c2.092 0 3.653-.384 4.64-1.14.977-.748 1.653-2.045 2.006-3.854.33-1.69.204-2.87-.373-3.508-.59-.65-1.868-.98-3.796-.98h-3.343l-1.853 9.483h2.719zM51.19 62.53a.52.52 0 0 1-.511-.616l4.91-25.13a.52.52 0 0 1 .51-.418h10.586c3.327 0 5.803.898 7.36 2.67 1.565 1.78 2.048 4.27 1.436 7.4a11.773 11.773 0 0 1-1.273 3.52 11.839 11.839 0 0 1-2.342 2.92c-1.147 1.067-2.445 1.841-3.855 2.296-1.387.45-3.17.677-5.296.677H58.43l-1.224 6.262a.52.52 0 0 1-.51.42H51.19z" fill="#000"/>
        <path d="M61.69 41.883h2.913c2.328 0 3.136.508 3.4.8.457.502.543 1.562.25 3.063-.33 1.68-.94 2.873-1.813 3.542-.894.685-2.35 1.032-4.323 1.032H60.03l1.65-8.448.009.01zm4.998-6.034H56.102a1.04 1.04 0 0 0-1.02.837l-4.91 25.13a1.03 1.03 0 0 0 .577 1.132c.139.065.29.099.444.099h5.505a1.04 1.04 0 0 0 1.02-.837l1.142-5.844h3.858c2.18 0 4.017-.237 5.457-.703 1.48-.478 2.844-1.3 4.05-2.41a12.266 12.266 0 0 0 2.44-3.044 12.359 12.359 0 0 0 1.33-3.673c.644-3.294.12-5.93-1.555-7.84-1.66-1.89-4.266-2.847-7.75-2.847h-.002zm-7.91 15.517h3.348c2.22 0 3.872-.416 4.96-1.247 1.088-.831 1.82-2.22 2.2-4.165.364-1.868.198-3.186-.499-3.953-.696-.767-2.09-1.152-4.181-1.152h-3.77L58.78 51.366h-.003zm7.91-14.483c3.183 0 5.507.83 6.966 2.493 1.46 1.663 1.9 3.982 1.318 6.96a11.2 11.2 0 0 1-1.216 3.365 11.486 11.486 0 0 1-2.24 2.8c-1.1 1.023-2.32 1.752-3.665 2.186-1.344.434-3.055.652-5.134.652h-4.715l-1.308 6.664H51.19l4.91-25.13h10.586l.002.01z" fill="#fff"/>
        <path d="M88.104 55.85a.519.519 0 0 1-.51-.616l2.172-11.12c.207-1.057.156-1.816-.143-2.137-.183-.196-.733-.525-2.36-.525h-3.936l-2.73 13.978a.52.52 0 0 1-.51.419h-5.46a.519.519 0 0 1-.512-.616l4.91-25.13a.52.52 0 0 1 .511-.418h5.46a.52.52 0 0 1 .511.616l-1.185 6.065h4.234c3.226 0 5.413.566 6.687 1.73 1.3 1.187 1.704 3.085 1.204 5.64L94.162 55.43a.52.52 0 0 1-.51.419h-5.548z" fill="#000"/>
        <path d="M84.996 29.169h-5.46a1.04 1.04 0 0 0-1.02.837l-4.91 25.13a1.03 1.03 0 0 0 .577 1.133c.138.065.29.098.443.098h5.458a1.04 1.04 0 0 0 1.021-.837l2.65-13.56h3.507c1.623 0 1.964.345 1.978.36.098.105.228.593.014 1.686l-2.173 11.12a1.03 1.03 0 0 0 .578 1.133c.138.065.29.098.443.098h5.548a1.04 1.04 0 0 0 1.021-.837l2.285-11.694c.536-2.745.077-4.804-1.363-6.12-1.374-1.255-3.677-1.866-7.04-1.866h-3.599l1.065-5.45a1.031 1.031 0 0 0-.218-.855 1.045 1.045 0 0 0-.803-.377l-.002.001zm.002 1.033-1.306 6.68h4.865c3.06 0 5.173.53 6.335 1.593s1.5 2.783 1.046 5.162l-2.287 11.696h-5.547l2.173-11.12c.247-1.265.156-2.128-.273-2.588-.429-.46-1.343-.7-2.74-.7H82.9l-2.815 14.408h-5.46l4.91-25.13h5.46" fill="#fff"/>
        <path d="M105.088 50.85c2.092 0 3.653-.384 4.64-1.14.977-.748 1.653-2.045 2.007-3.854.33-1.69.204-2.87-.374-3.508-.59-.65-1.868-.98-3.796-.98h-3.341l-1.853 9.483h2.717zM94.154 62.531a.52.52 0 0 1-.511-.616l4.91-25.13a.52.52 0 0 1 .51-.418h10.586c3.327 0 5.803.898 7.36 2.67 1.565 1.78 2.048 4.27 1.436 7.4a11.791 11.791 0 0 1-1.273 3.52 11.839 11.839 0 0 1-2.342 2.92c-1.147 1.068-2.445 1.842-3.855 2.297-1.387.45-3.17.677-5.296.677h-4.285l-1.223 6.262a.526.526 0 0 1-.511.42h-5.506v-.002z" fill="#000"/>
        <path d="M104.655 41.883h2.914c2.327 0 3.135.508 3.4.8.456.502.542 1.562.25 3.063-.33 1.68-.94 2.873-1.813 3.542-.895.685-2.35 1.032-4.324 1.032h-2.086l1.65-8.448.009.01zm4.998-6.034H99.067a1.04 1.04 0 0 0-1.02.837l-4.91 25.13a1.03 1.03 0 0 0 .577 1.132c.139.065.29.099.443.099h5.505a1.04 1.04 0 0 0 1.021-.837l1.142-5.844h3.857c2.18 0 4.018-.237 5.458-.703 1.48-.478 2.843-1.3 4.05-2.41a12.282 12.282 0 0 0 2.441-3.044 12.286 12.286 0 0 0 1.33-3.673c.644-3.294.12-5.932-1.555-7.84-1.66-1.89-4.267-2.847-7.75-2.847h-.003zm-7.91 15.517h3.348c2.22 0 3.872-.416 4.96-1.247 1.088-.831 1.82-2.22 2.2-4.165.364-1.868.2-3.186-.498-3.953-.698-.767-2.09-1.152-4.182-1.152h-3.77l-2.055 10.517h-.003zm7.91-14.483c3.184 0 5.507.83 6.967 2.493 1.46 1.663 1.9 3.982 1.317 6.96a11.2 11.2 0 0 1-1.216 3.365 11.486 11.486 0 0 1-2.24 2.8c-1.1 1.023-2.32 1.752-3.664 2.186-1.344.434-3.055.652-5.135.652h-4.717l-1.305 6.68h-5.505l4.91-25.13h10.585l.003-.006z" fill="#fff"/>
    </g>
    <rect x="1" y="1" width="166" height="94" rx="8" stroke="url(#njss03yyfe)" stroke-opacity=".27"/>
    <defs>
        <radialGradient id="29t7k1cezb" cx="0" cy="0" r="1" gradientUnits="userSpaceOnUse" gradientTransform="matrix(62.9376 0 0 62.9442 51.241 31.711)">
            <stop stop-color="#AEB2D5"/>
            <stop offset=".3" stop-color="#AEB2D5"/>
            <stop offset=".75" stop-color="#484C89"/>
            <stop offset="1" stop-color="#484C89"/>
        </radialGradient>
        <linearGradient id="njss03yyfe" x1="84" y1="1" x2="84" y2="95" gradientUnits="userSpaceOnUse">
            <stop stop-color="#B9B9B9" stop-opacity=".44"/>
            <stop offset="1" stop-color="#5E5E5E" stop-opacity=".58"/>
        </linearGradient>
    </defs>
</svg>
