<svg width="168" height="96" viewBox="0 0 168 96" fill="none" xmlns="http://www.w3.org/2000/svg">
    <rect x="1" y="1" width="166" height="94" rx="8" fill="#fff"/>
    <path d="M50.046 62.652s-2.06 1.195 1.466 1.6c4.272.486 6.455.416 11.162-.472 0 0 1.238.774 2.966 1.445-10.553 4.512-23.883-.26-15.594-2.572v-.001zm-1.29-5.89s-2.3 1.707 1.218 2.07c4.563.47 8.167.509 14.402-.7 0 0 .863.873 2.22 1.35-12.76 3.723-26.97.295-17.84-2.73" fill="#5382A1"/>
    <path d="M59.629 46.775c2.6 2.987-.683 5.675-.683 5.675s6.602-3.4 3.57-7.66c-2.832-3.97-5.004-5.944 6.753-12.747 0 0-18.454 4.598-9.64 14.732z" fill="#E76F00"/>
    <path d="M73.586 67.008s1.524 1.254-1.68 2.224c-6.09 1.84-25.352 2.397-30.703.073-1.923-.836 1.684-1.995 2.818-2.238 1.183-.255 1.86-.207 1.86-.207-2.14-1.504-13.826 2.951-5.936 4.228 21.516 3.48 39.222-1.569 33.64-4.08zM51.038 50.663s-9.797 2.322-3.47 3.165c2.672.356 7.998.275 12.96-.14 4.055-.34 8.126-1.068 8.126-1.068s-1.43.61-2.464 1.316c-9.95 2.61-29.17 1.395-23.636-1.275 4.68-2.257 8.484-2 8.484-2v.002zm17.575 9.8c10.114-5.244 5.438-10.282 2.174-9.604-.8.166-1.157.3-1.157.3s.297-.463.864-.664c6.457-2.265 11.423 6.68-2.084 10.223 0 0 .157-.14.203-.265" fill="#5382A1"/>
    <path d="M62.515 21.058s5.6 5.6-5.312 14.187c-8.752 6.896-1.996 10.827-.004 15.32-5.108-4.6-8.857-8.647-6.342-12.414 3.69-5.53 13.918-8.212 11.658-17.092" fill="#E76F00"/>
    <path d="M52.032 74.673c9.708.62 24.615-.344 24.968-4.927 0 0-.68 1.737-8.023 3.117-8.286 1.556-18.505 1.374-24.567.377 0 0 1.24 1.024 7.62 1.433" fill="#5382A1"/>
    <path d="M105.385 56.762c-.917.787-1.886 1.23-2.755 1.23-1.24 0-1.91-.736-1.91-1.918 0-1.278.718-2.212 3.6-2.212h1.066v2.9h-.001zm2.53 2.826V50.84c0-2.235-1.288-3.7-4.393-3.7-1.813 0-3.4.443-4.69 1.008l.372 1.55c1.016-.37 2.33-.713 3.622-.713 1.79 0 2.558.713 2.558 2.186v1.106h-.893c-4.346 0-6.306 1.67-6.306 4.176 0 2.163 1.292 3.392 3.724 3.392 1.563 0 2.73-.64 3.822-1.574l.198 1.328h1.985l.001-.011zm8.446 0h-3.156l-3.8-12.236h2.756l2.357 7.518.524 2.26c1.192-3.27 2.036-6.586 2.458-9.78h2.68c-.72 4.03-2.01 8.452-3.822 12.236l.003.002zm12.108-2.826c-.92.787-1.89 1.23-2.76 1.23-1.24 0-1.91-.736-1.91-1.918 0-1.278.72-2.212 3.6-2.212h1.068v2.9h.002zm2.53 2.826V50.84c0-2.235-1.29-3.7-4.392-3.7a11.67 11.67 0 0 0-4.692 1.008l.372 1.55c1.016-.37 2.334-.713 3.624-.713 1.787 0 2.558.713 2.558 2.186v1.106h-.894c-4.347 0-6.306 1.67-6.306 4.176 0 2.163 1.29 3.392 3.723 3.392 1.564 0 2.73-.64 3.824-1.574l.2 1.328H131l-.001-.011zm-35.588 2.078C94.7 62.71 93.525 63.533 92.25 64L91 62.545c.97-.493 1.804-1.3 2.19-2.03.335-.66.473-1.5.473-3.544V43h2.69v13.778c0 2.718-.22 3.817-.94 4.888h-.002z" fill="#E76F00"/>
    <rect x="1" y="1" width="166" height="94" rx="8" stroke="url(#p5euh38kha)" stroke-opacity=".27"/>
    <defs>
        <linearGradient id="p5euh38kha" x1="84" y1="1" x2="84" y2="95" gradientUnits="userSpaceOnUse">
            <stop stop-color="#B9B9B9" stop-opacity=".44"/>
            <stop offset="1" stop-color="#5E5E5E" stop-opacity=".58"/>
        </linearGradient>
    </defs>
</svg>
