<svg width="168" height="96" viewBox="0 0 168 96" fill="none" xmlns="http://www.w3.org/2000/svg">
    <rect x="1" y="1" width="166" height="94" rx="8" fill="#fff"/>
    <path d="M84.5 50.006h-8.165V41.87h8.189v8.1a12.961 12.961 0 0 0 12.078-17.66 12.261 12.261 0 0 0-7.324-7.255C80.13 21.75 71.5 28.433 71.5 37.072h-8.187c0-13.77 13.398-24.508 27.925-19.998 6.34 1.98 11.404 6.992 13.373 13.292 4.55 14.437-6.255 27.754-20.11 27.754v-8.114zm-8.165 6.228H70.07v-6.228h6.267v6.228h-.002zm-6.266-6.228h-5.27V44.78h5.258v5.226h.011zM49.49 66.376c.6.382 1.056.955 1.394 1.67.312.716.48 1.55.48 2.482 0 .932-.169 1.8-.48 2.506-.337.716-.792 1.3-1.37 1.694-1.056.788-2.4 1.17-3.938 1.17H42.19v-10.62h3.361c1.538 0 2.88.358 3.938 1.098h.003zm-5.33.692v7.04h1.08c1.2 0 2.16-.24 2.858-.692.816-.525 1.225-1.503 1.225-2.887 0-1.336-.408-2.267-1.225-2.768-.744-.453-1.705-.692-2.88-.692h-1.06.002zm9.532-1.933c.312.003.612.122.84.334a1.088 1.088 0 0 1 .337.81 1.15 1.15 0 0 1-.337.835c-.24.215-.528.334-.84.334-.335 0-.623-.12-.84-.334-.215-.24-.336-.5-.336-.835 0-.335.12-.597.336-.8a1.2 1.2 0 0 1 .84-.334v-.01zm-.96 3.27h1.898v7.493h-1.898v-7.493zm8.789.62h-.048v-.644h1.873v6.8c0 1.122-.337 2.028-1.008 2.72-.672.692-1.585 1.026-2.713 1.026-.84 0-1.56-.2-2.113-.55-.576-.358-.984-.74-1.273-1.122l-.025-.048 1.297-1.24c.672.907 1.225 1.24 2.1 1.24.576 0 1.032-.167 1.37-.5.339-.333.505-.8.505-1.432V75.1c-.505.406-1.154.597-1.873.597-1.032 0-1.92-.358-2.593-1.05-.677-.707-1.01-1.613-1.01-2.663 0-1.098.36-2.005 1.031-2.697.672-.716 1.538-1.074 2.593-1.074.697 0 1.32.3 1.898.8l-.011.012zm-.505 4.44c.336-.382.505-.86.505-1.456s-.169-1.098-.505-1.48a1.671 1.671 0 0 0-1.297-.549c-.527 0-.983.167-1.297.55-.313.383-.48.86-.48 1.48 0 .597.145 1.074.48 1.456a1.671 1.671 0 0 0 1.297.55c.529 0 .96-.168 1.297-.55zm3.986-5.06H66.9v7.493h-1.898v-7.493h.002zm.96-3.27c.337 0 .6.12.84.334a1.088 1.088 0 0 1 .337.81 1.15 1.15 0 0 1-.337.835c-.24.215-.528.334-.84.334-.335 0-.623-.12-.84-.334-.216-.24-.336-.5-.336-.835 0-.335.12-.597.337-.8a1.2 1.2 0 0 1 .84-.334v-.01zm5.1 1.24v2.005h1.778v1.72h-1.777v2.84c0 .5.072.835.216 1.002.144.167.431.24.888.24l.647-.024v1.718H72.7c-.288.024-.6.024-.913.024-.96 0-1.657-.2-2.04-.597-.382-.397-.576-1.098-.576-2.076v-3.102H68.1v-1.718h1.08V66.38h1.873l.011-.005zm10.66-1.122h1.898v10.643h-1.897V65.253zm21.058 7.97 1.25 1.193a3.83 3.83 0 0 1-3.242 1.67c-1.055 0-1.945-.382-2.7-1.122-.72-.74-1.105-1.67-1.105-2.792 0-1.122.36-2.052 1.106-2.792.744-.74 1.656-1.122 2.699-1.122 1.25 0 2.28.5 3.097 1.55L102.636 71c-.552-.644-1.2-1.026-1.8-1.026a1.762 1.762 0 0 0-1.368.62c-.36.406-.553.93-.553 1.575 0 .62.192 1.17.552 1.575.36.43.816.62 1.37.62.347.008.688-.083.984-.262.264-.167.624-.5.96-.883v.004zm7.804-3.77c.259.37.454.782.576 1.217.126.45.191.916.192 1.384l-.024.692h-5.018c.048.477.24.86.552 1.145.336.3.768.453 1.297.453.36 0 .672-.072.96-.215.192-.095.36-.24.552-.406l.432-.43 1.25 1.193-.048.048c-.792 1.002-1.85 1.527-3.12 1.527-1.13 0-2.04-.358-2.737-1.074-.672-.716-1.032-1.647-1.032-2.792 0-1.122.336-2.052.96-2.816.648-.764 1.513-1.145 2.57-1.145.576 0 1.105.12 1.56.334.455.214.816.5 1.08.883l-.002.002zm-4.154 1.766h2.93a1.424 1.424 0 0 0-.384-.883c-.24-.263-.6-.382-1.056-.382-.384 0-.72.12-.984.382-.24.215-.408.525-.504.883h-.002zm11.43-2.243c.576.477.864 1.193.936 2.076v4.82h-1.873v-.62c-.624.5-1.297.787-2.017.787s-1.32-.215-1.825-.62c-.504-.43-.744-.978-.744-1.694 0-.8.288-1.456.864-1.885.576-.429 1.345-.644 2.28-.644.456 0 .912.072 1.393.215v-.358c0-.334-.144-.597-.384-.8-.264-.215-.576-.3-.984-.3-.744 0-1.297.286-1.8 1.074l-1.225-1.145-.024-.024c.308-.515.759-.929 1.297-1.193a3.944 3.944 0 0 1 1.753-.406c.984 0 1.777.263 2.353.74v-.023zm-3.362 4.057c-.216.143-.312.334-.312.597 0 .24.096.406.264.55.192.143.432.215.768.215.672 0 1.225-.2 1.633-.573v-.74c-.504-.167-.984-.263-1.44-.263-.384 0-.696.072-.912.215h-.001zm11.525-3.914c.528.573.792 1.408.792 2.434v4.343h-1.897v-4.343c0-.477-.12-.883-.36-1.17-.24-.287-.552-.43-.984-.43-.504 0-.864.167-1.13.477-.266.31-.408.764-.408 1.336v4.128h-1.897v-7.47h1.85v.453c.456-.43 1.08-.644 1.825-.644.936 0 1.68.286 2.2.883l.009.003zm-46.677-.143c.576.477.864 1.193.936 2.076v4.82H78.4v-.62c-.625.5-1.297.787-2.018.787-.72 0-1.32-.215-1.825-.62-.504-.43-.743-.978-.743-1.694 0-.8.288-1.456.864-1.885.576-.429 1.344-.644 2.28-.644.456 0 .912.072 1.392.215v-.358c0-.334-.143-.597-.383-.8-.264-.215-.576-.3-.984-.3-.745 0-1.297.286-1.8 1.074l-1.224-1.167-.023-.024a3.1 3.1 0 0 1 1.296-1.193 3.939 3.939 0 0 1 1.754-.406c.983 0 1.776.263 2.352.74h.009zm-3.362 4.057c-.216.143-.313.334-.313.597 0 .24.097.406.264.55.192.143.432.215.768.215.672 0 1.226-.2 1.634-.573v-.74c-.504-.167-.984-.263-1.44-.263-.385 0-.697.072-.912.215h-.002zm14.526 3.03c-3.05 0-5.522-2.458-5.522-5.5s2.472-5.5 5.522-5.5c3.05 0 5.523 2.458 5.523 5.5s-2.473 5.5-5.523 5.5zm0-9.044c-1.97 0-3.578 1.6-3.578 3.556s1.6 3.556 3.578 3.556c1.979 0 3.579-1.6 3.579-3.556s-1.6-3.556-3.579-3.556z" fill="#0080FF"/>
    <rect x="1" y="1" width="166" height="94" rx="8" stroke="url(#3bp5k266xa)" stroke-opacity=".27"/>
    <defs>
        <linearGradient id="3bp5k266xa" x1="84" y1="1" x2="84" y2="95" gradientUnits="userSpaceOnUse">
            <stop stop-color="#B9B9B9" stop-opacity=".44"/>
            <stop offset="1" stop-color="#5E5E5E" stop-opacity=".58"/>
        </linearGradient>
    </defs>
</svg>
