<svg width="168" height="96" viewBox="0 0 168 96" fill="none" xmlns="http://www.w3.org/2000/svg">
    <rect x="1" y="1" width="166" height="94" rx="8" fill="#fff"/>
    <path d="m69.38 56.027-6.389 2.746 5.916 2.532 6.86-2.532-6.388-2.746zm-9.605 3.433-.214 12.358 9.346 4.12v-12.83l-9.132-3.647v-.001zm19.208 0-8.446 3.22v12.1l8.446-3.433V59.46zM89.06 21.012l-6.432 2.746 5.96 2.532 6.86-2.532-6.388-2.746zm-8.918 3.648v12.36l7.974 2.318.258-11.243-8.232-3.433v-.002zm17.836.687-7.546 3.22V40.7l7.546-3.433v-11.93.01zm-39.124 13.06-6.388 2.746 5.916 2.532 6.86-2.532-6.388-2.746zM49.25 41.84l-.214 12.358 9.346 4.12v-12.83L49.25 41.84v-.001zm19.208 0-8.446 3.22v12.1l8.446-3.433v-11.89.003zm10.976-3.89-6.388 2.746 5.916 2.532 6.86-2.532-6.388-2.746zm-9.604 3.433-.214 12.358 9.346 4.12V45.03l-9.132-3.648zm19.208 0-8.446 3.22v12.1l8.446-3.433V41.383zm20.123-20.37-6.388 2.746 5.927 2.54 6.86-2.531-6.388-2.746-.011-.01zm-9.604 3.433-.214 12.358 9.346 4.12v-12.83l-9.132-3.648zm19.208 0-8.446 3.22v12.1l8.446-3.433V24.445z" fill="#F7A80D"/>
    <rect x="1" y="1" width="166" height="94" rx="8" stroke="url(#x58qfk97xa)" stroke-opacity=".27"/>
    <defs>
        <linearGradient id="x58qfk97xa" x1="84" y1="1" x2="84" y2="95" gradientUnits="userSpaceOnUse">
            <stop stop-color="#B9B9B9" stop-opacity=".44"/>
            <stop offset="1" stop-color="#5E5E5E" stop-opacity=".58"/>
        </linearGradient>
    </defs>
</svg>
