<svg width="168" height="96" viewBox="0 0 168 96" fill="none" xmlns="http://www.w3.org/2000/svg">
    <rect x="1" y="1" width="166" height="94" rx="8" fill="#fff"/>
    <path d="M106.028 38.272H100.4a.275.275 0 0 0-.256.256v3.264c0 .128.128.256.256.256h5.638a.275.275 0 0 0 .256-.256v-3.264c.064-.128-.064-.256-.256-.256h-.01zm-.064 4.864H95.072a.53.53 0 0 0-.384.256l-1.474 5.568-1.666-5.696a.432.432 0 0 0-.384-.256h-4.23a.53.53 0 0 0-.384.256l-1.602 5.312-.064.256-.064-.128-.64-2.624-.705-2.624a.432.432 0 0 0-.384-.256H74.57v-4.608c0-.128-.192-.32-.384-.256L68.802 40c-.192.064-.256.128-.256.256v2.88h-1.4a.275.275 0 0 0-.256.256v4.096c0 .128.128.256.256.256h1.4v4.992c0 3.52 1.922 5.184 5.446 5.184 1.474 0 2.883-.32 3.844-.832v-4.224c0-.192-.192-.256-.32-.256a3.497 3.497 0 0 1-1.538.32c-.96 0-1.474-.384-1.474-1.472v-3.648h3.075a.275.275 0 0 0 .256-.256v-3.456l4.037 13.376a.432.432 0 0 0 .384.256h4.485a.53.53 0 0 0 .384-.256l1.922-5.952.96 3.072.897 2.816a.432.432 0 0 0 .384.256h4.485a.53.53 0 0 0 .384-.256l4.1-13.44v13.44c0 .128.128.256.256.256h5.446a.275.275 0 0 0 .256-.256V43.456c0-.192-.128-.32-.256-.32h.005zm7.176-4.864h-5.446a.275.275 0 0 0-.256.256v18.88c0 .128.128.256.256.256h5.446a.275.275 0 0 0 .256-.256v-18.88a.275.275 0 0 0-.256-.256zm7.24 0h-5.638a.275.275 0 0 0-.256.256v3.264c0 .128.128.256.256.256h5.638a.275.275 0 0 0 .256-.256v-3.264c.064-.128-.064-.256-.256-.256zm-.064 4.864h-5.446a.275.275 0 0 0-.256.256v14.016c0 .128.128.256.256.256h5.446a.275.275 0 0 0 .256-.256V43.456c0-.192-.128-.32-.256-.32zm9.034-.32c-4.805 0-8.2 3.52-8.2 7.616v.064c0 4.096 3.396 7.552 8.137 7.552 4.805 0 8.2-3.52 8.2-7.616v-.064c0-4.096-3.396-7.552-8.137-7.552zm2.307 7.616c0 1.408-.96 2.496-2.307 2.496s-2.37-1.152-2.37-2.56v-.064c0-1.408.96-2.496 2.307-2.496s2.37 1.152 2.37 2.624zM47.018 32C38.176 32 31 39.168 31 48s7.176 16 16.018 16 16.018-7.168 16.018-16-7.176-16-16.018-16zm0 27.776A11.753 11.753 0 0 1 35.228 48a11.752 11.752 0 0 1 11.79-11.776A11.751 11.751 0 0 1 58.807 48a11.752 11.752 0 0 1-11.79 11.776h.001z" fill="#F12E45"/>
    <path d="M50.99 47.36a3.33 3.33 0 0 0 3.332-3.328 3.33 3.33 0 0 0-3.332-3.328 3.33 3.33 0 0 0-3.332 3.328 3.33 3.33 0 0 0 3.332 3.328zM50.99 55.296a3.33 3.33 0 0 0 3.332-3.328 3.33 3.33 0 0 0-3.332-3.328 3.33 3.33 0 0 0-3.332 3.328 3.33 3.33 0 0 0 3.332 3.328zM43.047 55.296a3.33 3.33 0 0 0 3.332-3.328 3.33 3.33 0 0 0-3.332-3.328 3.33 3.33 0 0 0-3.332 3.328 3.33 3.33 0 0 0 3.332 3.328zM43.047 47.36a3.33 3.33 0 0 0 3.332-3.328 3.33 3.33 0 0 0-3.332-3.328 3.33 3.33 0 0 0-3.332 3.328 3.33 3.33 0 0 0 3.332 3.328z" fill="#F12E45"/>
    <rect x="1" y="1" width="166" height="94" rx="8" stroke="url(#hfq6b7boia)" stroke-opacity=".27"/>
    <defs>
        <linearGradient id="hfq6b7boia" x1="84" y1="1" x2="84" y2="95" gradientUnits="userSpaceOnUse">
            <stop stop-color="#B9B9B9" stop-opacity=".44"/>
            <stop offset="1" stop-color="#5E5E5E" stop-opacity=".58"/>
        </linearGradient>
    </defs>
</svg>
