<svg width="168" height="96" viewBox="0 0 168 96" fill="none" xmlns="http://www.w3.org/2000/svg">
    <rect x="1" y="1" width="166" height="94" rx="8" fill="#fff"/>
    <path d="M118.563 43.5c-1.67 0-1.495 2.047-1.564 4.233h2.782c0-2.464 0-4.234-1.217-4.234h-.001zM117 51.3c0 1.977.973 2.36 2.608 2.36 1.878 0 4.416-.557 5.4-.73v4.8c-.765.277-3.095.936-5.4.936-4.138 0-9.18-.66-9.18-9.475 0-7.774 3.964-9.614 8.137-9.614 4.277 0 7.372 2.187 7.372 9.544V51.3H117zm-16.312-6.873c-.382 0-1.147.312-1.564.556v8.884c.313.105.87.174 1.113.174 1.148 0 1.843-.972 1.843-5.032 0-4.13-.314-4.582-1.39-4.582h-.002zm.765 14.23c-.835 0-1.704-.243-2.33-.382v6.63h-6.607v-24.99h5.355l.974 1.145a5.983 5.983 0 0 1 3.93-1.492c2.712 0 5.91.763 5.91 9.44 0 9.5-4.8 9.65-7.233 9.65h.001zM86.43 37.66c-1.843 0-3.268-1.492-3.268-3.297 0-1.805 1.426-3.297 3.268-3.297 1.842 0 3.27 1.492 3.27 3.297 0 1.805-1.426 3.297-3.27 3.297zM83.125 58.3V39.914h6.607V58.3h-6.607zm-4-13.223c-1.043 0-1.843.417-2.19.625V58.3h-6.607V39.914h5.25l.974 1.77c.382-1.145 1.426-2.117 2.956-2.117 1.043 0 1.74.208 2.05.382v5.483c-.66-.173-1.53-.346-2.434-.346v-.01zM66.57 53.66c.417 0 1.878-.208 2.364-.278v4.685c-1.008.243-3.234.6-4.694.6-1.878 0-5.4-.208-5.4-5.3v-9.232h-2.434v-4.2h2.434l.835-4.165 5.772-1.388v5.553h3.477l-.87 4.2h-2.608v8.052c0 1.25.382 1.492 1.112 1.492l.012-.019zm-17.076-8.434c0 .73.487.972 1.634 1.492l.696.313c1.634.73 3.894 1.91 3.894 5.38 0 5.553-4.138 6.247-7.094 6.247-1.913 0-3.93-.45-5.286-.867v-4.755c1.182.313 3.234.798 4.138.798 1.008 0 1.773-.138 1.773-1.04 0-.694-.487-1.006-1.565-1.492l-.835-.382c-1.565-.73-3.8-1.978-3.8-5.345 0-4.928 3.86-6.004 7.094-6.004 2.434 0 4.034.555 4.868.868v4.616c-.974-.312-2.955-.73-4.138-.73-.8 0-1.39.208-1.39.902h.01z" fill="#359AD5"/>
    <rect x="1" y="1" width="166" height="94" rx="8" stroke="url(#gpk29hvkca)" stroke-opacity=".27"/>
    <defs>
        <linearGradient id="gpk29hvkca" x1="84" y1="1" x2="84" y2="95" gradientUnits="userSpaceOnUse">
            <stop stop-color="#B9B9B9" stop-opacity=".44"/>
            <stop offset="1" stop-color="#5E5E5E" stop-opacity=".58"/>
        </linearGradient>
    </defs>
</svg>
