<svg width="168" height="96" viewBox="0 0 168 96" fill="none" xmlns="http://www.w3.org/2000/svg">
    <rect x="1" y="1" width="166" height="94" rx="8" fill="#fff"/>
    <path d="m95.221 36.092 5.911-5.911.393-2.488c-10.77-9.796-27.891-8.684-37.603 2.317-2.697 3.054-4.697 6.864-5.764 10.8l2.116-.3 11.822-1.948.911-.933c5.258-5.776 14.151-6.552 20.22-1.64l1.994.103z" fill="#EA4335"/>
    <path d="M109.556 40.632a26.636 26.636 0 0 0-8.027-12.942l-8.297 8.296a14.745 14.745 0 0 1 5.413 11.696v1.472a7.384 7.384 0 0 1 7.383 7.383c0 4.076-3.306 7.301-7.383 7.301H83.86l-1.45 1.577v8.857l1.45 1.391h14.786c10.605.084 19.27-8.366 19.354-18.97a19.211 19.211 0 0 0-8.443-16.06z" fill="#4285F4"/>
    <path d="M69.09 75.664h14.768V63.842H69.09a7.277 7.277 0 0 1-3.027-.662l-2.096.641-5.952 5.911-.519 2.011c3.34 2.521 7.413 3.939 11.594 3.92z" fill="#34A853"/>
    <path d="M69.09 37.315c-10.607.063-19.153 8.713-19.09 19.32a19.214 19.214 0 0 0 7.497 15.11l8.566-8.566a7.383 7.383 0 1 1 9.769-9.768l8.567-8.567a19.187 19.187 0 0 0-15.308-7.53z" fill="#FBBC05"/>
    <rect x="1" y="1" width="166" height="94" rx="8" stroke="url(#3xs0sjvg2a)" stroke-opacity=".27"/>
    <defs>
        <linearGradient id="3xs0sjvg2a" x1="84" y1="1" x2="84" y2="95" gradientUnits="userSpaceOnUse">
            <stop stop-color="#B9B9B9" stop-opacity=".44"/>
            <stop offset="1" stop-color="#5E5E5E" stop-opacity=".58"/>
        </linearGradient>
    </defs>
</svg>
