<svg width="168" height="98" viewBox="0 0 168 98" fill="none" xmlns="http://www.w3.org/2000/svg">
    <rect x="1" y="1" width="166" height="96" rx="8" fill="#fff"/>
    <path d="M91.45 77.024h.667l10.897-5.48.18-.258v-43.73l-.18-.26-10.897-5.474h-.676l.008 55.2" fill="#5294CF"/>
    <path d="M77.27 77.024h-.677l-10.888-5.48-.22-.382-.112-43.384.333-.482 10.888-5.474h.685l-.008 55.2" fill="#1F5B98"/>
    <path d="M76.61 21.823h15.495v55.2H76.61v-55.2z" fill="#2D72B8"/>
    <path d="m108.72 48.183-.368-.082-5.258-.493-.078.04-10.907-.44H76.61l-10.907.44v-8.362l-.01.006.01-.024 10.907-2.54h15.497l10.907 2.54 4 2.143v-1.378l1.695-.186-.175-.344-5.365-3.857-.163.053-10.898-3.4H76.61l-10.907 3.399v-8.4L60 34.016v5.868l.044-.032 1.65.18v1.406L60 42.35v5.838l.044-.005 1.65.024v2.45l-1.424.02-.27-.026v5.84l1.695.916v1.422l-1.624.18-.07-.054v5.867l5.704 6.72v-8.4l10.907 3.398h15.497l10.94-3.408.145.064 5.295-3.8.232-.38-1.695-.188V57.44l-.222-.09-3.624 1.964-.13.276-10.94 2.526v.003h-15.5v-.003L65.704 59.58v-8.393l10.907.437v.01h15.497l10.907-.448.248.115 5.096-.44.36-.177-1.695-.024v-2.45l1.695-.024" fill="#1A476F"/>
    <path d="M103.016 63.145v8.4l5.704-6.72v-5.828l-5.67 4.138-.033.01h-.001zm.001-3.548.033-.008 5.67-3.067v-5.864l-5.704.528v8.41h.001zm.032-20.324-.033-.008v8.38l5.704.536v-5.86l-5.67-3.047-.001-.001zm.001-3.543 5.67 4.115v-5.83l-5.704-6.72v8.4l.033.01v.02" fill="#2D72B8"/>
    <rect x="1" y="1" width="166" height="96" rx="8" stroke="url(#h7ebf26a8a)" stroke-opacity=".27"/>
    <defs>
        <linearGradient id="h7ebf26a8a" x1="84" y1="1" x2="84" y2="97" gradientUnits="userSpaceOnUse">
            <stop stop-color="#B9B9B9" stop-opacity=".44"/>
            <stop offset="1" stop-color="#5E5E5E" stop-opacity=".58"/>
        </linearGradient>
    </defs>
</svg>
