<svg width="168" height="98" viewBox="0 0 168 98" fill="none" xmlns="http://www.w3.org/2000/svg">
    <rect x="1" y="1" width="166" height="96" rx="8" fill="#fff"/>
    <path d="M116.257 65.13c-3.736 1.953-23.087 9.93-27.207 12.085-4.12 2.155-6.41 2.133-9.663.573S55.54 67.887 51.83 66.11c-1.855-.89-2.83-1.64-2.83-2.348v-7.095s26.81-5.853 31.14-7.4c4.33-1.547 5.83-1.613 9.513-.26S115.36 54.335 119 55.672l-.002 6.995c.001.7-.84 1.47-2.74 2.464" fill="#912626"/>
    <path d="M116.255 58.078c-3.736 1.952-23.085 9.932-27.206 12.084-4.12 2.152-6.408 2.133-9.663.573-3.254-1.56-23.847-9.902-27.556-11.68-3.71-1.778-3.788-3.002-.143-4.433L80.14 43.577c4.328-1.557 5.83-1.613 9.513-.26 3.682 1.353 22.919 9.03 26.559 10.367 3.64 1.337 3.781 2.44.045 4.393" fill="#C6302B"/>
    <path d="M116.257 53.65c-3.736 1.953-23.087 9.93-27.207 12.086-4.12 2.156-6.41 2.132-9.663.572S55.54 56.408 51.83 54.63c-1.855-.89-2.83-1.64-2.83-2.348v-7.096s26.81-5.852 31.14-7.4c4.33-1.548 5.83-1.614 9.513-.26S115.36 42.853 119 44.19l-.002 6.996c.001.7-.84 1.47-2.74 2.464" fill="#912626"/>
    <path d="M116.255 46.596c-3.735 1.953-23.087 9.93-27.206 12.086-4.119 2.154-6.408 2.131-9.663.572-3.254-1.56-23.847-9.902-27.556-11.68-3.71-1.779-3.788-3.002-.143-4.433L80.14 32.097c4.328-1.558 5.83-1.614 9.513-.26 3.682 1.353 22.919 9.03 26.559 10.366 3.64 1.337 3.781 2.44.045 4.393" fill="#C6302B"/>
    <path d="M116.257 41.743c-3.736 1.952-23.087 9.93-27.207 12.086-4.12 2.156-6.41 2.132-9.663.572S55.54 44.5 51.83 42.722c-1.854-.89-2.83-1.64-2.83-2.347V33.28s26.81-5.852 31.14-7.41c4.33-1.558 5.83-1.613 9.513-.26S115.36 30.947 119 32.284l-.002 6.995c.001.7-.84 1.47-2.74 2.464" fill="#912626"/>
    <path d="M116.256 34.69c-3.735 1.952-23.087 9.93-27.206 12.085-4.119 2.155-6.408 2.132-9.663.573-3.255-1.559-23.847-9.9-27.557-11.678-3.71-1.777-3.787-3.002-.144-4.433L80.14 20.192c4.328-1.557 5.83-1.613 9.513-.26s22.92 9.03 26.56 10.368c3.64 1.338 3.78 2.44.045 4.392" fill="#C6302B"/>
    <path d="m92.553 27.79-6.018.627-1.347 3.25-2.176-3.628-6.95-.626 5.185-1.875-1.556-2.88 4.855 1.904 4.577-1.503-1.237 2.976 4.667 1.752v.003zM84.83 43.56l-11.233-4.67 16.095-2.477-4.863 7.15.001-.003zM69.256 29.596c4.75 0 8.602 1.497 8.602 3.344 0 1.847-3.85 3.344-8.602 3.344-4.752 0-8.602-1.497-8.602-3.344 0-1.847 3.85-3.344 8.602-3.344z" fill="#fff"/>
    <path d="m99.668 28.678 9.525 3.775-9.517 3.77-.008-7.546" fill="#621B1C"/>
    <path d="m89.129 32.858 10.538-4.18.008 7.546-1.033.405-9.513-3.77" fill="#9A2928"/>
    <rect x="1" y="1" width="166" height="96" rx="8" stroke="url(#3lmbcq7sqa)" stroke-opacity=".27"/>
    <defs>
        <linearGradient id="3lmbcq7sqa" x1="84" y1="1" x2="84" y2="97" gradientUnits="userSpaceOnUse">
            <stop stop-color="#B9B9B9" stop-opacity=".44"/>
            <stop offset="1" stop-color="#5E5E5E" stop-opacity=".58"/>
        </linearGradient>
    </defs>
</svg>
