<svg width="168" height="98" viewBox="0 0 168 98" fill="none" xmlns="http://www.w3.org/2000/svg">
    <rect x="1" y="1" width="166" height="96" rx="8" fill="#fff"/>
    <path d="M140.04 45.53c-.117.023-.234.283-.234.424l-.047 5.138c0 .047.07.14.14.14l1.92.047c1.008 0 1.593-.14 1.922-.282.843-.424 1.242-1.344 1.242-2.357 0-2.286-1.593-3.158-3.96-3.158a3.788 3.788 0 0 0-.984.047l.001.001zm6.046 10.535c0-2.333-1.71-3.63-4.803-3.63-.14 0-1.125-.023-1.36.023-.07.024-.164.07-.164.142l.047 5.373c.047.448.375 1.084.773 1.273.42.236 1.382.283 2.038.283 1.85 0 3.468-1.037 3.468-3.464h.001zm-10.825-11.83 2.74.07 4.733-.047c2.038 0 4.85.73 4.85 3.794 0 1.508-1.054 2.7-2.437 3.3-.07.023-.07.07 0 .094 1.968.495 3.702 1.72 3.702 4.03 0 2.263-1.406 3.7-3.444 4.596-1.242.542-2.788.73-4.358.73-1.195 0-4.405-.14-6.186-.094-.187-.07.164-.92.328-1.06.422-.024.75-.047 1.195-.19.633-.165.703-.353.797-1.32l.047-5.82V46.59c-.023-.73-.28-.966-.797-1.108l-1.594-.235c-.117-.118.28-.92.422-1.013l.002.001zm-13.52 14.66c.563.447 1.664.636 2.648.636 1.265 0 2.53-.235 3.75-1.343 1.242-1.13 2.11-2.875 2.11-5.656 0-2.663-1.007-4.832-3.07-6.104-1.172-.73-2.67-1.037-4.405-1.037-.515 0-1.007.023-1.312.165-.07.047-.234.26-.234.377-.047.47-.047 4.1-.047 6.222l.047 5.61c0 .354.164.896.515 1.13h-.002zm-5.32-14.66 2.976.07 5.32-.07c2.343 0 4.31.636 5.717 1.838 1.7 1.485 2.6 3.535 2.6 6.033 0 3.56-1.617 5.61-3.234 6.788-1.616 1.202-3.725 1.91-6.724 1.91-1.593 0-4.335-.047-6.608-.07h-.023c-.117-.212.187-1.037.375-1.06.61-.07.773-.094 1.078-.212.492-.19.586-.448.656-1.32l.047-5.798-.024-5.656c-.07-.825-.42-1.037-1.125-1.178l-1.476-.235c-.094-.165.328-.896.445-1.037v-.003z" fill="#8E714E"/>
    <path d="M88.07 59.813c-.585-.07-1.007-.165-1.522-.4-.07-.047-.189-.283-.189-.377l-.046-4.76c0-1.273-.21-2.38-.75-3.158a3.19 3.19 0 0 0-2.719-1.414c-1.03 0-2.413.707-3.561 1.697-.023.023-.21.19-.188-.07 0-.26.048-.778.07-1.13.024-.33-.164-.495-.164-.495-.75.377-2.858.872-3.632.942-.561.118-.703.66-.117.85h.023c.632.188 1.054.4 1.382.613.234.188.21.448.21.66l-.047 5.963c-.022.59-.186.8-.61.895l.047-.023-.984.188c-.14.14-.14.896 0 1.06l2.743-.07 2.74.07c.163-.188.21-.896.117-1.06-.446-.023-.773-.07-1.079-.165-.421-.094-.54-.306-.563-.8l-.045-5.68c0-.495.14-.73.28-.872.54-.47 1.406-.8 2.18-.8.75 0 1.242.236 1.617.542.514.424.68 1.037.75 1.485.117 1.013.07 3.017.07 4.76 0 .943-.07 1.178-.42 1.296-.164.07-.587.165-1.078.212-.164.165-.117.896 0 1.06l2.648-.07 2.764.07c.118-.14.165-.825.07-1.014l.004-.005zm6.5-9.003c-1.241 0-2.015.966-2.015 2.474 0 1.532.68 3.3 2.6 3.3.329 0 .938-.14 1.219-.47.445-.424.75-1.273.75-2.168 0-1.956-.96-3.134-2.554-3.134v-.002zm-.163 10.417c-.468 0-.797.14-1.007.26-.985.636-1.43 1.25-1.43 1.98 0 .683.258 1.225.82 1.697.68.59 1.616.872 2.811.872 2.4 0 3.445-1.296 3.445-2.57 0-.896-.446-1.485-1.36-1.815-.657-.283-1.85-.424-3.28-.424zm.163 6.128c-1.43 0-2.46-.306-3.35-1-.867-.66-1.242-1.65-1.242-2.333 0-.188.047-.707.47-1.178.258-.283.82-.825 2.157-1.744.046-.023.07-.047.07-.094s-.047-.094-.094-.117c-1.1-.424-1.43-1.108-1.523-1.485v-.047c-.024-.14-.07-.283.14-.424l.656-.424 1.078-.707c.046-.047.046-.094.046-.14 0-.046-.046-.094-.093-.118-1.64-.542-2.46-1.768-2.46-3.606 0-1.202.54-2.286 1.5-2.97.656-.518 2.296-1.155 3.374-1.155h.07c1.1.023 1.7.26 2.576.566.47.165.915.235 1.524.235.914 0 1.312-.283 1.64-.612.024.047.07.165.094.47.017.385-.09.765-.305 1.084-.187.26-.611.448-1.03.448h-.117l-.61-.094-.094.047c-.022.047 0 .094.023.165l.025.047c.046.212.14.848.14 1.013 0 1.933-.773 2.78-1.594 3.417a5.33 5.33 0 0 1-2.74 1.06c-.022 0-.117 0-.328.023-.116 0-.28.024-.304.024h-.023c-.188.047-.656.283-.656.683 0 .353.21.778 1.218.85l.655.047c1.336.094 3 .212 3.772.47a2.64 2.64 0 0 1 1.757 2.522c0 1.744-1.242 3.37-3.303 4.384a7.499 7.499 0 0 1-3.116.684l-.002.009zm13.356-16.427c-.492 0-.937.117-1.265.353-.914.566-1.382 1.697-1.382 3.347 0 3.088 1.546 5.256 3.75 5.256.656 0 1.172-.19 1.617-.566.68-.566 1.03-1.697 1.03-3.276 0-3.064-1.523-5.114-3.75-5.114zm.422 10.087c-3.983 0-5.413-2.946-5.413-5.703 0-1.933.773-3.417 2.32-4.478 1.1-.683 2.414-1.06 3.585-1.06 3.046 0 5.178 2.192 5.178 5.35 0 2.145-.843 3.84-2.46 4.878-.773.518-2.11 1.013-3.2 1.013h-.01zM66.585 50.928c-.491 0-.936.118-1.264.353-.915.566-1.383 1.697-1.383 3.347 0 3.088 1.546 5.256 3.75 5.256.656 0 1.172-.19 1.617-.566.68-.566 1.03-1.697 1.03-3.276 0-3.064-1.5-5.114-3.75-5.114zm.422 10.087c-3.983 0-5.412-2.946-5.412-5.703 0-1.933.773-3.417 2.32-4.478 1.1-.683 2.414-1.06 3.584-1.06 3.046 0 5.178 2.192 5.178 5.35 0 2.145-.843 3.84-2.46 4.878-.75.518-2.085 1.013-3.2 1.013h-.01zm-26.782-.236c-.047-.07-.094-.283-.07-.542a.802.802 0 0 1 .07-.353c.492-.07.75-.142 1.03-.212.47-.118.657-.377.68-.966l.047-6c0-.212 0-.47-.258-.66a5.305 5.305 0 0 0-1.405-.613c-.21-.07-.35-.188-.328-.33 0-.14.14-.306.445-.354.773-.07 2.788-.565 3.585-.92.047.047.117.19.117.377l-.024.26-.046.872c0 .094.094.165.187.165a.32.32 0 0 0 .14-.047c1.5-1.178 2.857-1.603 3.56-1.603 1.147 0 2.04.542 2.718 1.673.047.07.093.094.163.094.047 0 .118-.023.14-.07 1.384-1.06 2.766-1.697 3.68-1.697 2.18 0 3.468 1.626 3.468 4.384l-.022 2.7-.024 2.12c0 .117.164.495.42.565.329.165.774.236 1.36.33h.024c.047.165-.047.778-.14.896-.14 0-.353 0-.587-.023l-1.78-.047-2.93.07c-.045-.188-.07-.754 0-.896.422-.07.633-.14.89-.212.47-.14.587-.354.61-.966l-.044-5.184c-.14-.943-.843-2.05-2.4-2.05-.587 0-1.5.236-2.4.92a.419.419 0 0 0-.094.236v.024c.094.495.093 1.06.093 1.933v4.336c0 .52.305.636.562.73l.35.07.75.165c.048.094.047.4-.023.66-.024.14-.07.212-.093.236l-2.812-.047-1.477.024-1.053.023c-.024-.047-.07-.212-.07-.47 0-.212.047-.377.093-.424.117-.023.21-.047.328-.047l.75-.14c.4-.118.54-.33.563-.848.07-1.178.14-4.55-.023-5.397-.28-1.367-1.055-2.05-2.297-2.05-.726 0-1.64.353-2.4.92-.116.094-.21.33-.21.542v1.39l.024 4.737c.024.282.116.613.655.73.117.023.306.07.54.094l.42.07c.047.14.024.707-.07.896-.234 0-.514-.023-.843-.023l-1.827-.047-1.875.047c-.328-.047-.586-.047-.867-.047l.03-.004z" fill="#442D22"/>
    <path d="m27.9 66.435-.96-.33s.117-4.925-1.64-5.28c-1.17-1.367.188-57.977 4.405-.19 0 0-1.452.73-1.71 1.98-.28 1.226-.094 3.818-.094 3.818v.002z" fill="#fff"/>
    <path d="m27.9 66.435-.96-.33s.117-4.925-1.64-5.28c-1.17-1.367.188-57.977 4.405-.19 0 0-1.452.73-1.71 1.98-.28 1.226-.094 3.818-.094 3.818v.002z" fill="#A6A385"/>
    <path d="M28.416 61.675s8.412-5.562 6.442-17.134c-1.897-8.413-6.372-11.17-6.864-12.23-.54-.754-1.055-2.074-1.055-2.074l.352 23.402c0 .024-.726 7.165 1.125 8.037" fill="#fff"/>
    <path d="M28.416 61.675s8.412-5.562 6.442-17.134c-1.897-8.413-6.372-11.17-6.864-12.23-.54-.754-1.055-2.074-1.055-2.074l.352 23.402c0 .024-.726 7.165 1.125 8.037" fill="#499D4A"/>
    <path d="M26.448 61.98s-7.896-5.42-7.428-14.964c.445-9.545 6.022-14.235 7.1-15.083.703-.754.726-1.037.773-1.79.492 1.06.398 15.86.468 17.605.21 6.717-.375 12.963-.914 14.235l.001-.002z" fill="#fff"/>
    <path d="M26.448 61.98s-7.896-5.42-7.428-14.964c.445-9.545 6.022-14.235 7.1-15.083.703-.754.726-1.037.773-1.79.492 1.06.398 15.86.468 17.605.21 6.717-.375 12.963-.914 14.235l.001-.002z" fill="#58AA50"/>
    <rect x="1" y="1" width="166" height="96" rx="8" stroke="url(#9m7bdldgxa)" stroke-opacity=".27"/>
    <defs>
        <linearGradient id="9m7bdldgxa" x1="84" y1="1" x2="84" y2="97" gradientUnits="userSpaceOnUse">
            <stop stop-color="#B9B9B9" stop-opacity=".44"/>
            <stop offset="1" stop-color="#5E5E5E" stop-opacity=".58"/>
        </linearGradient>
    </defs>
</svg>
