<svg width="168" height="98" viewBox="0 0 168 98" fill="none" xmlns="http://www.w3.org/2000/svg">
    <rect x="1" y="1" width="166" height="96" rx="8" fill="#fff"/>
    <path d="M35.224 63.87h-5.47v-5.544h5.768c2.1 0 3.167.938 3.167 2.815 0 1.82-1.155 2.73-3.464 2.73l-.001-.001zm3.932-5.6c-.75-.677-1.8-1.015-3.147-1.015l-7.835.044v13.263h1.578l-.015-5.646h5.83c1.462 0 2.613-.338 3.452-1.014.839-.676 1.26-1.615 1.26-2.815s-.375-2.14-1.124-2.815v-.002zm10.217 9.5a2.72 2.72 0 0 1-.75 1.128c-.706.696-1.785 1.043-3.236 1.043-1.3 0-2.316-.338-3.018-1.014-.702-.676-1.053-1.58-1.053-2.714 0-.6.092-1.114.276-1.57.184-.456.45-.843.798-1.157.726-.667 1.724-1 2.997-1 2.818 0 4.226 1.243 4.226 3.728 0 .6-.08 1.1-.24 1.557v-.001zm.286-4.893c-.962-.884-2.386-1.326-4.272-1.326-1.783 0-3.16.452-4.13 1.354-.877.817-1.315 1.92-1.315 3.307 0 1.378.453 2.5 1.358 3.335.5.456 1.082.787 1.747 1 .665.213 1.445.306 2.34.306 1.877 0 3.305-.437 4.286-1.3.877-.798 1.316-1.905 1.316-3.32 0-1.425-.443-2.537-1.33-3.336v-.02zm11.94 5.275c0 1.785-1.587 2.678-4.762 2.678-.97 0-1.788-.062-2.452-.186-.664-.124-1.203-.33-1.618-.617a2.391 2.391 0 0 1-.763-.855c-.188-.35-.3-.793-.367-1.325l1.477-.014c0 .703.258 1.22.776 1.553.555.4 1.537.598 2.948.598 2.22 0 3.328-.56 3.328-1.68 0-.655-.372-1.106-1.116-1.353-.15-.048-1.048-.173-2.692-.377-1.644-.204-2.668-.387-3.073-.548-.876-.35-1.314-.983-1.314-1.895 0-.893.4-1.558 1.174-1.994.387-.18.87-.32 1.45-.42.58-.1 1.252-.15 2.016-.15 3.056 0 4.584.966 4.584 2.898H59.8c0-1.358-1.074-2.037-3.222-2.037-1.093 0-1.908.138-2.445.413-.537.275-.805.698-.805 1.268 0 .532.363.916 1.088 1.154.424.124 1.4.266 2.926.428 1.366.124 2.304.3 2.813.527.97.38 1.456 1.026 1.456 1.937l-.012-.003zm5.803 2.418-.6.085-.375.028c-.962 0-1.655-.14-2.08-.42-.425-.28-.638-.773-.638-1.477v-6.053h-1.752v-.9h1.738l.014-2.86h1.347v2.86H67.4v.905l-2.345-.015v5.9c0 .44.115.74.346.908.23.168.643.25 1.237.25.085.01.18.007.283-.01a4.94 4.94 0 0 0 .467-.107l.014.908v-.002zm9.314-2.007a3.972 3.972 0 0 1-1.258.698c-.472.162-1.013.242-1.625.242-2.816 0-4.224-1.172-4.224-3.516 0-1.1.36-1.945 1.08-2.562.72-.617 1.735-.925 3.045-.925 1.32 0 2.32.3 3.002.932.682.632 1.024 1.454 1.024 2.498 0 1.14-.35 2.016-1.046 2.633h.002zm2.392-6.715H77.76l-.014 1.496c-.594-.607-1.018-1-1.272-1.153-.754-.417-1.73-.626-2.926-.626-1.753 0-3.092.403-4.015 1.2-.877.74-1.315 1.813-1.315 3.218 0 .693.1 1.312.333 1.858.211.531.544 1.006.97 1.388.925.778 2.232 1.168 3.922 1.168 2.03 0 3.47-.56 4.318-1.678v1.55c0 .988-.3 1.752-.926 2.293-.626.54-1.633.812-3.047.812-1.33 0-2.276-.185-2.84-.553-.424-.283-.716-.775-.876-1.475H68.69c.15.977.56 1.684 1.23 2.12.773.503 2.08.754 3.917.754 3.516 0 5.275-1.317 5.275-3.952v-8.43l-.004.01zm7.284.882c-.405-.066-.78-.1-1.13-.1-2.214 0-3.32 1.223-3.32 3.67v4.254H80.6l-.015-8.704 1.347.013v1.553h.07c.226-.612.584-1.076 1.074-1.4.537-.306 1.337-.46 2.4-.46h.904v1.165l.012.009zm1.253 2.92c.17-1 .55-1.755 1.144-2.297.39-.316.835-.556 1.314-.706a5.433 5.433 0 0 1 1.654-.236c1.196 0 2.173.33 2.932.992.759.662 1.137 1.4 1.137 2.247h-8.181zm8.313-2.685a4.297 4.297 0 0 0-1.754-1.057c-.698-.227-1.513-.343-2.447-.343-1.745 0-3.098.4-4.06 1.226-.962.826-1.443 1.93-1.443 3.336s.462 2.523 1.386 3.35c1 .912 2.408 1.368 4.228 1.368.725 0 1.397-.083 2.014-.248a5.563 5.563 0 0 0 1.62-.703c.8-.587 1.324-1.3 1.54-2.17h-1.456c-.5 1.488-1.743 2.232-3.73 2.232-1.404 0-2.483-.364-3.237-1.092-.65-.624-.975-1.432-.975-2.425h9.6c0-1.476-.43-2.634-1.287-3.473v-.001z" fill="#231F20"/>
    <path d="M111.472 66.998c0 2.584-2.068 3.876-6.205 3.876-2.48 0-4.288-.445-5.428-1.335-.933-.733-1.4-1.847-1.4-3.349h1.665c0 2.413 1.72 3.618 5.16 3.618 1.65 0 2.843-.247 3.578-.74.622-.436.933-1.12.933-2.05 0-.92-.424-1.566-1.273-1.936-.48-.2-1.655-.45-3.522-.754-2.347-.36-3.87-.72-4.567-1.083-1-.531-1.513-1.432-1.513-2.704 0-1.186.43-2.07 1.287-2.648.923-.636 2.507-.955 4.752-.955 4.054 0 6.08 1.357 6.08 4.07h-1.68c0-2.033-1.505-3.05-4.516-3.05-1.5 0-2.614.205-3.312.614-.66.436-1 1.078-1 1.923 0 .885.424 1.507 1.273 1.867.452.2 1.782.5 3.988.87 2.075.315 3.474.68 4.2 1.097 1 .514 1.485 1.403 1.485 2.666l.015.002zm13.527 1.319a6.464 6.464 0 0 1-2.109 1.13c-.784.25-1.66.377-2.633.377-1.982 0-3.583-.537-4.806-1.614-1.223-1.075-1.832-2.5-1.832-4.301 0-1.868.606-3.323 1.818-4.367 1.212-1.043 2.82-1.565 4.82-1.565 2.03 0 3.624.546 4.784 1.637a4.935 4.935 0 0 1 1.36 1.863c.294.71.44 1.522.44 2.431 0 1.86-.614 3.329-1.84 4.4l-.002.008zm.885.88c.868-.617 1.5-1.365 1.925-2.24.425-.876.623-1.9.623-3.04 0-2.06-.68-3.7-2.037-4.955a6.743 6.743 0 0 0-2.63-1.523c-1.027-.322-2.202-.498-3.522-.498-2.565 0-4.578.627-6.04 1.88-1.462 1.255-2.192 2.95-2.192 5.096 0 2.087.737 3.772 2.212 5.053 1.475 1.281 3.5 1.92 6.045 1.92 1 0 1.87-.067 2.615-.204.745-.136 1.376-.346 1.895-.628l2.46 1.718 1.027-.95-2.382-1.627.001-.002zm15.02 1.356h-11.38V57.276l1.564-.03v12.196h9.83l-.014 1.112z" fill="#367FAF"/>
    <path d="M91.662 46.585c.206-1.73.144-1.985 1.424-1.705l.325.03c.984.045 2.27-.16 3.027-.513 1.628-.76 2.593-2.032.988-1.698-3.66.76-3.913-.488-3.913-.488 3.866-5.78 5.482-13.118 4.087-14.913-3.805-4.9-10.39-2.582-10.5-2.522l-.035.007a13 13 0 0 0-2.443-.256c-1.657-.027-2.914.438-3.867 1.166 0 0-11.75-4.877-11.203 6.134.116 2.343 3.332 17.725 7.168 13.08 1.402-1.7 2.757-3.135 2.757-3.135.673.45 1.478.68 2.323.598l.065-.056c-.02.21-.01.417.026.66-.988 1.112-.698 1.308-2.673 1.718-2 .415-.824 1.154-.058 1.347.93.234 3.08.566 4.532-1.483l-.058.234c.388.312.36 2.246.416 3.627.056 1.38.147 2.67.426 3.43.279.76.61 2.717 3.206 2.157 2.17-.468 3.83-1.143 3.98-7.416" fill="#231F20"/>
    <path d="M91.662 46.585c.206-1.73.144-1.985 1.424-1.705l.325.03c.984.045 2.27-.16 3.027-.513 1.628-.76 2.593-2.032.988-1.698-3.66.76-3.913-.488-3.913-.488 3.866-5.78 5.482-13.118 4.087-14.913-3.805-4.9-10.39-2.582-10.5-2.522l-.035.007a13 13 0 0 0-2.443-.256c-1.657-.027-2.914.438-3.867 1.166 0 0-11.75-4.877-11.203 6.134.116 2.343 3.332 17.725 7.168 13.08 1.402-1.7 2.757-3.135 2.757-3.135.673.45 1.478.68 2.323.598l.065-.056c-.02.21-.01.417.026.66-.988 1.112-.698 1.308-2.673 1.718-2 .415-.824 1.154-.058 1.347.93.234 3.08.566 4.532-1.483l-.058.234c.388.312.36 2.246.416 3.627.056 1.38.147 2.67.426 3.43.279.76.61 2.717 3.206 2.157 2.17-.468 3.83-1.143 3.98-7.416" stroke="#231F20" stroke-width="2.723"/>
    <path d="M97.427 42.697c-3.662.76-3.913-.488-3.913-.488 3.866-5.78 5.482-13.118 4.088-14.914-3.805-4.898-10.39-2.582-10.5-2.522l-.035.006a12.96 12.96 0 0 0-2.443-.256c-1.657-.027-2.913.438-3.867 1.166 0 0-11.75-4.877-11.203 6.134.116 2.343 3.332 17.725 7.168 13.08 1.402-1.7 2.757-3.135 2.757-3.135.673.45 1.478.68 2.323.598l.066-.056a2.6 2.6 0 0 0 .026.66c-.988 1.113-.698 1.309-2.673 1.719-2 .415-.825 1.154-.058 1.347.93.234 3.08.566 4.532-1.483l-.058.234c.387.312.66 2.032.613 3.592-.047 1.56-.076 2.63.23 3.466.306.836.61 2.717 3.206 2.157 2.17-.468 3.294-1.683 3.45-3.708.11-1.44.362-1.227.378-2.514l.202-.61c.232-1.952.037-2.582 1.374-2.29l.325.03c.984.045 2.272-.16 3.027-.513 1.628-.76 2.593-2.032.988-1.698l-.003-.002z" fill="#417BA2"/>
    <path d="M87.096 24.726c-.407.13 6.54-2.56 10.5 2.524 1.395 1.796-.222 9.134-4.088 14.914l-6.412-17.438zm-3.246 19.09c-.1 3.632.025 7.3.378 8.178.353.878 1.108 2.618 3.705 2.057 2.17-.47 2.96-1.376 3.302-3.378l.8-6.402-8.185-.455zm-3.115-18.205s-11.758-4.842-11.2 6.17c.116 2.343 3.332 17.726 7.168 13.08 1.402-1.7 2.67-3.032 2.67-3.032l1.362-16.218z" stroke="#fff" stroke-width=".908" stroke-linecap="round" stroke-linejoin="round"/>
    <path d="M93.488 42.163s.252 1.25 3.914.488c1.604-.334.64.937-.988 1.698-1.335.624-4.33.785-4.378-.078-.126-2.226 1.576-1.55 1.453-2.108-.11-.502-.872-.996-1.375-2.225-.44-1.073-6.027-9.305 1.55-8.082.278-.058-1.976-7.26-9.067-7.38-7.09-.12-6.856 8.784-6.856 8.784" stroke="#fff" stroke-width=".908" stroke-linecap="round" stroke-linejoin="bevel"/>
    <path clip-rule="evenodd" d="M81.864 42.925c-.988 1.112-.698 1.308-2.673 1.718-2 .415-.824 1.154-.058 1.347.93.234 3.08.566 4.532-1.484.443-.624-.003-1.62-.6-1.874-.294-.122-.686-.276-1.19.293h-.01z" stroke="#fff" stroke-width=".908" stroke-linejoin="round"/>
    <path d="M81.8 42.906c-.1-.654.213-1.432.55-2.343.504-1.366 1.666-2.733.736-7.066-.693-3.23-5.342-.672-5.345-.234-.003.438.2 2.22-.078 4.295-.376 2.708 1.7 4.997 4.11 4.763" stroke="#fff" stroke-width=".908" stroke-linecap="round" stroke-linejoin="round"/>
    <path d="M80.692 33.196c-.02.15.272.55.653.602.381.052.707-.258.728-.408.021-.15-.272-.314-.653-.368-.38-.054-.707.025-.728.174zm11.605-.306c.02.15-.272.55-.653.602-.38.052-.707-.258-.728-.408-.02-.15.272-.314.654-.368.382-.054.707.024.728.174z" fill="#fff" stroke="#fff" stroke-width=".524"/>
    <path d="M93.663 31.856c.063 1.173-.25 1.972-.3 3.22-.06 1.815.86 3.893-.523 5.973" stroke="#fff" stroke-width=".908" stroke-linecap="round" stroke-linejoin="round"/>
    <rect x="1" y="1" width="166" height="96" rx="8" stroke="url(#o3zjtfclca)" stroke-opacity=".27"/>
    <defs>
        <linearGradient id="o3zjtfclca" x1="84" y1="1" x2="84" y2="97" gradientUnits="userSpaceOnUse">
            <stop stop-color="#B9B9B9" stop-opacity=".44"/>
            <stop offset="1" stop-color="#5E5E5E" stop-opacity=".58"/>
        </linearGradient>
    </defs>
</svg>
