<svg width="168" height="98" viewBox="0 0 168 98" fill="none" xmlns="http://www.w3.org/2000/svg">
    <rect x="1" y="1" width="166" height="96" rx="8" fill="#fff"/>
    <path d="M75.668 51.545h8.062l-4.263-6.9-7.823 12.494h-3.56L77.6 42.12a2.245 2.245 0 0 1 1.868-.972c.74 0 1.43.353 1.83.946l9.553 15.033h-3.56l-1.68-2.791H77.45l-1.78-2.792-.002.002zm36.985 2.792V41.3h-3.02v14.314a1.507 1.507 0 0 0 .439 1.06c.288.29.677.456 1.103.456h13.78l1.78-2.793h-14.082zM62.667 52c2.934 0 5.316-2.386 5.316-5.343S65.6 41.3 62.667 41.3H49.45v15.83h3.02V44.093h9.997c1.404 0 2.532 1.15 2.532 2.564 0 1.416-1.128 2.565-2.532 2.565l-8.518-.013 9.02 7.92h4.388l-6.069-5.128h1.38-.001zm-31.81 5.13C26.52 57.13 23 53.59 23 49.22s3.52-7.92 7.856-7.92h9.13c4.338 0 7.854 3.55 7.854 7.92s-3.517 7.909-7.855 7.909h-9.13l.002.002zm8.928-2.791c2.8 0 5.085-2.288 5.085-5.117 0-2.828-2.276-5.13-5.085-5.13h-8.726c-2.81 0-5.085 2.3-5.085 5.13s2.277 5.117 5.085 5.117h8.726zm57.373 2.791c-4.338 0-7.86-3.537-7.86-7.908 0-4.37 3.523-7.92 7.86-7.92h10.845l-1.768 2.792h-8.876c-2.808 0-5.1 2.3-5.1 5.13a5.104 5.104 0 0 0 5.1 5.117h10.895l-1.78 2.791h-9.315l-.001-.002zm36.948-2.791c-2.32 0-4.288-1.566-4.9-3.727h12.913l1.78-2.793h-14.694c.602-2.148 2.57-3.726 4.9-3.726h8.864l1.792-2.792h-10.857c-4.338 0-7.86 3.55-7.86 7.92s3.523 7.909 7.86 7.909h9.315l1.78-2.793h-10.895l.002.002z" fill="#EA1B22"/>
    <rect x="1" y="1" width="166" height="96" rx="8" stroke="url(#d8w7ocztwa)" stroke-opacity=".27"/>
    <defs>
        <linearGradient id="d8w7ocztwa" x1="84" y1="1" x2="84" y2="97" gradientUnits="userSpaceOnUse">
            <stop stop-color="#B9B9B9" stop-opacity=".44"/>
            <stop offset="1" stop-color="#5E5E5E" stop-opacity=".58"/>
        </linearGradient>
    </defs>
</svg>
