<svg width="168" height="96" viewBox="0 0 168 96" fill="none" xmlns="http://www.w3.org/2000/svg">
    <rect x="1" y="1" width="166" height="94" rx="8" fill="#fff"/>
    <path d="M48.193 62.115c0 3.573-1.875 5.095-5.73 5.095H36.73c-3.856 0-5.731-1.486-5.731-5.095V48.46c0-3.574 1.875-5.095 5.731-5.095h5.767c3.82 0 5.73 1.521 5.73 5.095v.99a.606.606 0 0 1-.424.566l-2.37.637c-.354.106-.743-.177-.743-.566v-.99c0-1.734-.566-2.477-2.653-2.477H37.19c-2.087 0-2.689.743-2.689 2.476v12.382c0 1.734.602 2.477 2.689 2.477h4.811c2.088 0 2.654-.743 2.654-2.477v-1.167c0-.39.389-.672.743-.566l2.37.708c.248.07.424.282.424.566v1.096zM53.215 63.92h6.05V46.584H53.64a.559.559 0 0 1-.566-.566V43.93c0-.318.248-.566.566-.566h14.788c.318 0 .566.248.566.566v2.088a.559.559 0 0 1-.566.566h-5.66v17.334h6.049c.318 0 .566.248.566.567v2.122a.559.559 0 0 1-.566.566H53.216a.559.559 0 0 1-.566-.566v-2.123c-.036-.282.247-.566.566-.566zM115.481 62.115c0 3.573-1.875 5.095-5.731 5.095h-5.767c-3.821 0-5.731-1.486-5.731-5.095V48.46c0-3.574 1.875-5.095 5.731-5.095h5.767c3.82 0 5.731 1.521 5.731 5.095v.99a.606.606 0 0 1-.425.566l-2.37.637c-.354.106-.743-.177-.743-.566v-.99c0-1.734-.566-2.477-2.653-2.477h-4.812c-2.087 0-2.688.743-2.688 2.476v12.382c0 1.734.601 2.477 2.688 2.477h4.812c2.087 0 2.653-.743 2.653-2.477v-1.167c0-.39.389-.672.743-.566l2.37.708c.248.07.425.282.425.566v1.096zM137.131 62.116c0 3.573-1.769 5.094-5.625 5.094h-11.073a.559.559 0 0 1-.566-.566V43.967c0-.318.248-.566.566-.566h11.073c3.821 0 5.625 1.486 5.625 5.095v13.62zm-3.537-13.019c0-1.733-.566-2.476-2.654-2.476h-7.57v17.335h7.57c2.088 0 2.654-.743 2.654-2.477V49.097z" fill="#251B3F"/>
    <path d="M88.665 29.675c-.213-.071-.425 0-.53.177l-11.286 20.59c-.39.742-.283 1.627.283 2.228l5.412 5.731 6.368-28.267c.071-.176-.07-.389-.247-.46z" fill="#D72D20"/>
    <path d="m90.045 54.934-5.413-5.73-6.367 28.266c-.036.212.07.424.247.495.036.035.106.035.142.035a.39.39 0 0 0 .353-.212l11.286-20.59a1.816 1.816 0 0 0-.248-2.264z" fill="#F8911E"/>
    <path d="M64.82 24.12c.248 0 .425-.035.602-.07.177-.036.354-.107.496-.142v-1.097h-.708c-.106 0-.177-.035-.248-.07-.07-.071-.106-.142-.106-.213v-.92h2.583v3.043c-.177.142-.39.248-.566.354-.213.106-.425.177-.637.247-.212.071-.46.107-.708.142-.247.035-.53.035-.813.035-.531 0-1.026-.106-1.486-.283a3.38 3.38 0 0 1-1.168-.778 3.38 3.38 0 0 1-.778-1.167A4.112 4.112 0 0 1 61 21.715c0-.531.106-1.026.283-1.486.177-.46.425-.85.778-1.168.319-.318.743-.566 1.203-.778.46-.177.99-.283 1.592-.283.319 0 .566.035.85.07.247.036.495.107.742.213.212.07.425.177.602.318.176.107.353.248.495.39l-.496.742a.426.426 0 0 1-.176.177.502.502 0 0 1-.213.071.57.57 0 0 1-.318-.106c-.141-.07-.248-.142-.39-.212-.105-.071-.247-.106-.353-.142a1.272 1.272 0 0 0-.39-.07c-.14 0-.282-.036-.459-.036-.318 0-.601.07-.85.177-.247.106-.459.248-.636.46-.177.212-.318.46-.424.743-.107.283-.142.601-.142.955 0 .39.035.707.142 1.026.106.283.247.566.424.743.177.212.425.354.672.46.283.106.566.141.885.141zM72.214 25.323h-1.698v-7.217h1.698v7.217zM80.526 18.106v1.345H78.51v5.908h-1.663V19.45h-2.052v-1.345h5.731zM84.702 24.014h2.689v1.345h-4.352v-7.253h1.663v5.908zM96.977 25.323h-1.309c-.141 0-.283-.035-.353-.106-.071-.07-.177-.141-.213-.247l-.424-1.274h-2.76l-.424 1.274a.635.635 0 0 1-.177.247.598.598 0 0 1-.354.106h-1.309l2.795-7.217h1.734l2.794 7.217zm-4.634-2.759h1.981l-.672-1.981c-.035-.142-.106-.283-.142-.46-.07-.177-.106-.354-.177-.566-.035.212-.106.389-.176.566-.071.177-.106.318-.142.46l-.672 1.981zM99.418 25.323v-7.217h2.653c.496 0 .92.036 1.274.142.354.106.637.212.849.39.212.176.389.388.495.6.106.213.142.496.142.814 0 .177-.036.319-.071.46a1.19 1.19 0 0 1-.212.425 1.27 1.27 0 0 1-.389.353c-.177.107-.354.213-.567.283.46.107.814.319 1.062.566.212.248.354.602.354.991 0 .318-.071.601-.177.849a1.956 1.956 0 0 1-.531.708c-.212.212-.531.353-.849.46a3.686 3.686 0 0 1-1.167.176h-2.866zm1.663-4.174h.884c.177 0 .354 0 .495-.036.142-.035.283-.07.39-.141a.657.657 0 0 0 .247-.283c.071-.142.071-.248.071-.425s-.035-.318-.071-.424a.548.548 0 0 0-.212-.283 1.053 1.053 0 0 0-.354-.142c-.141-.035-.283-.035-.495-.035h-.991v1.769h.036zm0 1.132v1.804h1.167c.212 0 .389-.035.531-.07.141-.071.247-.142.318-.213.071-.106.142-.177.177-.318.035-.106.035-.213.035-.354 0-.142 0-.248-.035-.354a.762.762 0 0 0-.177-.283.929.929 0 0 0-.318-.177 2.149 2.149 0 0 0-.531-.07h-1.167v.035z" fill="#251B3F"/>
    <rect x="1" y="1" width="166" height="94" rx="8" stroke="url(#y3kx2oblda)" stroke-opacity=".27"/>
    <defs>
        <linearGradient id="y3kx2oblda" x1="84" y1="1" x2="84" y2="95" gradientUnits="userSpaceOnUse">
            <stop stop-color="#B9B9B9" stop-opacity=".44"/>
            <stop offset="1" stop-color="#5E5E5E" stop-opacity=".58"/>
        </linearGradient>
    </defs>
</svg>
