<svg width="168" height="96" viewBox="0 0 168 96" fill="none" xmlns="http://www.w3.org/2000/svg">
    <rect x="1" y="1" width="166" height="94" rx="8" fill="#fff"/>
    <path d="M61.4 45.027c1.07-2.464 1.043-4.902.4-6.83-.802-2.357-4.092-5.464-5.135-4.232-.134.16-2.033-.054-2.327.348-.455.59-.187.777.027.99.67.59 2.353 1.232 3.13 3.24.32.857 1.07 2.84-.24 4.045-1.47 1.34-3.13 1.66-9.922-4.66-7.22-6.723-16.902-3.99-20.112-2.92-3.21 1.07-4.68 2.143-3.423 4.607 1.712 3.375 1.15 2.33 2.835 5.116 2.648 4.42 8.478-2.036 8.478-2.036-4.333 6.536-8.05 4.955-9.467 2.68-1.284-2.062-2.273-4.42-2.273-4.42-10.965 3.964-7.997 21.43-7.997 21.43h5.456c1.39-6.43 6.365-6.187 7.194 0h4.145c3.664-12.562 11.527 0 11.527 0h4.653c0-6.696-.695-9.214 2.728-9.696 5.83-.777 8.558-3.51 10.323-7.66v-.002z" fill="#02303A"/>
    <path d="M81.058 43.34v2.653c.562-.964 1.845-3.16 6.017-3.027l-.027 4.58c-.963.027-2.648.054-4.012 1.098-1.9 1.446-1.98 3.348-1.98 6.43v7.045H76.75V43.314l4.306.027h.002zm7.8 5.626c.08-.937.16-1.848.75-2.92 1.792-3.24 6.205-3.214 7.408-3.214 1.792 0 3.93.24 5.563 1.205 2.193 1.34 2.22 3.107 2.22 5.116l-.027 9.857c0 1.42 0 1.982.802 3.107h-5.27l-.107-1.554c-.963.804-2.942 1.875-5.5 1.875-4.2-.027-6.713-2.625-6.713-5.84 0-.937.24-1.795.615-2.518 1.337-2.68 4.2-3.268 6-3.6 6.07-1.018 5.723-1.607 5.616-2.518-.08-.857-.963-1.66-3.022-1.66-1.845 0-2.862.6-3.316 1.18-.48.6-.455.964-.455 1.5l-4.547-.027-.017.01zm11.447 3.777c-.883.455-1.9.777-3.905 1.098-1.605.214-3.717.6-3.717 2.545 0 1.446 1.23 2.196 2.995 2.196 2.273 0 3.878-1.018 4.36-2.143.267-.562.267-1.125.267-1.66V52.74v.002zm24.444-16.93-.08 26.304h-4.413v-1.82c-1.4 1.66-3.236 2.33-5.162 2.33-4.413-.027-8.237-3.348-8.2-9.482.027-5.545 3.156-10.26 8.478-10.232 1.82 0 3.503.536 4.92 2.1v-9.187h4.466l-.009-.013zm-5.5 12.938c-.67-1.018-1.765-1.714-3.263-1.714-3.022 0-4.466 2.705-4.466 5.652 0 .348.027 5.92 4.36 5.92 2.3 0 4.386-1.687 4.36-5.705-.053-1.205-.187-2.92-1-4.152l.009-.001zm13.265-12.937-.08 26.304h-4.493V35.814h4.573zm19.924 21.938c-2.06 3.643-4.68 4.982-8.478 4.982-4.867-.027-9.548-3.107-9.52-9.964.027-6.24 4.038-9.777 9.28-9.75 4.894.027 6.927 2.973 7.3 3.5 1.524 2.17 1.845 5.4 1.872 7.26l-13.747-.054c.508 2.946 2.327 4.634 5.27 4.634 3.05 0 3.85-1.795 4.413-2.57l3.6 1.955.01.007zm-4.413-7.26c-.4-2.893-2.166-3.9-4.145-3.9-2.38 0-4.012 1.366-4.547 3.884l8.692.027v-.011zm-84.992-2.116v3.857h6.58v4.527c-1.685 1.07-3.6 1.688-6.365 1.688-4.44 0-8.103-3.723-8.103-9.536 0-5.705 3.37-9.5 8.505-9.5 4.12 0 5.67 3.402 5.9 4.687h4.493c0-2.625-3.102-9.08-10.805-9.08-8.157 0-12.97 5.786-12.97 13.93 0 8.464 5.777 13.768 12.677 13.768 10.216 0 11.1-5.116 11.1-5.116v-9.214h-11.02l.008-.011z" fill="#22DA27"/>
    <path d="M62.23 40.5c-.987.074-1.963.244-2.916.51-.027.026-.053.08-.08.106-.428.482-.963.938-1.55 1.205-.08.054-.16.08-.24.107l-.16.16c-1.47 1.34-3.263 1.66-9.922-4.66-7.14-6.777-16.902-3.99-20.112-2.92-3.21 1.07-4.68 2.143-3.423 4.607 1.712 3.375 1.15 2.33 2.835 5.116 2.648 4.42 8.478-2.036 8.478-2.036-4.333 6.536-8.05 4.955-9.467 2.68-1.284-2.062-2.273-4.42-2.273-4.42-10.965 3.964-7.997 21.43-7.997 21.43h5.456c1.39-6.43 6.365-6.187 7.194 0h4.145c3.664-12.562 11.527 0 11.527 0h4.653c0-6.696-.695-9.214 2.728-9.696 5.857-.804 8.558-3.536 10.323-7.66.642-1.554.883-3.107.802-4.527l-.002-.002z" fill="#02303A"/>
    <path d="m42.466 42.24 5.884 1.955c-.187.91-1.872 2.652-4.038 1.902-2.888-.937-1.845-3.857-1.845-3.857h-.001z" fill="#fff"/>
    <path d="M45.484 45.525c.837-.089 1.446-.816 1.36-1.625-.086-.81-.834-1.393-1.671-1.304-.837.089-1.446.817-1.36 1.626.086.809.834 1.392 1.67 1.303zM54.367 35.33c.187.16.428.32.67.482 1.123-.937 2.594-.91 3.85-1.42-1.097-1.018-2.862-1.795-3.397-1.152-.134.16-.83.696-1.123 1.098-.48.59-.24.777 0 .99v.002z" fill="#02303A"/>
    <rect x="1" y="1" width="166" height="94" rx="8" stroke="url(#8unvr7hc5a)" stroke-opacity=".27"/>
    <defs>
        <linearGradient id="8unvr7hc5a" x1="84" y1="1" x2="84" y2="95" gradientUnits="userSpaceOnUse">
            <stop stop-color="#B9B9B9" stop-opacity=".44"/>
            <stop offset="1" stop-color="#5E5E5E" stop-opacity=".58"/>
        </linearGradient>
    </defs>
</svg>
