<svg width="168" height="96" viewBox="0 0 168 96" fill="none" xmlns="http://www.w3.org/2000/svg">
    <rect x="1" y="1" width="166" height="94" rx="8" fill="#fff"/>
    <path d="M84.074 54.973c3.895 0 7.051-3.173 7.051-7.087 0-3.914-3.156-7.087-7.05-7.087-3.895 0-7.052 3.173-7.052 7.087 0 3.914 3.157 7.087 7.051 7.087z" fill="#343434"/>
    <path d="M55.276 40.372c0 .085-.085.256-.085.34 0 .768.595 1.452 1.444 1.452h11.978c.595 0 1.02-.34 1.274-.854 2.464-5.465 7.9-9.137 14.1-9.137 8.58 0 15.546 7.002 15.546 15.626 0 8.624-6.964 15.628-15.534 15.628-6.286 0-11.638-3.757-14.1-9.05-.255-.598-.68-.94-1.274-.94H56.636c-.765 0-1.445.598-1.445 1.452 0 .085 0 .256.085.34 3.313 12.98 14.95 22.543 28.798 22.543 16.395 0 29.732-13.406 29.732-29.886 0-16.48-13.337-29.886-29.732-29.886C70.23 18 58.6 27.564 55.276 40.372z" fill="#343434"/>
    <rect x="1" y="1" width="166" height="94" rx="8" stroke="url(#3qzd1kx5wa)" stroke-opacity=".27"/>
    <defs>
        <linearGradient id="3qzd1kx5wa" x1="84" y1="1" x2="84" y2="95" gradientUnits="userSpaceOnUse">
            <stop stop-color="#B9B9B9" stop-opacity=".44"/>
            <stop offset="1" stop-color="#5E5E5E" stop-opacity=".58"/>
        </linearGradient>
    </defs>
</svg>
