<svg width="168" height="96" viewBox="0 0 168 96" fill="none" xmlns="http://www.w3.org/2000/svg">
    <rect x="1" y="1" width="166" height="94" rx="8" fill="#fff"/>
    <path d="m114.672 39.224-.1-.672-.16-.688-.172-.273c-.71-.558-1.475-.98-2.252-1.35l-1.952-.81c-1.837-5.103-4.995-9.628-9.147-12.78-4.292-3.26-9.34-4.984-14.596-4.984s-10.305 1.725-14.597 4.984c-4.152 3.153-7.3 7.678-9.147 12.783-.658.242-1.3.507-1.95.81-.778.372-1.543.794-2.253 1.35l-.173.273a9.592 9.592 0 0 0-.16.688c-.045.22-.078.446-.1.672-.063.446-.106.896-.13 1.346-.046.902-.02 1.805.08 2.703.096.9.263 1.79.5 2.663.124.44.27.873.435 1.298.084.217.176.43.275.641.05.106.104.21.16.318.123.216.146.258.198.335l.233.215c.152.078.278.137.415.203l.4.18.22.09c-1.822 1.687-3.802 3.878-5.516 6.585L53 59.22l3.04-2.67c.052-.045 2.6-2.253 6.85-4.754l.06.49c-.278.145-1.614.847-2.01 1.18-.658.547-.7 1.396-.514 2.98.1.812.395 2.388.805 3.834.707 2.487 1.225 2.927 1.68 3.03.205.05.47.072.768.072.814 0 1.857-.16 2.537-.364a24.952 24.952 0 0 0 3.306 6.694c-.067.018-.132.04-.2.058l-4.7-2.167-2.036-.917 1.204 1.882c.088.136 2.166 3.38 3.862 5.566 1.587 2.04 3.76 4.126 7.86 4.126.515-.002 1.03-.033 1.542-.091l2.84-.34c4.304 1.583 9.05 1.68 13.554-.028 1.18-.45 2.314-1 3.387-1.674l4.574-1.134c.15-.04.34-.086.535-.132 1.307-.3 3.492-.808 4.657-3.14 1.174-2.354 3.09-5.96 3.11-5.997l.895-1.682-1.744.76c-.093.042-2.303 1.006-3.452 1.608a32.86 32.86 0 0 0 1.432-3.945c.643.155 1.596.135 2.297.135.313-.003.625-.043.929-.119.456-.116.808-.42 1.47-2.985.385-1.492.662-3.116.737-3.95.147-1.625.1-2.496-.563-3.045-.33-.273-1.3-.795-1.79-1.052.276-.118.41-.083.42-.08l.447-1.698c.157-.067.324-.135.513-.208l.8-.33.4-.18.416-.203.233-.215c.05-.077.078-.12.108-.178a7.62 7.62 0 0 0 .525-1.115c.165-.425.3-.86.434-1.298.237-.873.404-1.764.5-2.663.099-.897.125-1.801.078-2.703-.022-.45-.065-.9-.13-1.346l.006-.008z" fill="#0E0F0D"/>
    <path d="m89.101 74.185-.984.116-.637.032-.076.002.593-1.343 1.104 1.193z" fill="#E1C5A2"/>
    <path d="M88.701 48.82c-.515.418-1.057.808-1.622 1.15l-1.884 1.138a15.806 15.806 0 0 0-2.266.455.437.437 0 0 0-.292.289l-1.92 6.33-10.258 2.284-3.232-2.265-.94-7.622 7.237-1.058-.913 1.192-1.755 2.52 2.555-1.705c.04-.027 1.665-1.098 4.326-2.402l8.714-.327 2.25.022v-.001zm-15.967 8.587c.73-.394 1.552-.336 2.842-.334l.43-.003.39-.006c1.33-.013 2.432.112 2.412-1.974-.02-2.086-.946-3.774-2.274-3.76-1.328.014-2.615 1.722-2.535 3.807.02.543.102.936.23 1.217-1.157.29-1.477 1.008-1.494 1.053zm33.747-6.854-.924 6.48-3.258 2.284-10.245-1.166-1.912-6.3a.43.43 0 0 0-.293-.29c-.063-.02-1.33-.381-2.676-.497l.246-.016c.212-.016 3.745-.45 7.965-1.904 4.672.36 8.488.933 11.096 1.41l.001-.001zm-6.546 6c-.013-.05-.294-.89-1.528-.742.14-.3.205-.73.16-1.304-.163-2.082-1.374-3.737-2.7-3.69-1.326.047-2.177 1.772-2.103 3.862.073 2.084 1.186 2.07 2.513 2.023 1.783-.034 2.762-.582 3.658-.15z" fill="#A89983"/>
    <path d="M96.43 52.803a.68.68 0 0 1-.667.691.649.649 0 0 1-.483-.2.68.68 0 0 1 .941-.978c.13.126.204.297.207.477l.001.01zm-19.018.49a.68.68 0 1 1-1.17-.45.63.63 0 0 1 .474-.2.68.68 0 0 1 .696.66" fill="#fff"/>
    <path d="M110.954 53.405c-.16-.132-.695-.438-1.217-.72l-.86 6.024a.438.438 0 0 1-.18.29l-1.23.86-.074.38c1.207.298 2.38-.573 3.038-1.201.304-1.187.57-2.596.66-3.604.14-1.563.016-1.9-.14-2.028l.003-.001zM91.98 76.29a5.876 5.876 0 0 1-2.164-1.376l-.157-.16c-.498.101-1.001.174-1.507.217l-.647.028-.333.003-.128-.003c-.762 1.133-2.043 1.755-3.046 2.087 2.98.512 6.262-.272 7.983-.796h-.001zM65.735 61.538l-.08-.272-1.596-1.118a.432.432 0 0 1-.18-.3l-.78-6.327-1.42.836c-.153.127-.27.452-.104 1.96.126 1.133.524 2.874.93 4.18.808.62 2 1.27 3.228 1.043l.002-.002zm23.858-.288a.43.43 0 0 1-.363-.304l-1.97-6.497a6.922 6.922 0 0 0-.87-.067c-.247 0-.54.024-.87.067l-1.914 6.3a.43.43 0 0 1-.318.294l-.915.204c-.077.324-.34.8-1.2 1.06-1.37.418-10.04 3.006-11.03 2.865-.577-.08-1.676-.688-2.488-1.178a20.968 20.968 0 0 1-.546-1.41v-.002l-.002.002c.115.336 1.247 3.597 3.546 6.786l5.274-1.62c1.386-2.14 3.362-4.264 4.764-4.336.247-.013.494-.02.742-.02.652.002 1.304.043 1.953.122-.517-.47-.623-1.02-.698-1.264 0 0 1.79 1.403 4.07 1.108 2.28-.295 3.698-1.608 3.698-1.608l.045-.405-.915-.104" fill="#E1C5A2"/>
    <path d="M91.446 62.07c-.473-.122-.77-.318-.96-.52l-.023.208s-.008.96-1 1.702c1.91-.58 2.7-.776 3.243-.776.596 0 .9.25 1.15.468l.156.13 3.753 2.977 3.692.396 1.922.116.556-.02c.63-1.208 1.2-2.544 1.727-4.018-.707.496-2.317 1.582-3.072 1.722-.98.184-9.76-2.024-11.144-2.384" fill="#E1C5A2"/>
    <path d="m113.536 39.35-.065-.62-.066-.44a12.726 12.726 0 0 0-1.84-1.26c-.7-.417-1.454-.79-2.214-1.134l-2.305-.992-1.175-.457-1.185-.44 2.478.54 1.59.457c-3.745-9.796-12.696-16.174-22.47-16.174s-18.725 6.38-22.468 16.174c.526-.166 1.056-.32 1.587-.457.82-.21 1.645-.4 2.48-.54l-1.19.44c-.393.146-.784.299-1.173.457a44.85 44.85 0 0 0-2.307.992c-.757.345-1.5.717-2.212 1.134a12.49 12.49 0 0 0-1.84 1.26 13.738 13.738 0 0 0-.131 1.061 18.367 18.367 0 0 0 .594 6.227c.11.398.237.79.384 1.177a10.403 10.403 0 0 0 .364.83l.054.101.186.093.372.178.733.338c.013-.012.027-.024.037-.036l-.69-2.634c.147-.04 1.458-.38 3.72-.81a11.567 11.567 0 0 1-.547-.116 11.554 11.554 0 0 1-1.516-.484 6.961 6.961 0 0 1-.713-.346c-.23-.132-.454-.28-.63-.48 2.483.812 7.616.445 12.18-.028 4.172-.43 8.356-.71 12.56-.718 4.203.01 8.39.288 12.558.718 4.565.473 9.697.84 12.18.028-.173.2-.4.347-.627.48a7.19 7.19 0 0 1-.716.346c-.493.196-.999.358-1.514.484l-.23.05c2.48.46 3.923.835 4.076.875l-.66 2.51.398-.177.373-.178.188-.093.05-.102a8.84 8.84 0 0 0 .366-.829c.146-.386.274-.779.384-1.177.226-.8.378-1.63.492-2.462.11-.832.163-1.67.157-2.509-.001-.42-.02-.838-.056-1.256" fill="#E0D896"/>
    <path d="M96.565 34.478c.038 1.12.01 3.154-.51 5.056a.432.432 0 0 0 0 .22l-1.993-.184c.745-1.564.908-3.23.944-3.816a17.499 17.499 0 0 0 1.56-1.276zM77.56 35.754c.035.587.197 2.248.942 3.812l-1.992.184a.419.419 0 0 0 0-.215c-.52-1.9-.548-3.933-.512-5.056.42.38.988.87 1.562 1.275zm27.164 5.552a.361.361 0 0 1-.014.056l.217.066 1.816.684c-.98-.638-1.602-2.477-1.95-3.883.095 1.84-.062 3.008-.07 3.077h.001zm-29.544-7.18-6.34 1.805c-.38 2.47-.264 4.355-.203 5.01l.032-.02s.207-2.69.628-3.722c.217-.53 1.544-.868 2.556-1.1 1.012-.232 2.63-.724 2.945.7.194.88.46 1.613.716 2.153-.407-1.958-.38-3.873-.333-4.817v-.009zm22.201.01c.052.98.076 3-.384 5.045.288-.553.608-1.37.83-2.382.313-1.425 1.93-.942 2.945-.7s2.34.58 2.557 1.1c.357.874.56 2.933.613 3.546.06-.788.127-2.558-.218-4.814l-6.343-1.805v.01zm-19.872.54.7.512a.419.419 0 0 1 .181.338c.001.02.05 2.112.973 3.893a.6.6 0 0 1 .032.083l6.897-.22 6.896.226c.01-.03.018-.06.034-.09.922-1.78.972-3.872.972-3.893a.42.42 0 0 1 .182-.338l.664-.494.03-.08c.48-4.678-.4-8.99-.96-11.12-.03 1.456-.374 13.936-3.468 13.936h-8.54c-3.285 0-3.55-14.07-3.55-14.07l-.17.5c-.56 2.244-1.33 6.368-.864 10.817h-.009zm-9.647 6.686-.012-.055c-.01-.07-.17-1.238-.073-3.08-.347 1.407-.97 3.25-1.952 3.887.587-.273 1.205-.484 1.82-.686l.217-.066z" fill="#D7C184"/>
    <path d="m107.397 60.24-.182.826c.704.164 1.856.292 2.406.184.236-.256.54-1.145.813-2.213-.658.63-1.83 1.5-3.038 1.202l.001.001zM82.16 77.494c1.682.46 3.4.66 5.093.55a20.338 20.338 0 0 0 6.243-1.433 5.827 5.827 0 0 1-1.516-.318c-1.72.525-5 1.31-7.982.797-.8.26-1.408.34-1.468.348l-.37.058v-.002zM65.846 61.916l-.11-.377c-1.23.228-2.42-.424-3.228-1.043.262.837.525 1.496.723 1.696.61.107 1.956-.08 2.616-.275h-.001zM67.665 64c.812.5 1.91 1.097 2.488 1.178.99.14 9.66-2.447 11.03-2.865.85-.26 1.113-.735 1.2-1.06l-12.5 2.788a.483.483 0 0 1-.094.01h-.001a.432.432 0 0 1-.246-.078l-.487-.34-1.46-1.024-.6-.412.033.1.102.29v.002c.164.477.346.948.546 1.411h-.011zm38.387-2.405.23-.897-.434.305-2.434 1.707a.442.442 0 0 1-.295.076l-12.62-1.434-.02.197c.189.204.487.4.96.52 1.385.36 10.163 2.567 11.144 2.383.755-.14 2.365-1.226 3.07-1.722l.018-.05.36-1.085" fill="#9F8F78"/>
    <path d="m92.71 44.606-.326.416a27.272 27.272 0 0 1-2.409 2.67l-3.526-.056-5.73.14c2.57-1.067 5.657-2.11 9-2.735l3-.435h-.01zm-15.027 1.151a22.78 22.78 0 0 0-2.958 2.467l-6.666.87c2.845-1.309 6.093-2.514 9.624-3.336zm31.425 5.317-1.047 7.325-5.012 3.514-13.07-1.487-1.967-6.486a.43.43 0 0 0-.343-.301 8.15 8.15 0 0 0-1.27-.117c-.358 0-.786.038-1.273.117a.439.439 0 0 0-.342.3l-1.92 6.328-12.997 2.894-5.15-3.61-1.016-8.22.673-.373 1.075-.218.957 7.758a.42.42 0 0 0 .181.297l3.544 2.486a.43.43 0 0 0 .34.066l10.686-2.38a.431.431 0 0 0 .316-.295L83.4 52.33c.516-.131 1.84-.441 3-.441s2.482.3 3 .441l1.924 6.343a.43.43 0 0 0 .362.302l10.688 1.216a.427.427 0 0 0 .293-.076l3.546-2.48a.444.444 0 0 0 .178-.292l.946-6.63 1.772.361zm1.32-4.594-.92 3.494c-1.882-.416-6.014-1.23-11.638-1.78 1.837-.785 3.708-1.768 5.418-2.998 3.347.473 5.805.98 7.14 1.284zm-47.932 0 .256.967a32.256 32.256 0 0 1 1.924-1.422c-.9.174-1.636.33-2.18.455z" fill="#6E6A67"/>
    <path d="m98.576 44.53-4.226-.206-.486.69c-.755 1.023-2.244 2.887-4.152 4.486 1.436-.455 7.13-2.368 10.016-4.9l-1.152-.07zm-10.322-.372h.006l-2.144-.02-3.15.033-1.937.92c-.01.004-.02.01-.03.016-.292.142-2.835 1.426-5.23 3.72l.66-.34c1.3-.88 4.803-2.967 10.235-4.342l1.59.016v-.003zm-11.906.237-2.69.138-3.11.207-1.545.138-.44.05c-1.353.81-6.53 4.063-10.088 8.32l.187-.22c6.586-5.624 13.806-7.813 17.687-8.633h-.001zm29.796 23.13-.12.06c-.66.348-1.526.518-2.644.518-.666 0-1.32-.056-2.042-.12-1.445-.132-3.89-.42-3.916-.425l-.187-.02-.148-.12c-.023-.015-2.164-1.725-3.896-3.088l-.192-.158c-.183-.156-.183-.156-.292-.156-.556 0-2.17.502-5.707 1.598l-.217.07-.215-.082c-.024-.006-2.344-.867-5.125-.867-.228 0-.455.006-.676.016-.278.014-1.84.758-3.84 3.922l-.128.204-.23.074a249.64 249.64 0 0 1-7.123 2.167l-.235.067-.225-.104c-.023-.008-1.45-.672-2.807-1.295l.3.14 4.193 3.695c.05.056.104.11.16.16a6.94 6.94 0 0 1-.193-.23l-.002-.002c.59.56 1.252 1.046 1.973 1.388.36.17.737.3 1.12.364.19.032.383.048.577.048.198 0 .4-.006.604-.016a53.599 53.599 0 0 0 2.419-.18l2.42-.25c.805-.088 1.6-.189 2.407-.313.4-.058.797-.124 1.185-.2.19-.045.39-.095.54-.163.138-.066.305-.2.45-.325.302-.266.594-.544.877-.832.288-.288.57-.58.85-.88.473-.495.877-1.02 1.335-1.53l.18-.196.006.007c.096.069.19.139.284.211l1.667 1.24c.707.497 1.423.995 2.163 1.4.177.104.364.19.558.26.024.01.044.013.062.016a.257.257 0 0 0 .068.016c.036.005.084.008.13.01.102 0 .204-.002.306-.008.423-.034.845-.086 1.265-.156a60.645 60.645 0 0 0 2.54-.454l2.53-.522c.842-.179 1.681-.374 2.517-.586.414-.112.83-.215 1.2-.392a4.608 4.608 0 0 0 1.05-.694c.65-.555 1.2-1.244 1.654-1.994l-.001.002a8.97 8.97 0 0 0 .57-1.293l.001-.002zm-15.79-39.84h1.49v-3.029h-10.89v3.028h1.49v-1.538h3.08v9.352h-1.267v1.736h4.287v-1.736h-1.268v-9.352h3.08v1.538" fill="#93232C"/>
    <path d="m101.622 44.735-1.894-.134c-2.885 2.53-8.58 4.443-10.016 4.9l-.083.07c1.848-.333 4.61-.993 7.475-2.264a24.989 24.989 0 0 0 4.208-2.35c.105-.073.208-.15.3-.223h.01zm-14.967-.594c-5.432 1.375-8.925 3.46-10.235 4.342a54.908 54.908 0 0 1 3.693-1.712l.454-.187.142-.058.38-.152.213-.083.348-.135.263-.1.324-.12.306-.112.302-.11.35-.122.278-.096.414-.138.228-.075.657-.208c.482-.148.974-.29 1.475-.425.662-.181 1.327-.346 1.997-.494l-1.59-.016zm-10.318.249c-3.88.82-11.1 3.008-17.687 8.633l-.187.22c3.348-2.33 9.102-5.792 16.216-7.9l.693-.2a46.462 46.462 0 0 1 3.644-.864l-2.68.1v.01zm31.088 22.51-.204.095-.1.05-.088.042-.135.064c-.018.01-.038.018-.057.028l-.15.072-.033.016-.16.08-.017.008-.328.165c-.156.446-.347.879-.571 1.295l.002-.003c-.457.75-1.005 1.438-1.654 1.992a4.675 4.675 0 0 1-1.05.694c-.37.178-.785.28-1.2.392-.833.2-1.673.407-2.517.586-.84.187-1.684.36-2.53.522-.844.17-1.693.322-2.54.454-.424.066-.847.127-1.265.156a4.956 4.956 0 0 1-.306.008 1.64 1.64 0 0 1-.131-.011.219.219 0 0 1-.067-.016.283.283 0 0 1-.062-.016 3.324 3.324 0 0 1-.558-.26c-.74-.414-1.456-.912-2.163-1.4-.547-.383-1.117-.83-1.667-1.24l-.048.069.003.004c.034.03.07.06.103.1v-.001l-.073-.054.46.55.053.063c.763.891 1.56 1.753 2.39 2.583.89.884 1.965 1.33 3.197 1.33.42 0 .863-.055 1.3-.162l1.324-.32 3.884-.95.194-.05.386-.104c.196-.054.394-.103.593-.147 1.218-.283 2.884-.67 3.767-2.44l.802-1.58 1.425-2.74-.208.096-.001-.02zm-19.95 3.84-.08-.075c-.457.5-.862 1.036-1.334 1.532-.278.297-.56.6-.85.878-.29.278-.577.574-.877.832a2.339 2.339 0 0 1-.451.325 3.16 3.16 0 0 1-.54.163c-.392.085-.788.155-1.185.21-.8.124-1.602.227-2.407.313-.806.098-1.613.18-2.42.25-.807.078-1.617.14-2.42.182-.201.01-.403.015-.604.016-.193 0-.386-.016-.577-.048a4.33 4.33 0 0 1-1.12-.364c-.72-.34-1.38-.827-1.973-1.388l.002.002c.08.098.168.19.252.285l-.06-.055a2.744 2.744 0 0 1-.16-.16c-.285-.31-2.853-2.536-4.193-3.695l-.3-.14.768 1.123c.395.57.8 1.136 1.21 1.695l.54.714c1.457 1.877 3.292 3.612 6.812 3.612.465-.002.93-.03 1.39-.082l.63-.072c3.06-.352 3.9-.503 4.368-.583l.335-.056.135-.02a7.392 7.392 0 0 0 2.064-.627c.698-.34 1.383-.848 1.72-1.602l1.026-2.367.297-.8" fill="#731B2A"/>
    <path d="M95.766 53.495a.68.68 0 0 0-.025-1.358.678.678 0 0 0-.353 1.249.68.68 0 0 0 .378.108zm4.17 3.058c-.896-.433-1.875.114-3.658.15-1.328.047-2.44.061-2.513-2.024-.073-2.085.776-3.816 2.103-3.861 1.327-.046 2.538 1.608 2.7 3.7.045.575-.018.992-.16 1.303 1.233-.146 1.514.7 1.528.742v-.01zm-23.18-2.554a.68.68 0 1 0-.033-1.361.68.68 0 0 0 .033 1.36zm2.05 1.093c.02 2.086-1.084 1.96-2.412 1.974l-.4.005-.428.004c-1.3-.004-2.113-.06-2.842.333.017-.044.338-.76 1.494-1.053-.128-.281-.208-.673-.23-1.216-.08-2.086 1.206-3.796 2.533-3.809 1.327-.012 2.254 1.675 2.274 3.76l.011.002zm25.14-14.346-.036.383-1.585-.398a52.467 52.467 0 0 0-5.312-.875l-.187-.02a.642.642 0 0 0 .031-.08L97 39.17c.46-2.035.436-4.064.384-5.046l6.343 1.805c.346 2.256.28 4.026.22 4.814l-.001.002zm-7.9-1.2a.411.411 0 0 0 0 .218l-1.993-.184c.745-1.563.908-3.23.944-3.816a17.495 17.495 0 0 0 1.56-1.276c.038 1.12.01 3.154-.5 5.056l-.01.002zm-19.544.215a.419.419 0 0 0 0-.216c-.52-1.9-.548-3.933-.512-5.056l1.562 1.277c.035.587.197 2.248.942 3.812l-1.992.183zm-.958.104-2.667.368-2.645.508-1.586.397-.02-.2c-.06-.656-.177-2.54.203-5l6.34-1.806c-.048.945-.074 2.86.334 4.817l.195.815c.008.026.02.052.03.076l-.188.022.004.003zm31.8 2.563-.158-.078-.265-.13a1.787 1.787 0 0 1-.177-.1c-.587-.271-1.202-.481-1.816-.683l-.217-.066a.367.367 0 0 0 .014-.056c.01-.07.167-1.237.07-3.078a24.095 24.095 0 0 0-.292-2.693.417.417 0 0 0-.296-.332l-.904-.257c-.194-7.002-3.075-10.292-3.165-10.394 2.573 4.145 2.55 9.062 2.506 10.206l-5.605-1.595a.641.641 0 0 0-.085-.012l-.02-.002a.391.391 0 0 0-.18.037c-.01.005-.017.01-.025.013l-.056.037c-.02.013-.02.017-.024.02l-.016.013c-.004.003-.156.153-.4.375.022-.77.008-1.541-.04-2.31l-.018-.284c-.176-2.463-.758-5.924-2.497-8.954.153.46.29.924.41 1.393.56 2.13 1.44 6.44.96 11.12l-.007.064a.42.42 0 0 0-.87.849c0 .02-.05 2.113-.97 3.894a.355.355 0 0 0-.034.1 101.76 101.76 0 0 0-6.896-.227c-2.3-.003-4.6.07-6.897.221-.01-.027-.018-.056-.032-.084-.924-1.78-.97-3.872-.973-3.893a.42.42 0 0 0-.18-.337 13.584 13.584 0 0 1-.7-.512c-.467-4.45.302-8.574.862-10.818.266-1.066.485-1.7.503-1.759-2.523 4.395-2.6 9.697-2.554 11.545l-.4-.375c-.013-.005-.012-.008-.017-.013l-.01-.01a.634.634 0 0 0-.07-.042l-.027-.015a.18.18 0 0 0-.07-.024.33.33 0 0 0-.109-.014l-.024.002a.538.538 0 0 0-.069.01l-5.617 1.598c-.045-1.146-.07-6.063 2.504-10.207-.1.102-2.97 3.392-3.165 10.396l-.9.255a.417.417 0 0 0-.3.334c-.147.89-.244 1.788-.292 2.69-.095 1.841.063 3 .073 3.08.004.017.01.035.012.054l-.217.066c-.615.203-1.232.413-1.82.687a1.806 1.806 0 0 1-.166.093l-.01.005-.265.13-.138.068c-.03.017-.06.032-.088.05.416-.158.843-.288 1.276-.389.43-.107.864-.202 1.3-.285a35.512 35.512 0 0 1 2.627-.4c.879-.115 1.76-.21 2.642-.285l2.65-.2c3.54-.2 7.087-.276 10.637-.276 3.55-.002 7.1.058 10.637.276.885.05 1.767.124 2.65.2a58.35 58.35 0 0 1 2.64.287c.88.107 1.757.244 2.628.41.436.082.869.177 1.298.285.433.107.86.226 1.278.4l-.07-.04.036-.034zm-20.068-16.27v9.343h1.268v1.736h-4.287V35.5h1.268v-9.352h-3.08v1.537h-1.5V24.66h10.888v3.027h-1.5v-1.538h-3.08l.023.01zm5.7 2.657v-5.27H79.838v5.27h3.728v-1.538h.837v7.1H83.14v3.975h6.525v-3.975h-1.27v-7.1h.84v1.537h3.73l.011.002z" fill="#0E0F0D"/>
    <rect x="1" y="1" width="166" height="94" rx="8" stroke="url(#n5bwlkqska)" stroke-opacity=".27"/>
    <defs>
        <linearGradient id="n5bwlkqska" x1="84" y1="1" x2="84" y2="95" gradientUnits="userSpaceOnUse">
            <stop stop-color="#B9B9B9" stop-opacity=".44"/>
            <stop offset="1" stop-color="#5E5E5E" stop-opacity=".58"/>
        </linearGradient>
    </defs>
</svg>
