<svg width="168" height="96" viewBox="0 0 168 96" fill="none" xmlns="http://www.w3.org/2000/svg">
    <rect x="1" y="1" width="166" height="94" rx="8" fill="#fff"/>
    <path d="M65.903 46.68c0 9.717-7.666 17.6-17.128 17.6s-17.127-7.882-17.127-17.6c0-9.718 7.666-17.6 17.128-17.6s17.128 7.884 17.128 17.6" fill="#D33833"/>
    <path d="M32.353 51.04S31.11 32.69 47.947 32.16l-1.174-1.97-9.13 3.082-2.61 3.011-2.28 4.386-1.3 5.109.387 3.415" fill="#EF3D3A"/>
    <path d="M37.049 34.674a17.308 17.308 0 0 0-4.862 12.077c0 4.72 1.865 8.98 4.862 12.076 3.01 3.095 7.14 4.997 11.727 4.997 4.587 0 8.716-1.902 11.727-4.997a17.31 17.31 0 0 0 4.862-12.077c0-4.72-1.865-8.98-4.862-12.077-3.01-3.082-7.14-4.997-11.727-4.997-4.572 0-8.716 1.902-11.727 4.997v.001zm-.76 24.89c-3.19-3.276-5.166-7.815-5.166-12.812 0-4.997 1.976-9.538 5.176-12.828 3.19-3.276 7.61-5.316 12.487-5.316s9.296 2.04 12.487 5.316c3.191 3.276 5.156 7.816 5.156 12.826 0 4.997-1.975 9.536-5.166 12.812-3.19 3.3-7.61 5.316-12.487 5.316s-9.297-2.026-12.477-5.315l-.01.001z" fill="#231F20"/>
    <path d="m55.986 46.778-2.61.39-3.522.403-2.28.056-2.224-.07-1.7-.527-1.506-1.638-1.174-3.345-.262-.722-1.56-.527-.912-1.513-.65-2.166.718-1.902 1.7-.597 1.367.652.65 1.444.787-.125.262-.333-.262-1.513-.07-1.902.387-2.623-.014-1.5 1.188-1.916 2.086-1.513 3.647-1.568 4.047.597 3.522 2.554 1.63 2.623 1.05 1.902.263 4.72-.787 4.067-1.437 3.61-1.353 1.93" fill="#F0D6B7"/>
    <path d="m53.776 58.12-9.324.39v1.569l.787 5.51-.387.458-6.52-2.235-.456-.79-.65-7.412-1.533-4.442-.33-1.055 5.22-3.61 1.63-.652 1.436 1.777 1.243 1.11 1.437.458.65.194.787 3.415.594.722 1.506-.528-1.05 2.04 5.663 2.693-.704.39" fill="#335061"/>
    <path d="m38.306 35.244 1.7-.597 1.367.652.65 1.444.787-.125.193-.79-.387-1.513.387-3.61-.33-1.97 1.174-1.374 2.54-2.027-.718-.986-3.59 1.777-1.506 1.18-.843 1.832-1.298 1.777-.387 2.096.262 2.235" fill="#6D6B6D"/>
    <path d="M40.987 29.08s.98-2.43 4.9-3.61c3.92-1.18.193-.848.193-.848l-4.24 1.638-1.64 1.64-.718 1.304 1.506-.125h-.001zm-1.96 5.704s-1.367-4.595 3.855-5.247l-.193-.79-3.59.847-1.05 3.415.262 2.235.718-.458" fill="#DCD9D8"/>
    <path d="m41.098 40.88.856-.833a.55.55 0 0 0 .456.5c.07.458.262 4.595 3.066 6.816.262.208-2.086-.333-2.086-.333l-2.086-3.276-.206-2.874zM53.1 39.631s.152-1.985.7-1.832c.548.153.54.694.54.694s-1.298.833-1.23 1.138h-.01zm5.425-7.274s-1.077.222-1.174 1.18c-.097.958 1.174.194 1.367.125l-.193-1.305zm-7.887.07s-1.437.194-1.437 1.1c0 .906 1.63.847 2.086.458l-.649-1.558zm-8.868 4.251s-2.472-1.513-2.735-.07c-.263 1.443-.843 2.485.387 3.998l-.843-.264-.787-2.027-.263-1.97 1.506-1.568 1.7.125.98.8.055.986v-.01zm1.174-4.127s1.105-5.775 6.713-6.885c4.613-.916 7.044.194 7.956 1.25 0 0-4.116-4.914-8.025-3.415-3.9 1.513-6.782 4.26-6.713 6.024l.07 3.026zm15.126-4.983s-1.892-.07-1.96 1.638c.006.183.048.362.124.528 0 0 1.506-1.707 2.417-.8l-.58-1.366zm-8.272 2.346s-.33-2.6-2.54-1.097c-1.437.986-1.3 2.36-1.05 2.624.262.264.193.8.387.43.194-.37.138-1.54.856-1.874.704-.333 1.892-.694 2.348-.083" fill="#F7E4CD"/>
    <path d="m43.665 47.625-6.133 2.748s2.542 10.16 1.243 13.312l-.912-.333-.07-3.873-1.7-7.33-.718-2.027 6.395-4.33 1.892 1.832.003.001zm.619 5.621.87 1.07v3.928h-1.036l-.124-3.08c0-.333.124-1.513.124-1.513l.166-.405zm.027 5.595-2.942.125.843.597 2.086.333" fill="#49728B"/>
    <path d="m54.356 58.188 2.417-.07.594 6.024-2.471.333-.54-6.288" fill="#335061"/>
    <path d="m55.006 58.188 3.646-.194 1.506-3.998c0-.194 1.298-5.51 1.298-5.51l-2.942-3.082-.594-.527-1.56 1.568v6.094l-1.354 5.65" fill="#335061"/>
    <path d="m56.636 57.73-2.28.458.331 1.832c.843.39 2.28-.652 2.28-.652l-.331-1.638zm.069-11.48 4.572 3.416.123-1.57-3.453-3.206-1.242 1.36" fill="#49728B"/>
    <path d="m46.578 71.098-1.354-5.51-.676-4.067-.11-3.012 6.12-.333h3.797l-.344 6.885.593 5.316-.07.986-4.96.39-2.996-.652" fill="#fff"/>
    <path d="M53.514 58.12s-.33 6.816.65 11.675c0 0-1.96 1.25-4.82 1.567l5.484-.194.65-.39-.787-10.744-.207-2.303" fill="#DCD9D8"/>
    <path d="m57.464 63.63 2.54-.722 4.82-.264.718-2.235-1.3-3.873-1.506-.194-2.086.652-1.99.986-1.064-.194-.83.333" fill="#fff"/>
    <path d="M57.424 62.31s1.7-.79 1.96-.723l-.718-3.61.843-.332.594 3.802 3.978.194s.787-1.512.594-3.081l.718 2.096.07 1.18-1.05 1.568-1.174.263-1.96-.07-.65-.846-2.28.333-.718.263" fill="#DCD9D8"/>
    <path d="m54.853 57.66-1.437-3.665-1.506-2.166s.332-.916.787-.916h1.506l1.437.527-.124 2.43-.663 3.79z" fill="#fff"/>
    <path d="M55.144 56.412s-1.823-3.54-1.823-4.067c0 0 .332-.79.787-.597.455.193 1.437.722 1.437.722v-1.25l-2.224-.458-1.506.194 2.54 6.052.525.07" fill="#DCD9D8"/>
    <path d="m47.158 47.764-1.81-.194-1.7-.527v.597l.83.916 2.61 1.18" fill="#fff"/>
    <path d="M44.244 47.958s2.017.847 2.68.652l.07.79-1.823-.39-1.105-.79.18-.264" fill="#DCD9D8"/>
    <path d="M57.465 51.137c-1.105-.028-2.113-.167-2.984-.416.055-.36-.055-.708.04-.972.25-.18.65-.18 1.022-.222-.318-.153-.773-.222-1.133-.125-.014-.25-.124-.403-.193-.597.622-.222 2.086-1.68 2.915-1.208.4.236.566 1.54.594 2.193.028.527-.055 1.055-.262 1.346" fill="#D33833"/>
    <path d="M57.465 51.137c-1.105-.028-2.113-.167-2.984-.416.055-.36-.055-.708.04-.972.25-.18.65-.18 1.022-.222-.318-.153-.773-.222-1.133-.125-.014-.25-.124-.403-.193-.597.622-.222 2.086-1.68 2.915-1.208.4.236.566 1.54.594 2.193.028.527-.055 1.055-.262 1.346v.001z" fill="#000" stroke="#D33833" stroke-width="1.702"/>
    <path d="M52.174 49.318c0 .083 0 .166-.014.25-.345.222-.898.222-1.285.416.553.028.995.166 1.38.347l-.028.64c-.635.43-1.216 1.083-1.96 1.5-.36.194-1.588.694-1.96.597-.207-.056-.235-.32-.318-.57-.18-.527-.594-1.388-.635-2.193-.04-1.013-.152-2.72.94-2.513.884.167 1.906.57 2.583.944.428.25.663.527 1.3.583" fill="#D33833"/>
    <path d="M52.174 49.318c0 .083 0 .166-.014.25-.345.222-.898.222-1.285.416.553.028.995.166 1.38.347l-.028.64c-.635.43-1.216 1.083-1.96 1.5-.36.194-1.588.694-1.96.597-.207-.056-.235-.32-.318-.57-.18-.527-.594-1.388-.635-2.193-.04-1.013-.152-2.72.94-2.513.884.167 1.906.57 2.583.944.428.25.663.527 1.3.583l-.003-.001z" fill="#000" stroke="#D33833" stroke-width="1.702"/>
    <path d="M52.796 50.526c-.097-.555-.207-.708-.166-1.194 1.478-.986 1.74 1.694.166 1.194z" fill="#D33833"/>
    <path d="M52.796 50.526c-.097-.555-.207-.708-.166-1.194 1.478-.986 1.74 1.694.166 1.194z" fill="#000" stroke="#D33833" stroke-width="1.702"/>
    <path d="M54.922 50.97s-.456-.652-.124-.847c.332-.195.65 0 .843-.333.193-.333 0-.527.07-.916s.387-.458.718-.527c.33-.069 1.243-.194 1.367.125l-.387-1.18-.787-.264-2.472 1.444-.124.722v1.444l.896.332zm-6.85 2.168-.25-3.068c-.137-1.527.36-1.263 1.686-1.263.207 0 1.243.236 1.312.39.36.736-.594.57.414 1.124.843.458 2.348-.278 2.003-1.32-.193-.236-.994-.07-1.285-.222l-1.533-.79c-.65-.333-2.14-.833-2.832-.36-1.754 1.194.11 4.192.732 5.44" fill="#EF3D3A"/>
    <path d="M49.8 29.913c-1.782-.416-2.666.75-3.206 1.957-.483-.11-.3-.777-.166-1.1.319-.874 1.603-2.054 2.653-1.888.441.056 1.05.472.717 1.04l.002-.009zm8.659 2.036h.082c.4.833.747 1.72 1.258 2.47-.346.805-2.57 1.5-2.542.083.483-.208 1.312-.042 1.74-.32-.25-.68-.594-1.263-.54-2.235l.002.002zm-7.766.026c.388.708.51 1.444 1.05 1.97.25.236.718.527.484 1.194-.054.153-.455.5-.69.57-.841.25-2.818.056-2.154-1.013.703.028 1.643.458 2.17-.056-.4-.638-1.12-1.916-.856-2.665h-.004zm7.449 7.135c-1.27.82-2.695 1.72-4.794 1.513-.441-.39-.621-1.263-.18-1.832.22.39.084 1.1.718 1.22 1.188.208 2.57-.736 3.425-1.055.526-.902-.04-1.222-.525-1.805-.98-1.18-2.28-2.65-2.238-4.414.4-.292.428.444.483.57.51 1.194 1.797 2.735 2.72 3.762.236.25.608.5.65.666.124.472-.318 1.055-.262 1.374l.002.001zm-16.827-.861c-.4-.236-.496-1.235-.966-1.263-.677-.042-.553 1.305-.553 2.096-.456-.416-.54-1.72-.207-2.387-.387-.194-.553.208-.774.347.3-2.013 2.942-.93 2.5 1.208v-.001zm17.625 1.708c-.594 1.138-1.438 2.388-3.177 2.43-.04-.36-.07-.93 0-1.152 1.34-.14 2.17-.82 3.177-1.277v-.001zm-8.343.737c1.105.583 3.15.652 4.67.61.082.333.082.75.082 1.152-1.946.083-4.24-.403-4.75-1.763l-.002.001zm-.205 1.082c.773 1.943 3.412 1.72 5.636 1.666-.097.25-.304.555-.58.652-.718.292-2.68.514-3.675-.014-.622-.333-1.036-1.097-1.38-1.54-.151-.208-.98-.75 0-.763" fill="#231F20"/>
    <path d="m58.045 52.47-2.83 4.51c.442-1.32.635-3.54.704-5.233.94-.444 1.74.097 2.127.722" fill="#81B0C4"/>
    <path d="M62.892 58.05c-1.008.208-1.713 1.194-2.707 1.124.553-.764 1.492-1.097 2.707-1.124zm.442 1.582c-.83.083-1.796.222-2.623.153.4-.61 1.92-.39 2.623-.153zm.3 1.374c-.925.014-2.072 0-2.956-.07.526-.57 2.363-.208 2.957.07z" fill="#231F20"/>
    <path d="M56.303 64.754c.138 1.165.594 2.346.54 3.622-.51.166-.8.32-1.492.32l-.152-3.79c.33.028.83-.236 1.105-.153" fill="#DCD9D8"/>
    <path d="M54.812 47.542c-.47.305-.856.68-1.312 1.013-.994.056-1.533-.07-2.25-.638.014-.042.083-.028.083-.083 1.064.472 2.417-.194 3.48-.292" fill="#F0D6B7"/>
    <path d="M49.26 54.8c.3-1.263 1.437-1.93 2.472-2.623 1.064 1.36 1.713 3.11 2.43 4.803-1.7-.514-3.426-1.332-4.904-2.18" fill="#81B0C4"/>
    <path d="M55.199 64.92c-.04 1.04.097 2.693.152 3.79.69 0 .98-.153 1.492-.32.055-1.277-.4-2.457-.54-3.623-.276-.097-.774.167-1.105.153zm-10.663-5.885c.456 4.178 1.105 7.676 2.307 11.382 2.666.82 5.87.888 8.232.153-.428-2.082-.25-4.622-.497-6.857-.193-1.68-.097-3.36-.36-5.067-2.86-.597-6.892-.14-9.683.39v-.001zm10.36-.36c-.028 1.79.083 3.567.22 5.358.599-.074 1.194-.18 1.782-.319-.207-1.72-.18-3.678-.608-5.205-.483.014-.912 0-1.395.166zm3.467-.292c-.33-.07-.704 0-1.008 0 .152 1.458.497 3.068.622 4.61.483.014.746-.222 1.146-.292.028-1.346-.11-3.207-.76-4.317v-.001zm5.263 4.83c1.022-.25 1.658-1.5 1.367-2.8-.193-.86-.525-2.5-.898-3.054-.262-.402-.994-.944-1.588-.57-.953.61-2.624.79-3.315 1.527.345 1.166.456 2.75.594 4.22 1.188.07 2.638-.333 3.633.097-.69.222-1.575.222-2.17.555.497.236 1.63.194 2.376.014v.011zm-9.477-6.233c-.718-1.693-1.367-3.442-2.43-4.803-1.036.694-2.17 1.36-2.472 2.623 1.492.847 3.218 1.666 4.904 2.18h-.002zm1.768-5.233c-.07 1.693-.262 3.914-.704 5.233 1.064-1.374 1.934-2.957 2.832-4.51-.387-.625-1.188-1.166-2.127-.722l-.001-.001zm-2.003-.708c-.4-.042-.746.472-1.27.25-.124.14-.235.278-.36.416 1.16 1.416 1.7 3.415 2.597 5.067.483-1.596.428-3.33.54-5.067-.663.028-1.036-.625-1.506-.666h-.001zm-1.285-1.708c-.04.486.07.64.166 1.194 1.575.5 1.312-2.18-.166-1.194zm-1.754-.583c-.677-.375-1.7-.777-2.583-.944-1.09-.208-.98 1.5-.94 2.513.04.805.456 1.652.635 2.193.083.25.1.514.318.57.373.083 1.616-.402 1.96-.597.746-.402 1.326-1.055 1.96-1.5.014-.208.014-.43.028-.638a3.31 3.31 0 0 0-1.38-.347c.373-.194.94-.194 1.285-.416 0-.083 0-.167.014-.25-.635-.07-.87-.347-1.3-.583l.003-.001zm-6.492-1.18c-.566.583 1.588 1.36 2.265 1.402 0-.36.207-.708.166-.972-.815-.14-1.878-.042-2.43-.43h-.001zm6.962.264c0 .056-.07.042-.083.083.732.57 1.27.694 2.25.638.442-.32.843-.708 1.312-1.013-1.077.097-2.43.764-3.48.292zm6.38 1.943c-.028-.64-.193-1.957-.594-2.193-.83-.486-2.293.986-2.914 1.208.07.194.18.347.193.597a1.75 1.75 0 0 1 1.133.125c-.373.042-.773.042-1.022.222-.083.264.028.61-.04.972.87.25 1.88.375 2.984.416.207-.278.3-.805.262-1.346l-.002-.001zm-14.296-1.65c-.18-.125-1.38-1.694-1.547-1.624-2.17.86-4.2 2.346-6.01 3.762 1.727 3.734 2.43 8.3 2.555 12.7 1.975.93 3.716 2.277 6.41 2.415-.318-2.207-.594-4.192-.773-6.274-.677-.29-1.644.014-2.28-.083 0-.763.967-.333 1.05-.847.055-.39-.54-.416-.345-1.027.497.18.76.583 1.285.736.483-1.055 0-2.93.07-3.817.014-.166.083-.916.456-.79.332.11-.014 2.013.014 2.846.028.777-.097 1.513.22 2a73.992 73.992 0 0 1 8.053-.666c-.622-.264-1.354-.514-2.155-.972-.442-.25-1.81-.763-1.934-1.18-.207-.666.525-1.013.65-1.582-1.312.722-1.56-.694-1.878-1.68-.276-.902-.442-1.582-.51-2.096-1.146-.583-2.362-1.124-3.33-1.818l-.001-.003zm13.15-1.444c1.8-.874 2.14 3.3 1.423 4.636.11.402.483.555.635.916-1.008 1.818-2.127 3.512-3.163 5.303.76-.486 1.865-.083 2.763-.444.332-.125.566-.888.815-1.5.7-1.666 1.41-3.776 1.727-5.358.07-.36.276-1.152.22-1.472-.083-.583-.856-1.013-1.257-1.36-.732-.666-1.188-1.235-1.96-1.86-.3.458-.953.763-1.202 1.138l-.001.001zm-17.28-16.116c-.856.958-.677 2.735-.58 4.012 1.56-.985 3.62.083 3.605 1.75.746-.014.276-.93.138-1.527-.442-1.93.746-4.012.055-5.774-1.34.11-2.43.652-3.218 1.54v-.001zm6.16-5.538c-1.947.555-4.448 1.985-5.25 3.748.622-.097 1.05-.402 1.658-.444.235-.014.54.097.8.028.525-.14.98-1.333 1.38-1.777.387-.43.856-.625 1.174-1.013.207-.097.51-.097.525-.403-.083-.097-.18-.166-.3-.14l.013.001zm10.152.527c-2.03-1.152-5.456-2.013-7.61-.93-1.74.874-4.088 2.318-4.9 4.137.746 1.763-.22 3.373-.3 5.164-.028.958.442 1.777.483 2.818-.262.43-1.036.472-1.575.444-.18-.916-.497-1.943-1.437-2.054-1.326-.153-2.307.958-2.362 2.1-.07 1.36 1.036 3.61 2.61 3.456.608-.056.76-.666 1.423-.666.36.722-.552.944-.65 1.457-.028.14.07.652.138.902.3 1.18.925 2.72 1.547 3.623.8 1.152 2.362 1.32 4.047 1.43.304-.652 1.41-.597 2.127-.43-.87-.347-1.67-1.18-2.334-1.916-.76-.847-1.533-1.75-1.575-2.86 1.45 2.013 2.638 3.776 5.263 4.664 1.99.666 4.3-.306 5.843-1.388.635-.444 1.008-1.166 1.464-1.805 1.685-2.443 2.472-5.913 2.307-9.286-.07-1.388-.07-2.776-.54-3.706-.483-.972-2.127-1.86-3.094-.972-.18-.958.8-1.54 1.947-1.194-.815-1.07-1.67-2.332-2.845-2.998l.023.01zm3.788 31.386c1.588-.79 4.544-2.124 5.525 0 .373.79.8 2.1.98 2.93.262 1.138-.3 3.554-1.464 3.928-1.036.333-2.238.32-3.48.07-.152-.125-.304-.333-.428-.555-.884-.028-1.727.042-2.417.417.07.666-.373.763-.8.902-.304 1.235.622 2.845.4 3.956-.152.805-1.133.93-1.85 1.07-.028.444.028.82.083 1.194-.166.61-.898.958-1.602 1.04-2.307.278-5.8.402-8.01-.403-.622-1.527-1.105-3.373-1.616-5.108-2.155.236-3.91-.93-5.553-1.707-.566-.264-1.354-.416-1.575-.874-.207-.444-.124-1.29-.18-2.082-.124-2.04-.25-4.012-.773-6.094-.235-.944-.663-1.763-.953-2.665-.276-.833-.746-1.874-.87-2.707-.18-1.235.98-1.305 1.713-1.846 1.146-.833 2.044-1.29 3.287-2.04.373-.222 1.478-.777 1.602-1.04.25-.513-.428-1.235-.608-1.638-.3-.638-.442-1.18-.483-1.805a3.473 3.473 0 0 1-2.307-1.485c-.787-1.166-1.34-3.318-.65-4.942.055-.125.318-.39.36-.583.083-.39-.152-.902-.166-1.32-.07-2.124.36-3.956 1.782-4.595.58-2.318 2.652-3.08 4.6-4.234.732-.43 1.533-.708 2.362-1.013 2.97-1.096 7.542-.888 10.014.986 1.05.79 2.72 2.47 3.315 3.692 1.588 3.207 1.464 8.578.36 12.493-.152.527-.36 1.29-.663 1.93-.207.444-.856 1.32-.787 1.707.083.403 1.492 1.47 1.796 1.763.54.527 1.575 1.222 1.657 1.888.097.708-.304 1.68-.51 2.36-.663 2.277-1.326 4.373-2.086 6.413l-.005-.003z" fill="#231F20"/>
    <path d="M48.83 41.17c.084-.11.553-.29 1.215.028 0 0-.787.125-.718 1.444l-.33-.07c.014.014-.33-1.18-.166-1.402" fill="#F7E4CD"/>
    <path d="M54.548 52.442c0 .194-.166.36-.36.36a.367.367 0 0 1-.36-.36c0-.193.166-.36.36-.36.207 0 .36.166.36.36zm.36 1.68c0 .194-.166.36-.36.36a.366.366 0 0 1-.36-.36c0-.194.166-.36.36-.36a.35.35 0 0 1 .36.36z" fill="#1D1919"/>
    <path d="m85.722 43.746-.497.072-.473.095c-.213.048-.33.143-.378.286a1.402 1.402 0 0 0-.095.476v5.8a3.46 3.46 0 0 1-.33 1.477 3.121 3.121 0 0 1-.876 1.119 4.084 4.084 0 0 1-1.277.667 5.133 5.133 0 0 1-1.49.238c-.922 0-1.655-.214-2.222-.667-.567-.453-.85-1.048-.85-1.834 0-.452.118-.834.378-1.143.26-.31.615-.452 1.064-.452.426 0 .757.12 1.017.38.26.26.378.57.378.93 0 .3-.118.62-.33.88-.212.26-.473.524-.757.738v.095c.047.095.142.2.284.262s.307.095.45.095c.59 0 1.064-.214 1.395-.643.331-.43.497-1.07.497-1.93v-5.954a1.301 1.301 0 0 0-.07-.452c-.048-.12-.19-.214-.403-.3-.142-.07-.33-.12-.544-.167l-.52-.095v-.572h5.58v.595h.07v.004zm8.748 8.192a4.41 4.41 0 0 1-.615.8c-.237.253-.52.452-.828.643a4.464 4.464 0 0 1-.993.429c-.33.095-.733.143-1.16.143-.733 0-1.348-.095-1.89-.3-.52-.214-.97-.476-1.3-.833-.355-.357-.59-.762-.78-1.238a4.718 4.718 0 0 1-.26-1.548 3.787 3.787 0 0 1 .284-1.452c.19-.453.45-.88.78-1.238s.757-.643 1.277-.857a4.43 4.43 0 0 1 1.702-.334c.686 0 1.253.096 1.702.262a2.96 2.96 0 0 1 1.088.69c.284.285.473.62.615 1 .124.393.188.802.19 1.214v.476h-4.99c0 1.024.19 1.786.59 2.3.377.524 1.016.786 1.843.786.473 0 .875-.12 1.253-.38.378-.26.7-.6.946-.977l.544.405.002.009zm-2.813-2.834c0-.286-.024-.595-.047-.905-.023-.31-.07-.57-.166-.762-.095-.238-.19-.405-.355-.524-.142-.12-.33-.167-.544-.167-.378 0-.686.19-.898.572-.237.38-.355 1-.378 1.834l2.388-.048zm13.241 4.596h-4.445v-.548c.095 0 .213-.024.33-.048.104-.016.207-.04.307-.071a.53.53 0 0 0 .213-.238c.048-.095.07-.262.07-.452v-3.477c0-.5-.095-.88-.284-1.143-.189-.263-.45-.38-.828-.38-.19 0-.378.024-.544.095-.166.048-.33.143-.497.262-.142.095-.26.19-.355.3-.085.083-.157.18-.213.286v3.977c0 .167.024.3.07.43a.47.47 0 0 0 .236.262c.07.048.165.095.284.12l.355.072v.548h-4.489v-.548c.118 0 .236-.024.378-.048l.33-.07a.54.54 0 0 0 .331-.262c.061-.143.093-.297.094-.452V47.98c0-.143-.047-.3-.118-.452a1.12 1.12 0 0 0-.307-.357c-.095-.048-.19-.12-.33-.143a1.368 1.368 0 0 0-.449-.072v-.548l3.523-.19.118.12v1.072h.024l.496-.453.544-.43c.19-.12.426-.214.71-.3s.615-.12.946-.12c.804 0 1.395.238 1.797.69.402.452.59 1.072.59 1.834v3.643c0 .19.024.334.07.43.047.12.166.19.307.262.07.024.166.072.284.095l.402.072v.57h.047l.003-.004zm10.167 0h-3.467l-1.182-1.93-.993-1.453-.426.38v1.62c-.005.146.019.292.071.429.047.12.142.19.307.262.095.048.19.072.307.095.117.023.236.048.355.048v.548h-4.587v-.548c.118 0 .237-.024.378-.048l.33-.07a.544.544 0 0 0 .331-.262c.047-.12.095-.262.095-.452v-8.287c0-.167-.047-.334-.118-.5a.939.939 0 0 0-.307-.405c-.095-.048-.236-.12-.426-.143a2.086 2.086 0 0 0-.52-.072v-.548l3.665-.19.118.12v7.668l1.23-1.143 1.088-1.072c.166-.167.26-.286.26-.38.024-.095.024-.143.024-.167 0-.095-.07-.167-.236-.214-.166-.047-.378-.12-.71-.167v-.524h3.736v.524l-1.135.38c-.26.12-.544.286-.85.476l-.59.43-.662.548 1.324 1.953 1.277 1.905c.142.238.33.38.568.476.236.072.45.12.686.143v.57h.07-.011zm4.73 0h-4.658v-.548c.128-.005.254-.02.378-.048l.307-.07a.544.544 0 0 0 .331-.262c.07-.12.094-.262.094-.452v-4.334a.91.91 0 0 0-.118-.452.712.712 0 0 0-.284-.31c-.095-.048-.213-.12-.402-.167-.189-.047-.355-.095-.497-.095v-.548l3.617-.19.118.12v5.906c0 .167.047.3.118.452.07.12.19.215.307.262.105.054.216.094.331.119l.378.072v.548h-.024l.004-.003zm-1.064-10.12c0 .38-.142.7-.426.952-.284.252-.64.405-1.017.405-.402 0-.733-.143-1.04-.405a1.309 1.309 0 0 1 0-1.929 1.502 1.502 0 0 1 1.04-.405c.402 0 .733.143 1.017.405.284.262.426.595.426.976zm11.49 10.12h-4.445v-.548c.095 0 .213-.024.33-.048.142-.024.236-.048.307-.07a.525.525 0 0 0 .213-.238c.048-.095.07-.262.07-.452v-3.477c0-.5-.095-.88-.284-1.143-.189-.263-.45-.38-.828-.38a1.38 1.38 0 0 0-.544.095 2.46 2.46 0 0 0-.497.262c-.142.095-.26.19-.355.3-.085.083-.157.18-.213.286v3.977c0 .167.024.3.07.43.046.13.142.215.237.262.07.048.165.095.284.12l.355.072v.548h-4.492v-.548c.118 0 .236-.024.378-.048l.33-.07a.544.544 0 0 0 .331-.262c.062-.143.094-.297.095-.452v-4.334c0-.143-.047-.3-.118-.452a1.115 1.115 0 0 0-.307-.357c-.095-.048-.19-.12-.33-.143a1.364 1.364 0 0 0-.449-.072v-.548l3.523-.19.118.12v1.072h.024l.496-.453.544-.43c.19-.12.426-.214.71-.3s.615-.12.946-.12c.804 0 1.395.238 1.797.69.402.452.59 1.072.59 1.834v3.643c0 .19.024.334.07.43.047.12.166.19.307.262.07.024.166.072.284.095l.402.072v.57h.047l.004-.005zm4.1.262a4.58 4.58 0 0 1-1.395-.214c-.45-.144-.804-.286-1.064-.452l-.213.5h-.568l-.095-2.762h.544c.07.214.19.476.378.762.166.286.378.524.59.762.244.222.514.414.804.572.307.143.615.238.946.238.45 0 .78-.095.993-.262.213-.167.33-.452.33-.8a.883.883 0 0 0-.142-.5 1.423 1.423 0 0 0-.402-.334c-.19-.095-.402-.2-.64-.262l-.85-.262a5.898 5.898 0 0 1-.85-.3 2.576 2.576 0 0 1-.733-.476 2.17 2.17 0 0 1-.52-.7c-.142-.262-.19-.595-.19-.976a1.99 1.99 0 0 1 .875-1.691c.59-.43 1.348-.643 2.293-.643a4.98 4.98 0 0 1 1.23.143c.378.095.686.19.946.3l.165-.43h.567l.118 2.524h-.52c-.166-.524-.473-.953-.875-1.334-.426-.38-.875-.57-1.347-.57-.378 0-.686.07-.9.238a.8.8 0 0 0-.33.667c0 .38.166.643.473.8.307.157.757.334 1.324.476.875.238 1.513.548 1.94.93.402.405.615.905.615 1.5 0 .8-.307 1.453-.946 1.882-.71.428-1.537.666-2.553.666l.002.008z" fill="#231F20"/>
    <rect x="1" y="1" width="166" height="94" rx="8" stroke="url(#ailga6f0oa)" stroke-opacity=".27"/>
    <defs>
        <linearGradient id="ailga6f0oa" x1="84" y1="1" x2="84" y2="95" gradientUnits="userSpaceOnUse">
            <stop stop-color="#B9B9B9" stop-opacity=".44"/>
            <stop offset="1" stop-color="#5E5E5E" stop-opacity=".58"/>
        </linearGradient>
    </defs>
</svg>
