<svg width="168" height="96" viewBox="0 0 168 96" fill="none" xmlns="http://www.w3.org/2000/svg">
    <rect x="1" y="1" width="166" height="94" rx="8" fill="#fff"/>
    <path d="M96.897 16H70.9C60.462 16 52 24.462 52 34.9v25.998c0 10.438 8.462 18.9 18.9 18.9h25.997c10.439 0 18.901-8.462 18.901-18.9V34.9c0-10.438-8.462-18.9-18.9-18.9z" fill="#2671E5"/>
    <path d="M101.174 45.503a5.147 5.147 0 0 0-3.978-2.251A5.137 5.137 0 0 0 93 45.06a5.39 5.39 0 0 0-.87 1.255 6.55 6.55 0 0 0-.525 1.387h-3.159a1.276 1.276 0 0 1-.15-.377c-.43-1.687-1.483-2.894-3.08-3.56-3.077-1.28-6.415.419-7.275 3.658-.056.213-.014.453-.374.503-1.492.205-3.175-.648-3.881-2.01-.477-.917-.451-.997.573-1.125 4.251-.534 7.723-4.851 6.253-9.857-1.065-3.627-5.04-5.98-8.763-5.21-3.51.727-5.987 3.654-6.171 7.289-.169 3.343 2.144 6.539 5.502 7.532.506.15.62.374.618.86-.018 3.39-.033 6.78.004 10.17.034 3.134 2.334 5.686 5.415 6.017.58.062.777.267.923.806.574 2.126 2.483 3.637 4.705 3.806a5.29 5.29 0 0 0 5.193-2.987c1.359-2.913.013-6.238-2.97-7.34-2.954-1.092-6.169.6-6.984 3.719-.14.533-.374.566-.82.492-2.29-.379-3.88-2.203-3.944-4.583-.025-.955-.006-1.912-.006-2.868v-4.719c.737.565 1.358.99 2.088 1.238a6.236 6.236 0 0 0 2.25.285c.366-.012.335.264.393.48.393 1.477 1.222 2.629 2.559 3.388a5.305 5.305 0 0 0 7.786-3.274c.03-.13.081-.255.152-.368h3.212c.02.173.057.345.11.512.663 2.389 2.853 3.911 5.358 3.826 2.01-.068 4.274-1.333 4.967-4.16a5.19 5.19 0 0 0-.914-4.342zM83.148 57.095a3.77 3.77 0 0 1 3.808 3.802 3.813 3.813 0 1 1-3.808-3.802zm-16-19.903a6.085 6.085 0 1 1 12.17.098 6.085 6.085 0 0 1-12.17-.098zM83.121 52.48a3.798 3.798 0 1 1 .07-7.595 3.798 3.798 0 0 1-.07 7.595zm12.082-.376a3.827 3.827 0 1 1 1.687.376c-.036 0-.07-.002-.106-.003a4.064 4.064 0 0 1-1.58-.373z" fill="#fff"/>
    <path d="M76.364 35.944a106.47 106.47 0 0 0-3.8-2.395c-1.133-.684-2.353.007-2.385 1.332-.019.78-.003 1.563-.002 2.344 0 .803-.015 1.607.004 2.41.03 1.245 1.225 1.96 2.292 1.339a87.09 87.09 0 0 0 3.876-2.395c1.059-.692 1.061-1.945.015-2.636zm-1.04 1.488c-1.091.674-2.181 1.349-3.27 2.024-.19.117-.336.128-.336-.152-.002-1.45-.001-2.898-.001-4.484 1.277.803 2.447 1.537 3.615 2.273.177.112.171.228-.009.34v-.001zm6.282 24.207c.462-.03.744-.291.762-.725a.683.683 0 0 0-.705-.759c-.484-.018-.775.252-.782.742-.006.469.29.685.725.742zm3.097-.01c.447-.065.733-.305.71-.773-.024-.46-.316-.721-.774-.7-.455.021-.735.303-.716.762.02.46.323.685.78.712zm14.162-13.374c.175-.174.315-.361.296-.645a.666.666 0 0 0-.412-.66.695.695 0 0 0-.842.136 15.2 15.2 0 0 0-1.151 1.151c-.412.484-.75.711-1.255.083-.297-.369-.745-.362-1.09-.001-.324.338-.271.723.027 1.052.32.354.663.69 1.012 1.017.482.451.81.452 1.293-.016.716-.697 1.415-1.412 2.122-2.117zm-13.814-1.29a.69.69 0 0 0-.847.093c-.39.344-.763.708-1.115 1.091-.428.48-.793.855-1.366.137-.28-.35-.719-.301-1.038.025-.327.333-.293.715.012 1.048.337.368.7.71 1.055 1.061.424.419.84.377 1.247-.03.705-.706 1.411-1.41 2.118-2.115.188-.189.35-.388.321-.674a.676.676 0 0 0-.387-.636z" fill="#fff"/>
    <rect x="1" y="1" width="166" height="94" rx="8" stroke="url(#e1u7lom7ca)" stroke-opacity=".27"/>
    <defs>
        <linearGradient id="e1u7lom7ca" x1="84" y1="1" x2="84" y2="95" gradientUnits="userSpaceOnUse">
            <stop stop-color="#B9B9B9" stop-opacity=".44"/>
            <stop offset="1" stop-color="#5E5E5E" stop-opacity=".58"/>
        </linearGradient>
    </defs>
</svg>
