<svg width="168" height="96" viewBox="0 0 168 96" fill="none" xmlns="http://www.w3.org/2000/svg">
    <rect x="1" y="1" width="166" height="94" rx="8" fill="#fff"/>
    <path d="M84.042 18C69.745 18 58 21.83 58 26.68c0 1.277 3.064 19.405 4.34 26.554.511 3.32 8.937 7.915 21.702 7.915 12.766 0 20.937-4.596 21.702-7.915 1.277-7.149 4.341-25.277 4.341-26.553C109.83 21.83 98.34 18 84.042 18zm0 37.276c-4.595 0-8.17-3.574-8.17-8.17 0-4.595 3.575-8.17 8.17-8.17 4.596 0 8.17 3.575 8.17 8.17 0 4.34-3.574 8.17-8.17 8.17zm0-26.042c-9.191 0-16.595-1.532-16.595-3.574 0-2.043 7.404-3.575 16.595-3.575 9.192 0 16.596 1.532 16.596 3.575 0 2.042-7.404 3.574-16.596 3.574z" fill="#205081"/>
    <path d="M102.886 60.128c-.511 0-.766.255-.766.255s-6.383 5.107-17.873 5.107c-11.489 0-17.872-5.107-17.872-5.107s-.51-.255-.766-.255c-.51 0-1.021.255-1.021 1.021v.255c1.021 5.362 1.787 9.192 1.787 9.703.766 3.83 8.426 6.893 17.617 6.893s16.851-3.064 17.617-6.893c0-.511.766-4.34 1.787-9.703v-.255c.256-.51 0-1.021-.51-1.021zM84.042 50.936a4.085 4.085 0 1 0 0-8.17 4.085 4.085 0 0 0 0 8.17z" fill="#205081"/>
    <rect x="1" y="1" width="166" height="94" rx="8" stroke="url(#q60ksxyowa)" stroke-opacity=".27"/>
    <defs>
        <linearGradient id="q60ksxyowa" x1="84" y1="1" x2="84" y2="95" gradientUnits="userSpaceOnUse">
            <stop stop-color="#B9B9B9" stop-opacity=".44"/>
            <stop offset="1" stop-color="#5E5E5E" stop-opacity=".58"/>
        </linearGradient>
    </defs>
</svg>
