<svg width="57" height="57" viewBox="0 0 57 57" fill="none" xmlns="http://www.w3.org/2000/svg">
<circle opacity="0.1" cx="28.9766" cy="28.7412" r="28" fill="white"/>
<path d="M37.7265 28.7412C37.7301 30.0999 37.4126 31.4402 36.8001 32.653C36.0737 34.1062 34.9572 35.3286 33.5754 36.1831C32.1936 37.0376 30.6012 37.4906 28.9766 37.4912C27.6179 37.4947 26.2776 37.1773 25.0648 36.5647L20.653 37.0648L21.1531 32.653C20.5405 31.4402 20.223 30.0999 20.2266 28.7412C20.2272 27.1166 20.6802 25.5242 21.5347 24.1424C22.3892 22.7606 23.6115 21.644 25.0648 20.9177C26.2776 20.3051 27.6179 19.9877 28.9766 19.9912H29.4913C31.6369 20.1096 33.6635 21.0153 35.183 22.5348C36.7025 24.0543 37.6082 26.0809 37.7265 28.2265V28.7412Z" stroke="white" stroke-width="2" stroke-linecap="round" stroke-linejoin="round"/>
<circle cx="25.0641" cy="28.7409" r="0.78676" fill="white" stroke="white"/>
<circle cx="28.9743" cy="28.7409" r="0.78676" fill="white" stroke="white"/>
<circle cx="32.8883" cy="28.7409" r="0.78676" fill="white" stroke="white"/>
</svg>
