<svg width="57" height="57" viewBox="0 0 57 57" fill="none" xmlns="http://www.w3.org/2000/svg">
<circle opacity="0.1" cx="28.9766" cy="28.7412" r="28" fill="white"/>
<path d="M37.28 33.2196V35.7785C37.2809 36.0161 37.2323 36.2512 37.1371 36.4689C37.0419 36.6865 36.9023 36.8819 36.7273 37.0425C36.5522 37.2031 36.3456 37.3254 36.1205 37.4015C35.8955 37.4776 35.6571 37.5059 35.4205 37.4845C32.7957 37.1993 30.2745 36.3024 28.0593 34.8658C25.9984 33.5562 24.2511 31.8089 22.9415 29.748C21.4999 27.5228 20.6028 24.9893 20.3228 22.3527C20.3015 22.1169 20.3296 21.8791 20.4052 21.6547C20.4807 21.4302 20.6023 21.224 20.7619 21.0491C20.9216 20.8741 21.1159 20.7344 21.3326 20.6387C21.5492 20.543 21.7834 20.4935 22.0203 20.4932H24.5792C24.9931 20.4892 25.3944 20.6358 25.7083 20.9057C26.0222 21.1756 26.2272 21.5505 26.2851 21.9604C26.3931 22.7793 26.5934 23.5833 26.8822 24.3572C26.997 24.6625 27.0218 24.9943 26.9538 25.3133C26.8857 25.6323 26.7277 25.9251 26.4984 26.157L25.4151 27.2403C26.6293 29.3757 28.3975 31.1439 30.5329 32.3581L31.6162 31.2748C31.8481 31.0455 32.1409 30.8875 32.4599 30.8194C32.7789 30.7514 33.1107 30.7762 33.416 30.891C34.1899 31.1798 34.9939 31.3801 35.8128 31.4881C36.2272 31.5465 36.6056 31.7552 36.8761 32.0745C37.1466 32.3937 37.2903 32.8013 37.28 33.2196Z" stroke="white" stroke-width="2" stroke-linecap="round" stroke-linejoin="round"/>
<path d="M30.7261 24.3711C32.0132 24.8177 32.8535 25.1545 33.6063 27.0704" stroke="white" stroke-width="2" stroke-linecap="round"/>
<path d="M30.9878 20.5312C33.4416 21.1929 35.9005 22.3404 37.6388 26.7644" stroke="white" stroke-width="2" stroke-linecap="round"/>
</svg>
