<svg width="169" height="34" viewBox="0 0 169 34" fill="none" xmlns="http://www.w3.org/2000/svg">
    <path d="M53.338 26.212c-.88 0-1.776-.112-2.688-.336-.912-.208-1.672-.488-2.28-.84l.12-3.264h.24l.744 1.56a8.5 8.5 0 0 0 .72 1.2c.256.336.608.6 1.056.792.32.16.624.272.912.336.304.048.64.072 1.008.072.976 0 1.744-.264 2.304-.792.576-.528.864-1.208.864-2.04 0-.784-.192-1.392-.576-1.824-.384-.448-1-.88-1.848-1.296l-.984-.432c-1.376-.608-2.456-1.304-3.24-2.088-.768-.8-1.152-1.856-1.152-3.168 0-.944.24-1.76.72-2.448.496-.688 1.176-1.216 2.04-1.584.88-.368 1.904-.552 3.072-.552.848 0 1.648.112 2.4.336.768.224 1.432.528 1.992.912l-.144 2.88h-.24l-.984-1.8c-.272-.56-.544-.952-.816-1.176a2.318 2.318 0 0 0-.936-.504 2.851 2.851 0 0 0-.576-.12 3.87 3.87 0 0 0-.672-.048c-.816 0-1.504.24-2.064.72-.56.464-.84 1.096-.84 1.896 0 .816.216 1.472.648 1.968.432.48 1.064.912 1.896 1.296l1.104.48c1.536.672 2.64 1.392 3.312 2.16.672.752 1.008 1.728 1.008 2.928 0 1.408-.536 2.56-1.608 3.456-1.056.88-2.56 1.32-4.512 1.32zm11.417-.072c-.624 0-1.2-.12-1.728-.36-.512-.24-.92-.624-1.224-1.152-.288-.544-.424-1.256-.408-2.136l.072-6.168c0-.368-.064-.632-.192-.792-.128-.16-.328-.272-.6-.336l-.288-.096v-.24l4.296-.84.24.24-.12 3.408v5.784c0 .512.144.888.432 1.128.304.24.68.36 1.128.36.448 0 .848-.064 1.2-.192s.704-.32 1.056-.576l.096-7.824c0-.368-.056-.624-.168-.768-.112-.16-.32-.272-.624-.336l-.24-.072v-.24l4.2-.912.24.24-.072 3.408v6.504c0 .352.048.624.144.816.096.192.304.352.624.48l.24.072v.24l-4.2.24-.216-1.416c-.528.432-1.104.8-1.728 1.104-.608.288-1.328.432-2.16.432zm11.153 5.4c-.64 0-1.152-.16-1.536-.48a1.55 1.55 0 0 1-.552-1.224c0-.448.16-.808.48-1.08.32-.272.68-.408 1.08-.408s.736.08 1.008.24c.272.176.512.424.72.744l.168.192c.352.48.704.472 1.056-.024.144-.24.304-.56.48-.96.192-.384.408-.904.648-1.56l-4.656-11.136a3.002 3.002 0 0 0-.36-.72c-.128-.192-.336-.352-.624-.48l-.432-.168v-.24h5.976v.216l-.48.192c-.352.112-.536.296-.552.552 0 .24.064.544.192.912l2.496 6.48 2.376-6.552c.128-.368.176-.672.144-.912-.032-.256-.232-.432-.6-.528l-.504-.12v-.24h3.336v.24l-.528.168c-.368.112-.624.272-.768.48-.144.208-.28.496-.408.864l-3.864 10.536c-.624 1.68-1.248 2.936-1.872 3.768-.624.832-1.432 1.248-2.424 1.248zm16.099-5.4c-1.216 0-2.272-.248-3.168-.744a5.324 5.324 0 0 1-2.088-2.16c-.48-.928-.72-2.016-.72-3.264 0-1.248.256-2.328.768-3.24a5.527 5.527 0 0 1 2.136-2.112c.912-.496 1.936-.744 3.072-.744 1.136 0 2.152.248 3.048.744.896.48 1.6 1.176 2.112 2.088.528.912.792 2 .792 3.264 0 1.264-.248 2.36-.744 3.288a5.204 5.204 0 0 1-2.064 2.136c-.88.496-1.928.744-3.144.744zm0-.48c.56 0 1.008-.16 1.344-.48.336-.32.576-.888.72-1.704.16-.816.24-1.968.24-3.456 0-1.504-.08-2.664-.24-3.48-.144-.816-.384-1.384-.72-1.704-.336-.32-.784-.48-1.344-.48s-1.016.16-1.368.48c-.336.32-.584.888-.744 1.704-.144.816-.216 1.976-.216 3.48 0 1.488.072 2.64.216 3.456.16.816.408 1.384.744 1.704.352.32.808.48 1.368.48zm12.238-4.032c-1.104 0-2.04-.184-2.808-.552v.816c0 .496.248.792.744.888l4.512.84c.752.144 1.432.336 2.04.576.608.224 1.096.552 1.464.984.368.416.552.992.552 1.728 0 .784-.256 1.504-.768 2.16-.512.672-1.272 1.208-2.28 1.608-.992.416-2.232.624-3.72.624-1.28 0-2.296-.136-3.048-.408-.752-.256-1.288-.592-1.608-1.008-.304-.416-.456-.856-.456-1.32 0-.576.192-1.16.576-1.752a4.85 4.85 0 0 1 1.464-1.392c-.496-.192-.856-.44-1.08-.744a1.626 1.626 0 0 1-.336-.984c0-.32.08-.616.24-.888.176-.288.384-.576.624-.864l.792-1.008c-1.168-.672-1.752-1.728-1.752-3.168 0-1.152.408-2.088 1.224-2.808.832-.72 2.048-1.08 3.648-1.08.816 0 1.528.096 2.136.288.624.192 1.136.464 1.536.816.512-.08.992-.208 1.44-.384.464-.192.88-.448 1.248-.768l.336.24v1.224h-2.712c.576.64.864 1.464.864 2.472 0 1.12-.416 2.048-1.248 2.784-.816.72-2.024 1.08-3.624 1.08zm-.024-.48c.64 0 1.104-.264 1.392-.792.304-.528.456-1.408.456-2.64 0-1.232-.152-2.096-.456-2.592-.288-.512-.736-.768-1.344-.768-.592 0-1.04.264-1.344.792-.304.512-.456 1.384-.456 2.616 0 1.232.136 2.104.408 2.616.288.512.736.768 1.344.768zm-3.576 6.648c0 .944.288 1.656.864 2.136.592.48 1.52.72 2.784.72 1.328 0 2.328-.216 3-.648.672-.432 1.008-1.04 1.008-1.824 0-.448-.168-.808-.504-1.08-.32-.272-.872-.48-1.656-.624l-4.344-.816-.384-.096c-.224.32-.408.68-.552 1.08-.144.416-.216.8-.216 1.152zm15.678-1.656c-1.024 0-1.824-.256-2.4-.768-.56-.512-.84-1.328-.84-2.448v-8.208h-1.656v-.24l.576-.096c.496-.112.92-.272 1.272-.48a5.068 5.068 0 0 0 1.08-.84l1.968-2.184h.24l-.072 3.36h2.688v.48h-2.712v8.64c0 .56.12.984.36 1.272.256.288.576.432.96.432.336 0 .632-.08.888-.24.256-.176.512-.408.768-.696l.24.24a3.54 3.54 0 0 1-1.32 1.296c-.56.32-1.24.48-2.04.48zm10.065-12.264c1.04 0 1.928.216 2.664.648a4.161 4.161 0 0 1 1.68 1.728c.4.72.6 1.544.6 2.472 0 .176-.008.36-.024.552a2.125 2.125 0 0 1-.096.48h-7.152c.016 1.728.32 2.976.912 3.744.608.752 1.504 1.128 2.688 1.128.8 0 1.448-.128 1.944-.384s.96-.632 1.392-1.128l.24.216a5.49 5.49 0 0 1-1.992 2.064c-.816.496-1.8.744-2.952.744-1.136 0-2.144-.24-3.024-.72a5.247 5.247 0 0 1-2.064-2.112c-.496-.912-.744-2-.744-3.264 0-1.312.288-2.424.864-3.336.576-.928 1.312-1.632 2.208-2.112a6.053 6.053 0 0 1 2.856-.72zm-.072.48c-.464 0-.864.144-1.2.432-.32.272-.576.768-.768 1.488-.176.704-.272 1.704-.288 3h4.104c.16-1.744.096-3-.192-3.768-.288-.768-.84-1.152-1.656-1.152zM138.48 26.14c-1.088 0-2.08-.232-2.976-.696a5.45 5.45 0 0 1-2.112-2.064c-.512-.912-.768-2.024-.768-3.336 0-1.296.28-2.4.84-3.312a5.671 5.671 0 0 1 2.28-2.112 6.747 6.747 0 0 1 3.144-.744c.928 0 1.712.152 2.352.456.64.304 1.128.704 1.464 1.2.336.48.504.984.504 1.512 0 .448-.136.8-.408 1.056-.272.24-.624.36-1.056.36-.464 0-.84-.168-1.128-.504-.288-.336-.456-.776-.504-1.32a5.122 5.122 0 0 1 .024-.888 3.084 3.084 0 0 0 0-.768c-.064-.272-.168-.448-.312-.528-.128-.096-.312-.144-.552-.144-.976 0-1.736.424-2.28 1.272-.528.848-.792 2.2-.792 4.056 0 1.616.296 2.856.888 3.72.608.848 1.536 1.272 2.784 1.272.752 0 1.36-.136 1.824-.408.464-.272.912-.68 1.344-1.224l.24.192c-.4.944-1.016 1.672-1.848 2.184-.832.512-1.816.768-2.952.768zm5.464-.36v-.24l.288-.096c.576-.192.864-.592.864-1.2V11.428c0-.336-.056-.584-.168-.744-.112-.16-.328-.28-.648-.36l-.36-.096v-.24l4.224-1.032.384.216-.096 3.384v3a9.41 9.41 0 0 1 1.8-1.176 4.668 4.668 0 0 1 2.16-.504c1.04 0 1.864.296 2.472.888.624.592.936 1.504.936 2.736v6.768c0 .32.064.576.192.768.128.192.352.336.672.432l.192.072v.24h-5.616v-.24l.288-.072c.576-.192.864-.6.864-1.224v-7.536c0-.64-.112-1.08-.336-1.32-.208-.24-.584-.36-1.128-.36-.352 0-.736.072-1.152.216-.416.128-.84.36-1.272.696v8.352c0 .624.288 1.024.864 1.2l.192.048v.24h-5.616zM3.17 6.79c.42 7.77 5.47 11.31 11.75 13.82a49.947 49.947 0 0 1 6 2.68 5.41 5.41 0 0 1-1.23 10.06 17.76 17.76 0 0 1-13.64-1.76c-7.12-4-5.9-1.88-6-9.66 0-4.12.17-8.25.14-12.38-.04-1.93.95-2.54 2.98-2.76zM32.27 24.6c.79-7-4.7-10.3-12.41-12.44-2.13-.59-4.24-1.24-6.27-2-3-1.09-4.56-3-4.13-4.69.43-1.69 3.28-3.41 6.33-3.47a31.25 31.25 0 0 1 8.08.63 73.109 73.109 0 0 1 10.26 3.7 2.67 2.67 0 0 1 1.42 2.14c.15 4.43.08 8.86.1 13.29.01 1.48-1.01 2.3-3.38 2.84z" fill="#fff"/>
</svg>
