<svg width="136" height="16" viewBox="0 0 136 16" fill="none" xmlns="http://www.w3.org/2000/svg">
    <path d="M8.02 15.3c4.16 0 7.3-3.26 7.3-7.5S12.18.34 8.02.34.72 3.56.72 7.8s3.14 7.5 7.3 7.5zm0-1.98C4.98 13.32 3 10.88 3 7.8c0-3.08 1.98-5.48 5.02-5.48 3.04 0 5.02 2.4 5.02 5.48 0 3.08-1.98 5.52-5.02 5.52zM32.655.64h-2.2V9.9c0 2.08-1.22 3.42-3.36 3.42-2.12 0-3.34-1.34-3.34-3.42V.64h-2.2v9.2c0 3.3 2.1 5.46 5.54 5.46s5.56-2.16 5.56-5.46V.64zM41.916 15V9.6h2.64l3.58 5.4h2.64l-3.9-5.72c2.18-.52 3.48-2.1 3.48-4.16 0-2.86-1.98-4.48-5.28-4.48h-5.36V15h2.2zm0-12.52h3.02c2.04 0 3.2.92 3.2 2.64 0 1.74-1.16 2.64-3.2 2.64h-3.02V2.48zM76.02 15h2.28L82.04.64h-2.16l-2.76 11.08L74.14.64h-2.28L68.84 11.7 66.08.64h-2.16L67.66 15h2.26l3.06-11.26L76.02 15zm17.938.3c4.16 0 7.301-3.26 7.301-7.5s-3.14-7.46-7.3-7.46-7.3 3.22-7.3 7.46 3.14 7.5 7.3 7.5zm0-1.98c-3.04 0-5.02-2.44-5.02-5.52 0-3.08 1.98-5.48 5.02-5.48 3.04 0 5.02 2.4 5.02 5.48 0 3.08-1.98 5.52-5.02 5.52zM109.733 15V9.6h2.64l3.58 5.4h2.64l-3.9-5.72c2.18-.52 3.48-2.1 3.48-4.16 0-2.86-1.98-4.48-5.28-4.48h-5.36V15h2.2zm0-12.52h3.02c2.04 0 3.2.92 3.2 2.64 0 1.74-1.16 2.64-3.2 2.64h-3.02V2.48zM126.916 15V8.34l6.02 6.66h2.76l-6.56-7.32 6.4-7.04h-2.54l-6.08 6.64V.64h-2.2V15h2.2z" fill="url(#tamm4e0haa)"/>
    <defs>
        <linearGradient id="tamm4e0haa" x1=".154" y1="6.991" x2="136.975" y2="6.991" gradientUnits="userSpaceOnUse">
            <stop offset="0" stop-color="#379FFF"/>
            <stop offset="1" stop-color="#0017E4"/>
        </linearGradient>
    </defs>
</svg>
