<svg width="188" height="16" viewBox="0 0 188 16" fill="none" xmlns="http://www.w3.org/2000/svg">
    <path d="M8.02 15.3c4.16 0 7.3-3.26 7.3-7.5S12.18.34 8.02.34.72 3.56.72 7.8s3.14 7.5 7.3 7.5zm0-1.98C4.98 13.32 3 10.88 3 7.8c0-3.08 1.98-5.48 5.02-5.48 3.04 0 5.02 2.4 5.02 5.48 0 3.08-1.98 5.52-5.02 5.52zM32.655.64h-2.2V9.9c0 2.08-1.22 3.42-3.36 3.42-2.12 0-3.34-1.34-3.34-3.42V.64h-2.2v9.2c0 3.3 2.1 5.46 5.54 5.46s5.56-2.16 5.56-5.46V.64zM41.916 15V9.6h2.64l3.58 5.4h2.64l-3.9-5.72c2.18-.52 3.48-2.1 3.48-4.16 0-2.86-1.98-4.48-5.28-4.48h-5.36V15h2.2zm0-12.52h3.02c2.04 0 3.2.92 3.2 2.64 0 1.74-1.16 2.64-3.2 2.64h-3.02V2.48zM75.58 10.8c0-2.14-1.38-3.22-3.84-3.72l-2.12-.42c-1.34-.28-2.52-.76-2.52-2.12 0-1.24 1.02-2.34 2.88-2.34 1.8 0 3.04 1.2 3.16 2.92h2.24C75.2 2.26 72.94.44 69.96.44s-5.1 1.82-5.1 4.24c0 2.44 1.84 3.46 3.86 3.86l2.08.4c1.66.36 2.44.96 2.44 2.16 0 1.48-1.36 2.34-3.18 2.34-2.2 0-3.36-1.18-3.46-3h-2.24c.18 2.86 2.28 4.76 5.74 4.76 3.48 0 5.48-1.9 5.48-4.4zm15.647 2.28h-6.9V8.56h6.16V6.64h-6.16V2.56h6.76V.64h-8.96V15h9.1v-1.92zm8.78 1.92V9.6h2.64l3.58 5.4h2.64l-3.9-5.72c2.18-.52 3.48-2.1 3.48-4.16 0-2.86-1.98-4.48-5.28-4.48h-5.36V15h2.2zm0-12.52h3.02c2.04 0 3.2.92 3.2 2.64 0 1.74-1.16 2.64-3.2 2.64h-3.02V2.48zM126.417.64h-2.2l-4.24 11.8-4.18-11.8h-2.36l5.28 14.36h2.42l5.28-14.36zM134.49 15V.64h-2.2V15h2.2zm13.373.3c3.6 0 6.48-2.4 7.02-5.96h-2.34c-.4 2.32-2.28 3.98-4.66 3.98-2.84 0-4.84-2.3-4.84-5.52 0-3.18 2-5.48 4.84-5.48 2.38 0 4.26 1.64 4.66 3.96h2.34c-.54-3.54-3.42-5.94-7.02-5.94-4 0-7.1 3.24-7.1 7.46 0 4.24 3.1 7.5 7.1 7.5zm22.406-2.22h-6.9V8.56h6.16V6.64h-6.16V2.56h6.76V.64h-8.96V15h9.1v-1.92zm17.08-2.28c0-2.14-1.38-3.22-3.84-3.72l-2.12-.42c-1.34-.28-2.52-.76-2.52-2.12 0-1.24 1.02-2.34 2.88-2.34 1.8 0 3.04 1.2 3.16 2.92h2.24c-.18-2.86-2.44-4.68-5.42-4.68s-5.1 1.82-5.1 4.24c0 2.44 1.84 3.46 3.86 3.86l2.08.4c1.66.36 2.44.96 2.44 2.16 0 1.48-1.36 2.34-3.18 2.34-2.2 0-3.36-1.18-3.46-3h-2.24c.18 2.86 2.28 4.76 5.74 4.76 3.48 0 5.48-1.9 5.48-4.4z" fill="url(#ysscrhll2a)"/>
    <defs>
        <linearGradient id="ysscrhll2a" x1=".212" y1="6.991" x2="188.965" y2="6.991" gradientUnits="userSpaceOnUse">
            <stop offset="0" stop-color="#379FFF"/>
            <stop offset="1" stop-color="#0017E4"/>
        </linearGradient>
    </defs>
</svg>
