<svg width="154" height="82" viewBox="0 0 154 82" fill="none" xmlns="http://www.w3.org/2000/svg">
    <rect x="1" y="1" width="152" height="80" rx="8" fill="#fff" stroke="url(#70sx9w86ca)" stroke-opacity=".27"/>
    <path d="m89.942 25.404-1.28-.402.198-.868c.97-4.678.335-8.446-1.829-9.686-2.074-1.19-5.467.05-8.894 3.015-.337.293-.668.594-.99.903a24.478 24.478 0 0 0-.659-.606c-3.59-3.17-7.191-4.507-9.361-3.264-2.073 1.194-2.687 4.736-1.813 9.168.086.438.185.875.295 1.31-.495.139-.986.292-1.472.46-4.21 1.46-6.899 3.747-6.899 6.12 0 2.451 2.887 4.909 7.273 6.4.356.12.714.232 1.075.334-.118.467-.222.939-.312 1.412-.832 4.356-.182 7.814 1.885 9 2.135 1.225 5.718-.033 9.208-3.067.276-.24.552-.494.83-.76.349.334.708.66 1.075.974 3.38 2.893 6.718 4.06 8.784 2.871 2.133-1.228 2.825-4.944 1.926-9.464a22.34 22.34 0 0 0-.239-1.057c.248-.072.495-.149.74-.23 4.56-1.5 7.525-3.93 7.525-6.413 0-2.382-2.774-4.684-7.07-6.155l.004.005z" fill="#53C1DE"/>
    <path d="m88.952 36.367-.668.208c-.503-1.586-1.182-3.27-2.014-5.01a39.568 39.568 0 0 0 1.936-4.936l1.182.37c3.68 1.26 5.925 3.123 5.925 4.559 0 1.529-2.425 3.513-6.36 4.81h-.001zm-1.634 3.219c.398 1.998.456 3.806.192 5.218-.236 1.27-.714 2.117-1.302 2.455-1.254.72-3.934-.216-6.825-2.69l-1-.907c1.121-1.22 2.24-2.636 3.334-4.209a39.556 39.556 0 0 0 5.386-.826l.215.956v.003zM70.8 47.134c-1.224.421-2.2.442-2.789.104-1.255-.72-1.776-3.496-1.064-7.221l.29-1.314c1.628.359 3.432.616 5.36.772a41.21 41.21 0 0 0 3.413 4.194l-.757.694c-1.543 1.35-3.09 2.293-4.453 2.772v-.001zm-5.736-10.775c-1.94-.658-3.54-1.516-4.638-2.45-.987-.84-1.485-1.674-1.485-2.35 0-1.44 2.16-3.277 5.76-4.525l1.37-.429a41.799 41.799 0 0 0 1.938 4.995 41.216 41.216 0 0 0-1.963 5.065l-.982-.305v-.001zm1.923-13.016c-.747-3.799-.251-6.663.998-7.382 1.33-.766 4.272.326 7.374 3.064l.596.548a40.508 40.508 0 0 0-3.388 4.169c-1.87.172-3.66.45-5.307.82l-.274-1.219h.001zm17.154 4.212-1.209-1.978 3.626.63a35.698 35.698 0 0 1-1.273 3.406l-1.144-2.058zm-6.995-6.776a35.841 35.841 0 0 1 2.34 2.809l-4.7-.001 2.36-2.809v.001zm-7.04 6.787-1.122 2.045-1.264-3.422 3.606-.615-1.22 1.992zm1.256 10.095-3.665-.586a37.735 37.735 0 0 1 1.288-3.49l1.128 2.045 1.248 2.031zm5.832 4.793a37.845 37.845 0 0 1-2.393-2.847l2.328.044 2.4-.053-2.334 2.856h-.001zm8.109-8.94 1.336 3.479a38.847 38.847 0 0 1-3.711.63l1.221-2.013 1.154-2.095zm-2.626 1.252-1.907 3.061-3.642.127c-1.237 0-2.442-.038-3.601-.113l-1.944-3.066-1.697-3.186 1.692-3.188 1.928-3.053 3.621-.135 3.628.136 1.916 3.043 1.715 3.172-1.709 3.2v.002zM86.182 15.9c1.333.764 1.85 3.843 1.012 7.882l-.178.786c-1.65-.38-3.441-.66-5.318-.843a39.73 39.73 0 0 0-3.361-4.172l.914-.835c2.935-2.541 5.68-3.544 6.93-2.827l.001.01z" fill="#fff"/>
    <path d="M77.129 28.026a3.542 3.542 0 0 1 3.551 3.532 3.551 3.551 0 0 1-7.103 0 3.542 3.542 0 0 1 3.552-3.532z" fill="#53C1DE"/>
    <path d="m79.514 59.337.01 8.57c.003.432-.092.586-.554.569-.9-.036-.9-.009-.9-.905l-.011-9.703c-.003-.433.145-.48.54-.54 1.119-.161 1.703.274 2.2 1.293 1.245 2.55 2.639 5.029 3.973 7.535.056.104.127.2.278.437v-.658l-.008-7.986c-.003-.442.064-.64.577-.614.871.044.873.008.873.89l.014 9.71c.003.459-.15.5-.565.56-1.122.158-1.692-.281-2.184-1.299-1.217-2.505-2.59-4.934-3.904-7.391-.08-.15-.113-.338-.337-.459l-.002-.008zm15.01 8.03c-.987 1.254-2.254 1.489-3.669 1.206a2.365 2.365 0 0 1-1.886-1.963c-.193-1.28.216-2.31 1.14-2.848.686-.4 1.447-.518 2.224-.542.646-.02 1.293-.017 1.94-.004.253.005.335-.086.327-.342-.025-.835-.645-1.518-1.589-1.699-1.039-.2-2.04-.03-2.992.388-.397.174-.48.147-.512-.314-.044-.603.194-.835.745-.983.984-.263 1.968-.388 2.98-.266 1.572.188 2.626 1.269 2.709 2.968.084 1.73.03 3.464.044 5.197.001.236-.086.323-.315.301-.335-.032-.745.137-.99-.076-.243-.212.01-.64-.155-1.024h-.001zm-2.477.151c1.526.09 2.635-1.223 2.555-2.979-.008-.173-.065-.261-.25-.26-1.005.015-2.013-.067-2.997.212-.523.149-.88.457-1.002 1.006-.266 1.179.421 1.993 1.695 2.02l-.001.001zm32.885-.742c.045 1.538.253 1.22-1.098 1.645-.86.27-1.763.337-2.665.222-2.655-.337-3.835-2.37-3.61-4.82.143-1.553.747-2.869 2.265-3.505 2.534-1.06 5.659-.017 5.467 4.013-.017.354-.236.287-.438.287-1.778.002-3.556.021-5.333-.011-.503-.008-.56.173-.488.59.241 1.383 1.215 2.239 2.623 2.311 1.141.06 2.202-.21 3.274-.732h.003zm-3.489-3.218v-.009h1.827c.681 0 .731-.066.565-.73-.285-1.134-1.235-1.823-2.379-1.723-1.349.118-2.299.983-2.41 2.17-.025.263.09.295.304.293l2.094-.002h-.001zm-9.263 3.537 2.34-6.306c.185-.526.436-.76.995-.666.208.035.428.006.725.006l-.97 2.576-2.01 5.357c-.108.293-.232.413-.566.415-1.455.001-1.453.013-1.961-1.34l-2.443-6.45c-.157-.41-.168-.595.369-.566 1.095.057.808-.175 1.193.826l2.122 5.651c.049.132.11.26.207.491l-.001.006zm-11.996-3.12c.04.704-.076 1.564.059 2.416.11.693.32.875 1.031.91.466.024.933.016 1.4.017.557.004.292.425.338.67.035.234.084.513-.338.49-.715-.039-1.433.04-2.147-.101-1.03-.203-1.529-.715-1.642-1.771-.171-1.586-.067-3.176-.07-4.765 0-.493-.087-.748-.633-.65-.456.082-.38-.25-.371-.506.008-.256-.127-.64.374-.556.553.09.671-.163.626-.654-.04-.443.002-.892-.012-1.339-.008-.268.078-.37.365-.384 1.029-.048 1.027-.06 1.027.945 0 .339.022.68-.005 1.017-.027.338.115.426.434.417.664-.02 1.329.019 1.992-.013.472-.023.402.268.412.554.008.306.022.556-.429.531-.662-.036-1.328.008-1.992-.017-.342-.013-.427.11-.418.422.02.732.006 1.464.006 2.347l-.007.02zm6.026.315.01 3.691c.008.398-.093.516-.502.504-.889-.027-.89-.004-.891-.918l-.013-6.845c-.005-.464.112-.671.595-.59.104.018.216.016.322 0 .368-.052.495.08.487.465-.025 1.231-.008 2.46-.008 3.691v.002zm0-6.547c.001.884-.324 1.179-1.164.857-.506-.194-.137-.784-.206-1.187-.029-.169-.145-.472.205-.503.321-.027.645-.005.967-.006.176-.001.199.114.199.25v.589h-.001zm-70.774 5.51c1.735 1.324 2.158 3.418 3.306 5.22-.585 0-1.041-.002-1.497.002-.244.001-.266-.205-.342-.355l-1.375-2.724c-.542-1.143-1.397-1.685-2.693-1.63-1.315.056-1.315.012-1.315 1.301v3c.008.34-.104.414-.427.416-1.09.005-1.09.017-1.09-1.085L30 57.85c-.002-.397.084-.523.504-.511 1.274.038 2.549-.037 3.82.08 2.219.205 3.449 2.109 2.727 4.198-.266.774-.632 1.144-1.615 1.625v.01zm-3.918-2.69-.002 1.662c-.004.217.054.335.299.324.75-.034 1.507.068 2.256-.072.987-.183 1.521-.813 1.543-1.824.026-1.094-.426-1.733-1.43-1.965-.814-.188-1.645-.054-2.468-.084-.222-.009-.197.16-.198.3v1.661-.001zm22.936 6.712c-.965 1.3-2.218 1.584-3.637 1.314-1.231-.234-1.938-1.093-2.032-2.361-.095-1.269.53-2.273 1.681-2.699a5.075 5.075 0 0 1 1.63-.31c.538-.015 1.077-.008 1.615-.008.84 0 .953-.163.62-.944-.269-.633-.789-.954-1.438-1.087-1.02-.21-1.994-.02-2.949.342-.163.061-.303.196-.498.162-.012-.038-.033-.07-.033-.103.025-1.274-.255-.995 1.018-1.383.852-.26 1.727-.293 2.61-.203 1.45.147 2.493 1.075 2.704 2.55.27 1.88.07 3.78.12 5.67.005.186-.076.254-.255.251a.36.36 0 0 0-.054.001c-1.035.089-1.035.089-1.102-1.19v-.002zm-1.23-2.997c-.646-.004-1.29.014-1.918.187-.85.235-1.214.786-1.133 1.68.068.744.625 1.275 1.422 1.358 1.523.156 2.574-.68 2.843-2.263.164-.958.17-.961-.784-.961h-.422l-.008-.001zm-6.534 2.554c.063 1.503.229 1.165-1.04 1.568a6.334 6.334 0 0 1-2.716.24c-2.69-.338-3.833-2.41-3.612-4.808.147-1.598.786-2.927 2.358-3.55 1.362-.542 2.76-.554 3.985.387 1.216.934 1.425 2.277 1.385 3.711-.009.334-.25.241-.425.242-1.776.005-3.554.02-5.33-.008-.48-.009-.576.146-.5.582.236 1.377 1.214 2.247 2.617 2.317a6.224 6.224 0 0 0 2.78-.502c.16-.067.304-.194.497-.172v-.007zm-3.506-3.275v-.008h1.88c.638 0 .678-.05.551-.657-.242-1.15-1.22-1.89-2.377-1.797-1.36.107-2.39 1.048-2.445 2.204-.012.293.164.258.341.258h2.05zm23.91.434c0-.885-.018-1.619.008-2.35.012-.35-.09-.48-.449-.455-.175.013-.459.123-.519-.116a1.835 1.835 0 0 1 .014-.845c.042-.176.287-.112.433-.091.445.062.548-.135.52-.54-.031-.506.003-1-.011-1.499-.008-.256.09-.327.341-.34 1.055-.058 1.044-.068 1.06.963.007.458-.207 1.065.103 1.329.263.224.854.07 1.3.08.251.004.503 0 .753 0 .64 0 .813.248.658.88-.06.244-.23.183-.375.185-.682.007-1.364.015-2.045-.002-.296-.009-.408.072-.405.386l.02 4.497c.014.943.29 1.196 1.236 1.228.394.015.789.017 1.184.005.261-.008.38.051.392.35.03.81.045.811-.776.808-.59-.003-1.18.02-1.769-.102-.934-.191-1.396-.646-1.572-1.588-.183-.975-.06-1.96-.1-2.784l-.002.001zm-2.377-2.272c-.698-.336-1.35-.535-2.024-.613-1.502-.174-2.693.647-3.032 2.114a4.847 4.847 0 0 0 .009 2.23c.368 1.554 1.72 2.337 3.45 2.01.424-.082.84-.198 1.222-.399.33-.172.377-.055.38.26.01.885.02.894-.827 1.13-.759.214-1.552.304-2.343.186-1.91-.285-3.164-1.559-3.393-3.47-.108-.89-.087-1.781.21-2.647.57-1.661 2.03-2.61 3.98-2.578.612.01 1.209.112 1.8.283.412.118.659.303.573.78-.037.206-.007.426-.007.713l.002.001z" fill="#4DB4CF"/>
    <defs>
        <linearGradient id="70sx9w86ca" x1="77" y1="1" x2="77" y2="81" gradientUnits="userSpaceOnUse">
            <stop stop-color="#B9B9B9" stop-opacity=".44"/>
            <stop offset="1" stop-color="#5E5E5E" stop-opacity=".58"/>
        </linearGradient>
    </defs>
</svg>
