<svg width="154" height="82" viewBox="0 0 154 82" fill="none" xmlns="http://www.w3.org/2000/svg">
    <rect x="1" y="1" width="152" height="80" rx="8" fill="#fff" stroke="url(#9sh6ikdxra)" stroke-opacity=".27"/>
    <path d="M86.448 37.863h-4.374v.461c1.368 0 1.588.292 1.588 2.025v3.102c0 1.723-.22 2.04-1.588 2.04-1.05-.145-1.76-.704-2.737-1.772l-1.124-1.215c1.515-.267 2.321-1.214 2.321-2.283 0-1.335-1.147-2.355-3.298-2.355h-4.3v.461c1.367 0 1.587.292 1.587 2.024v3.1c0 1.723-.219 2.04-1.588 2.04v.462h4.863v-.462c-1.368 0-1.588-.316-1.588-2.04v-.874h.415l2.713 3.375h7.111c3.495 0 5.01-1.845 5.01-4.057 0-2.211-1.516-4.031-5.01-4.031h-.001zm-10.239 3.958v-3.23h1.002c1.1 0 1.588.753 1.588 1.628 0 .85-.489 1.602-1.588 1.602H76.21zm10.312 3.376h-.171c-.88 0-1.002-.22-1.002-1.335v-5.271h1.172c2.542 0 3.006 1.845 3.006 3.278 0 1.481-.464 3.327-3.006 3.327l.001.001zM59.324 42.72l1.687-4.955c.489-1.434.27-1.845-1.295-1.845v-.486h4.594v.486c-1.54 0-1.906.364-2.517 2.137l-2.785 8.306h-.317l-2.493-7.602-2.54 7.602h-.319l-2.712-8.306c-.587-1.773-.978-2.137-2.395-2.137v-.486h5.425v.486c-1.434 0-1.833.34-1.32 1.845l1.636 4.955 2.468-7.287h.463l2.42 7.287zm8.307 3.546c-2.688 0-4.887-1.967-4.887-4.372 0-2.38 2.2-4.347 4.887-4.347 2.688 0 4.888 1.967 4.888 4.347 0 2.404-2.2 4.372-4.888 4.372zm0-7.966c-2.247 0-3.03 2.016-3.03 3.593 0 1.602.782 3.594 3.03 3.594 2.273 0 3.055-1.99 3.055-3.594 0-1.579-.782-3.593-3.055-3.593zM97.492 45.475v.486h-5.596v-.486c1.636 0 1.94-.422 1.94-2.843v-3.885c0-2.429-.293-2.817-1.94-2.817v-.486h5.059c2.516 0 3.91 1.287 3.91 3.011 0 1.676-1.394 2.988-3.91 2.988h-1.393v1.18c0 2.43.293 2.842 1.94 2.842l-.01.01zm-.538-9.156h-1.393v4.217h1.393c1.369 0 2.004-.947 2.004-2.088 0-1.166-.635-2.137-2.004-2.137v.008zm20.698 7.36-.122.436c-.22.801-.489 1.093-2.224 1.093h-.343c-1.27 0-1.49-.292-1.49-2.024V42.06c1.906 0 2.053.169 2.053 1.434h.464v-3.627h-.464c0 1.263-.147 1.434-2.053 1.434v-2.716h1.344c1.735 0 2.003.292 2.224 1.093l.122.462h.39l-.171-2.283h-7.185v.461c1.368 0 1.588.292 1.588 2.024v3.11c0 1.577-.186 1.973-1.265 2.024-1.026-.156-1.729-.712-2.693-1.765l-1.124-1.214c1.514-.267 2.321-1.215 2.321-2.283 0-1.335-1.148-2.356-3.289-2.356h-4.301v.462c1.368 0 1.588.291 1.588 2.024v3.108c0 1.724-.219 2.04-1.588 2.04v.462h4.863v-.461c-1.368 0-1.588-.317-1.588-2.041v-.874h.416l2.712 3.375h10.043l.146-2.282h-.366l-.008.008zm-12.951-1.856v-3.23h1.002c1.1 0 1.589.753 1.589 1.627 0 .85-.489 1.603-1.589 1.603h-1.002zm17.912 4.444c-.979 0-1.833-.51-2.2-.826a1.733 1.733 0 0 0-.39.826h-.464v-3.351h.489c.196 1.602 1.319 2.55 2.761 2.55.782 0 1.417-.437 1.417-1.165 0-.633-.562-1.118-1.563-1.58l-1.394-.654c-.978-.462-1.71-1.264-1.71-2.332 0-1.166 1.1-2.162 2.614-2.162.807 0 1.491.292 1.906.633.123-.097.253-.365.318-.657h.464v2.865h-.506c-.171-1.142-.806-2.089-2.102-2.089-.674 0-1.319.388-1.319.996 0 .632.512.971 1.686 1.505l1.344.655c1.181.559 1.636 1.458 1.636 2.186 0 1.53-1.344 2.598-2.981 2.598l-.006.002zm7.526 0c-.978 0-1.833-.51-2.199-.826-.123.121-.343.486-.391.826h-.464v-3.351h.489c.196 1.602 1.319 2.55 2.762 2.55.781 0 1.416-.437 1.416-1.165 0-.633-.561-1.118-1.564-1.58l-1.393-.654c-.979-.462-1.711-1.264-1.711-2.332 0-1.166 1.1-2.162 2.615-2.162.806 0 1.49.292 1.906.633.122-.097.253-.365.317-.657h.464v2.865h-.513c-.171-1.142-.806-2.089-2.102-2.089-.674 0-1.32.388-1.32.996 0 .632.506.971 1.687 1.505l1.344.655c1.18.559 1.636 1.458 1.636 2.186 0 1.53-1.345 2.598-2.982 2.598l.003.002zM23.792 40.53c0 4.254 2.488 7.93 6.095 9.674l-5.159-14.048a10.652 10.652 0 0 0-.936 4.374zm18.116-.542c0-1.328-.48-2.249-.892-2.965-.548-.885-1.062-1.636-1.062-2.52 0-.986.754-1.907 1.816-1.907.048 0 .084.006.14.008a10.813 10.813 0 0 0-7.303-2.821 10.82 10.82 0 0 0-9.036 4.844l.696.013c1.13 0 2.881-.137 2.881-.137.59-.033.652.817.07.886 0 0-.587.067-1.238.101l3.938 11.642 2.367-7.054L32.6 35.49c-.59-.034-1.135-.101-1.135-.101-.59-.034-.506-.928.068-.886 0 0 1.786.137 2.849.137 1.13 0 2.881-.137 2.881-.137.584-.033.652.817.07.886 0 0-.587.067-1.239.101l3.909 11.554 1.08-3.582c.467-1.487.822-2.556.822-3.475h.003zm-7.112 1.482L31.55 50.83a10.87 10.87 0 0 0 6.647-.171c-.03-.047-.056-.096-.084-.148l-3.326-9.042h.009zm9.3-6.098c.05.366.074.735.073 1.105 0 1.09-.205 2.317-.822 3.85l-3.304 9.492c3.215-1.855 5.377-5.325 5.377-9.29a10.65 10.65 0 0 0-1.324-5.157zM34.606 28C27.657 28 22 33.621 22 40.53c0 6.907 5.656 12.528 12.607 12.528 6.95 0 12.607-5.62 12.607-12.529S41.566 28 34.606 28zm0 24.483c-6.632 0-12.027-5.364-12.027-11.955 0-6.59 5.395-11.953 12.028-11.953 6.632 0 12.026 5.362 12.026 11.953 0 6.591-5.404 11.947-12.027 11.947v.008z" fill="#00749A"/>
    <defs>
        <linearGradient id="9sh6ikdxra" x1="77" y1="1" x2="77" y2="81" gradientUnits="userSpaceOnUse">
            <stop stop-color="#B9B9B9" stop-opacity=".44"/>
            <stop offset="1" stop-color="#5E5E5E" stop-opacity=".58"/>
        </linearGradient>
    </defs>
</svg>
