<svg width="154" height="82" viewBox="0 0 154 82" fill="none" xmlns="http://www.w3.org/2000/svg">
    <rect x="1" y="1" width="152" height="80" rx="8" fill="#fff" stroke="url(#vdebfcozba)" stroke-opacity=".27"/>
    <path d="M52 16h50.602v50.602H52V16z" fill="#F7DF1E"/>
    <path d="m65.305 58.287 3.871-2.344c.748 1.324 1.427 2.445 3.058 2.445 1.562 0 2.547-.611 2.547-2.989V39.232h4.754v16.235c0 4.925-2.886 7.167-7.099 7.167-3.804 0-6.013-1.97-7.133-4.348l.002.001zm16.813-.51 3.871-2.242c1.02 1.665 2.345 2.888 4.688 2.888 1.97 0 3.226-.985 3.226-2.345 0-1.63-1.29-2.208-3.464-3.158l-1.19-.51c-3.43-1.46-5.706-3.295-5.706-7.167 0-3.568 2.718-6.284 6.964-6.284 3.023 0 5.197 1.055 6.76 3.804l-3.712 2.378c-.815-1.46-1.698-2.037-3.056-2.037-1.392 0-2.278.883-2.278 2.037 0 1.426.883 2.005 2.922 2.888l1.18.51c4.043 1.732 6.317 3.498 6.317 7.472 0 4.28-3.362 6.624-7.88 6.624-4.416 0-7.27-2.106-8.662-4.858" fill="#000"/>
    <defs>
        <linearGradient id="vdebfcozba" x1="77" y1="1" x2="77" y2="81" gradientUnits="userSpaceOnUse">
            <stop stop-color="#B9B9B9" stop-opacity=".44"/>
            <stop offset="1" stop-color="#5E5E5E" stop-opacity=".58"/>
        </linearGradient>
    </defs>
</svg>
