<svg width="154" height="82" viewBox="0 0 154 82" fill="none" xmlns="http://www.w3.org/2000/svg">
    <rect x="1" y="1" width="152" height="80" rx="8" fill="#fff" stroke="url(#v9emis0q1a)" stroke-opacity=".27"/>
    <path d="M52 41.301V16h50.602v50.602H52" fill="#007ACC"/>
    <path d="M63.094 41.39v2.062h6.578v18.723h4.677V43.452h6.578v-2.024l-.05-2.088c0-.038-4.011-.05-8.881-.05l-8.856.038v2.074l-.038-.012h-.008zm29.556-2.113a6.12 6.12 0 0 1 3.162 1.81c.468.505 1.164 1.39 1.215 1.618 0 .085-2.189 1.556-3.517 2.379-.05.038-.253-.169-.456-.506-.657-.928-1.328-1.35-2.378-1.417-1.518-.101-2.53.696-2.53 2.024 0 .405.085.632.228.961.341.696.974 1.114 2.935 1.974 3.626 1.556 5.186 2.58 6.135 4.048 1.075 1.645 1.316 4.217.595 6.16-.81 2.113-2.784 3.543-5.605 4.011-.885.152-2.909.127-3.858-.038-2.024-.38-3.96-1.391-5.148-2.694-.469-.506-1.367-1.86-1.316-1.94l.48-.304 1.898-1.1 1.43-.844.337.443c.417.658 1.354 1.543 1.898 1.855 1.644.848 3.845.734 4.933-.253.468-.421.67-.885.67-1.518a1.945 1.945 0 0 0-.379-1.29c-.405-.557-1.214-1.012-3.491-2.024-2.619-1.113-3.732-1.822-4.77-2.91-.594-.658-1.138-1.682-1.391-2.53-.19-.734-.253-2.53-.085-3.251.544-2.53 2.446-4.301 5.187-4.807.886-.169 2.973-.102 3.846.126l-.025.026v-.009z" fill="#fff"/>
    <defs>
        <linearGradient id="v9emis0q1a" x1="77" y1="1" x2="77" y2="81" gradientUnits="userSpaceOnUse">
            <stop stop-color="#B9B9B9" stop-opacity=".44"/>
            <stop offset="1" stop-color="#5E5E5E" stop-opacity=".58"/>
        </linearGradient>
    </defs>
</svg>
