<svg width="154" height="82" viewBox="0 0 154 82" fill="none" xmlns="http://www.w3.org/2000/svg">
    <rect x="1" y="1" width="152" height="80" rx="8" fill="#fff" stroke="url(#e1s6ppg8ka)" stroke-opacity=".27"/>
    <path d="M49.175 47.8V35.706h1.565l7.4 9.74v-9.74h1.479v12.092h-1.571l-7.4-9.825v9.825h-1.473zm22.45-.467c-.974.373-2.026.558-3.153.558-4.38 0-6.579-2.108-6.579-6.3 0-3.974 2.115-5.963 6.343-5.963 1.212 0 2.34.17 3.373.509v1.353a8.997 8.997 0 0 0-3.205-.592c-3.289 0-4.945 1.564-4.945 4.692 0 3.354 1.622 5.032 4.87 5.032.518 0 1.093-.068 1.725-.204v-4.11h1.572V47.334zm2.497-4.194v-7.423h1.564v7.423c0 2.323 1.155 3.486 3.468 3.486 2.312 0 3.458-1.164 3.458-3.486v-7.423h1.58v7.423c0 3.17-1.676 4.754-5.03 4.754-3.355 0-5.032-1.584-5.032-4.754h-.008zm14.416-7.424v10.817h6.325V47.8h-7.888V35.708h1.564l-.001.007zm8.583 12.093h-1.624l6.012-13.688 6.013 13.688h-1.733l-1.565-3.806h-3.998l.422-1.267h3.036l-2.258-5.48-4.305 10.553zm12.049 0V35.707h5.158c2.3 0 3.458.967 3.458 2.901 0 1.574-1.123 2.737-3.374 3.492l4.152 5.7h-2.071l-3.846-5.437V41.34c2.311-.367 3.458-1.255 3.458-2.664 0-1.116-.643-1.675-1.927-1.675h-3.451v10.799h-1.565l.008.007zm15.247-12.093v8.609c0 2.322-1.367 3.483-4.103 3.483v-1.275c1.691 0 2.537-.74 2.537-2.216v-8.61h1.565l.001.01zm2.791 11.668v-1.438c1.269.452 2.638.678 4.11.678 2.08 0 3.12-.762 3.12-2.277 0-1.295-.759-1.944-2.3-1.944h-1.556c-2.53 0-3.797-1.1-3.797-3.29 0-2.31 1.622-3.468 4.864-3.468 1.408 0 2.719.17 3.931.509v1.437c-1.212-.451-2.523-.677-3.931-.677-2.199 0-3.29.734-3.29 2.199 0 1.295.744 1.944 2.231 1.944h1.556c2.576 0 3.864 1.1 3.864 3.289 0 2.368-1.56 3.552-4.684 3.552-1.471 0-2.841-.17-4.109-.509l-.009-.005z" fill="#CCC"/>
    <path d="M49.572 47.404V35.312h1.564l7.399 9.741v-9.74h1.48v12.09H58.45l-7.4-9.825v9.826h-1.478zm22.45-.473c-.974.373-2.026.559-3.153.559-4.38 0-6.579-2.109-6.579-6.3 0-3.974 2.115-5.963 6.342-5.963 1.212 0 2.34.169 3.374.509v1.353a8.995 8.995 0 0 0-3.205-.593c-3.289 0-4.946 1.565-4.946 4.693 0 3.354 1.623 5.032 4.87 5.032.518 0 1.094-.068 1.726-.203V41.91h1.563v5.023h.009zm2.496-4.194v-7.424h1.563v7.424c0 2.323 1.156 3.483 3.458 3.483 2.302 0 3.458-1.16 3.458-3.483v-7.424h1.564v7.424c0 3.169-1.676 4.753-5.03 4.753-3.355 0-5.031-1.583-5.031-4.753h.018zm14.416-7.425v10.823h6.326v1.269h-7.89V35.31h1.564v.001zm8.584 12.092h-1.623l6.013-13.688 6.011 13.688h-1.734l-1.563-3.806h-3.999l.431-1.268h3.036l-2.256-5.48-4.316 10.554zm12.048 0V35.312h5.158c2.3 0 3.458.967 3.458 2.902 0 1.572-1.124 2.737-3.374 3.491l4.152 5.7h-2.064l-3.846-5.437v-1.024c2.311-.367 3.458-1.254 3.458-2.665 0-1.116-.643-1.674-1.929-1.674h-3.457v10.798h-1.565.009z" fill="#000"/>
    <path d="M124.814 35.311v8.609c0 2.322-1.366 3.483-4.102 3.483v-1.268c1.691 0 2.537-.74 2.537-2.215V35.31h1.565zm2.79 11.67v-1.438c1.269.45 2.638.677 4.109.677 2.08 0 3.121-.761 3.121-2.283 0-1.296-.759-1.944-2.3-1.944h-1.557c-2.53 0-3.797-1.1-3.797-3.29 0-2.31 1.621-3.457 4.863-3.457 1.409 0 2.72.17 3.932.508v1.438c-1.213-.451-2.523-.677-3.932-.677-2.198 0-3.289.734-3.289 2.199 0 1.296.742 1.944 2.231 1.944h1.557c2.574 0 3.864 1.1 3.864 3.289 0 2.368-1.56 3.552-4.685 3.552-1.471 0-2.84-.17-4.11-.508l-.007-.01z" fill="#A6120D"/>
    <path d="M33.122 26 19 30.97l2.232 18.502 11.906 6.544 11.967-6.632 2.23-18.502L33.123 26z" fill="#B3B3B3"/>
    <path d="M45.926 31.95 33.09 27.573V54.45l10.758-5.954 2.078-16.547z" fill="#A6120D"/>
    <path d="M20.586 32.03 22.5 48.577l10.593 5.874V27.573L20.586 32.03z" fill="#DD1B16"/>
    <path d="m36.623 41.882-3.543 1.653h-3.707l-1.75 4.379-3.256.06 8.731-19.424 3.542 13.334-.017-.002zm-.342-.831-3.169-6.273-2.599 6.156h2.576l3.192.108v.008z" fill="#F2F2F2"/>
    <path d="m33.089 28.55.023 6.228 2.95 6.169h-2.966l-.007 2.583 4.101.004 1.917 4.44 3.116.057L33.09 28.55z" fill="#B3B3B3"/>
    <defs>
        <linearGradient id="e1s6ppg8ka" x1="77" y1="1" x2="77" y2="81" gradientUnits="userSpaceOnUse">
            <stop stop-color="#B9B9B9" stop-opacity=".44"/>
            <stop offset="1" stop-color="#5E5E5E" stop-opacity=".58"/>
        </linearGradient>
    </defs>
</svg>
