<svg width="154" height="82" viewBox="0 0 154 82" fill="none" xmlns="http://www.w3.org/2000/svg">
    <rect x="1" y="1" width="152" height="80" rx="8" fill="#fff" stroke="url(#lave9cm68a)" stroke-opacity=".27"/>
    <path d="M70.68 26.738c-6.697-1.181-11.993.055-14.104 3.626-1.574 2.658-1.125 6.182 1.092 9.952.189.32.609.432.938.248a.662.662 0 0 0 .254-.914c-1.997-3.394-2.386-6.435-1.093-8.615 1.752-2.952 6.475-4.07 12.667-2.97a.697.697 0 0 0 .655-.222.66.66 0 0 0-.084-.952.683.683 0 0 0-.325-.144v-.01zm-9.53 18.147c2.698 2.901 6.225 5.621 10.238 7.879 9.715 5.467 20.057 6.927 25.154 3.54a.66.66 0 0 0 .176-.926.7.7 0 0 0-.95-.18c-4.555 3.033-14.387 1.645-23.695-3.592-3.892-2.19-7.299-4.824-9.91-7.62a.7.7 0 0 0-.657-.212.678.678 0 0 0-.513.455.657.657 0 0 0 .155.659l.001-.003zm33.768-.814c4.386-5.048 5.916-10.127 3.81-13.682-1.55-2.616-4.825-3.997-9.179-4.052a.691.691 0 0 0-.6.327.65.65 0 0 0-.008.67.692.692 0 0 0 .59.342c3.916.05 6.748 1.24 8.01 3.374 1.748 2.951.383 7.48-3.67 12.148a.662.662 0 0 0-.132.664.681.681 0 0 0 .53.437.687.687 0 0 0 .65-.236v.008zM83.648 26.96c-3.965.829-8.186 2.446-12.23 4.727-10.03 5.651-16.572 13.964-15.661 19.988.03.242.191.449.423.54a.7.7 0 0 0 .69-.099.658.658 0 0 0 .245-.636c-.807-5.357 5.394-13.244 14.99-18.643 3.931-2.212 8.018-3.778 11.839-4.578a.669.669 0 0 0 .512-.791.686.686 0 0 0-.8-.517l-.009.01z" fill="#47848F"/>
    <path d="M67.399 55.868c2.294 6.238 6.043 10.08 10.262 10.08 3.076 0 5.92-2.043 8.14-5.642a.656.656 0 0 0 .028-.68.684.684 0 0 0-.939-.262.692.692 0 0 0-.256.252c-1.995 3.234-4.445 4.993-6.965 4.993-3.503 0-6.848-3.426-8.968-9.194a.683.683 0 0 0-.524-.446.691.691 0 0 0-.654.228.658.658 0 0 0-.115.668l-.01.003zm20.943-1.222c1.187-3.695 1.824-7.961 1.824-12.404 0-11.088-3.98-20.646-9.653-23.1a.693.693 0 0 0-.897.344.662.662 0 0 0 .34.88c5.058 2.19 8.838 11.26 8.838 21.877 0 4.31-.618 8.442-1.762 12.005a.657.657 0 0 0 .14.664.695.695 0 0 0 1.17-.266zm12.935-.655c0-1.77-1.472-3.203-3.287-3.203s-3.287 1.434-3.287 3.203c0 1.77 1.472 3.203 3.287 3.203s3.287-1.434 3.287-3.203zm-1.375 0c0 1.029-.857 1.864-1.915 1.864-1.057 0-1.914-.843-1.914-1.864 0-1.02.857-1.864 1.914-1.864 1.058 0 1.915.844 1.915 1.864zm-42.615 3.204c1.815 0 3.286-1.434 3.286-3.203 0-1.77-1.471-3.203-3.286-3.203S54 52.223 54 53.992c0 1.77 1.472 3.203 3.287 3.203zm0-1.338c-1.057 0-1.915-.844-1.915-1.864s.857-1.864 1.915-1.864c1.057 0 1.914.843 1.914 1.864 0 1.02-.857 1.864-1.914 1.864z" fill="#47848F"/>
    <path d="M77.663 22.408c1.174 0 2.26-.61 2.846-1.603a3.135 3.135 0 0 0 0-3.203A3.304 3.304 0 0 0 77.663 16c-1.815 0-3.287 1.434-3.287 3.203 0 1.77 1.472 3.203 3.287 3.203v.002zm0-1.338a1.924 1.924 0 0 1-1.658-.932 1.821 1.821 0 0 1 0-1.865 1.923 1.923 0 0 1 1.658-.932c1.056 0 1.914.843 1.914 1.864 0 1.02-.857 1.864-1.914 1.864zm.502 23.437c-1.285.27-2.55-.526-2.828-1.776-.277-1.251.54-2.485 1.822-2.756 1.274-.248 2.517.546 2.783 1.784.267 1.238-.52 2.461-1.788 2.748h.01z" fill="#47848F"/>
    <defs>
        <linearGradient id="lave9cm68a" x1="77" y1="1" x2="77" y2="81" gradientUnits="userSpaceOnUse">
            <stop stop-color="#B9B9B9" stop-opacity=".44"/>
            <stop offset="1" stop-color="#5E5E5E" stop-opacity=".58"/>
        </linearGradient>
    </defs>
</svg>
