<svg width="154" height="82" viewBox="0 0 154 82" fill="none" xmlns="http://www.w3.org/2000/svg">
    <rect x="1" y="1" width="152" height="80" rx="8" fill="#fff" stroke="url(#j1ophn6o8a)" stroke-opacity=".27"/>
    <path d="m93.576 32.933-1.667-.526.257-1.137c1.262-6.125.437-11.06-2.38-12.684-2.702-1.558-7.12.068-11.582 3.95-.44.383-.87.778-1.29 1.183-.28-.27-.566-.534-.857-.793-4.675-4.152-9.364-5.901-12.178-4.272-2.699 1.562-3.498 6.202-2.361 12.007.113.575.24 1.147.383 1.715-.663.188-1.304.388-1.917.603C54.502 34.89 51 37.886 51 40.994c0 3.209 3.759 6.428 9.47 8.38.462.157.93.303 1.4.437a34.596 34.596 0 0 0-.407 1.849c-1.083 5.704-.236 10.233 2.446 11.786 2.78 1.602 7.447-.045 11.99-4.016.36-.314.72-.647 1.08-.995.454.438.921.864 1.4 1.276 4.4 3.796 8.747 5.317 11.436 3.76 2.777-1.608 3.68-6.473 2.508-12.393a31.07 31.07 0 0 0-.31-1.384 29.1 29.1 0 0 0 .963-.301c5.937-1.967 9.8-5.146 9.8-8.4 0-3.119-3.614-6.135-9.207-8.06h.007z" fill="#53C1DE"/>
    <path d="m92.29 47.292-.87.273c-.655-2.075-1.54-4.281-2.623-6.562 1.033-2.226 1.883-4.402 2.52-6.464l1.54.486c4.792 1.65 7.715 4.088 7.715 5.967 0 2.002-3.157 4.6-8.282 6.3zm-2.128 4.215c.518 2.617.592 4.976.249 6.834-.31 1.662-.928 2.77-1.687 3.215-1.632.945-5.122-.283-8.886-3.522a26.154 26.154 0 0 1-1.302-1.187c1.459-1.596 2.918-3.451 4.34-5.512 2.504-.221 4.87-.585 7.014-1.08.106.425.2.843.28 1.252h-.008zm-21.509 9.886c-1.602.563-2.864.579-3.631.136-1.634-.942-2.313-4.58-1.387-9.457.11-.576.236-1.15.378-1.72 2.121.47 4.47.808 6.978 1.011a53.193 53.193 0 0 0 4.445 5.492c-.322.311-.65.614-.987.909-2.009 1.756-4.023 3.002-5.797 3.629h.001zm-7.47-14.114c-2.525-.863-4.61-1.985-6.038-3.208-1.285-1.1-1.933-2.193-1.933-3.079 0-1.886 2.81-4.29 7.5-5.925a32.293 32.293 0 0 1 1.782-.561 52.888 52.888 0 0 0 2.524 6.54 53.92 53.92 0 0 0-2.555 6.633c-.43-.122-.856-.256-1.279-.4zm2.505-17.045c-.973-4.974-.327-8.725 1.3-9.667 1.731-1.003 5.562.428 9.6 4.012.263.235.522.474.777.718a52.889 52.889 0 0 0-4.411 5.46 54.21 54.21 0 0 0-6.91 1.073c-.132-.529-.25-1.061-.356-1.596zm22.338 5.516a70.199 70.199 0 0 0-1.575-2.59c1.653.208 3.236.486 4.723.826a47.708 47.708 0 0 1-1.657 4.46 76.987 76.987 0 0 0-1.49-2.695l-.001-.001zm-9.108-8.872a49.365 49.365 0 0 1 3.047 3.678 65.137 65.137 0 0 0-6.12-.001 48.573 48.573 0 0 1 3.073-3.677zm-9.17 8.889a65.347 65.347 0 0 0-1.461 2.677 48.643 48.643 0 0 1-1.645-4.48c1.478-.331 3.053-.6 4.695-.807-.55.857-1.08 1.728-1.587 2.609h-.002zm1.643 13.22a47.1 47.1 0 0 1-4.773-.768 45.27 45.27 0 0 1 1.687-4.571 65.354 65.354 0 0 0 3.094 5.339h-.008zm7.594 6.277a49.933 49.933 0 0 1-3.115-3.728c.991.039 2.002.06 3.029.06 1.056 0 2.1-.024 3.126-.07a47.036 47.036 0 0 1-3.04 3.74v-.002zm10.55-11.705a47.02 47.02 0 0 1 1.74 4.555 46.974 46.974 0 0 1-4.831.823 77.143 77.143 0 0 0 1.59-2.635 70.16 70.16 0 0 0 1.5-2.743h.001zm-3.418 1.64a72.555 72.555 0 0 1-2.484 4.008c-1.537.11-3.124.166-4.742.166a72.595 72.595 0 0 1-4.689-.149 62.802 62.802 0 0 1-4.74-8.186 62.817 62.817 0 0 1 4.713-8.172 62.716 62.716 0 0 1 4.715-.168c1.602 0 3.184.061 4.722.178a67.26 67.26 0 0 1 2.495 3.985 72.21 72.21 0 0 1 2.233 4.155 66.745 66.745 0 0 1-2.225 4.191l.002-.009zm4.563-24.703c1.734 1 2.409 5.033 1.319 10.323-.072.345-.15.687-.233 1.029a53.096 53.096 0 0 0-6.915-1.094c-1.423-2.026-2.897-3.869-4.386-5.464.388-.373.784-.738 1.19-1.092 3.824-3.327 7.397-4.64 9.025-3.702z" fill="#fff"/>
    <path d="M76.891 36.369a4.624 4.624 0 1 1 0 9.249 4.624 4.624 0 0 1 0-9.25z" fill="#53C1DE"/>
    <defs>
        <linearGradient id="j1ophn6o8a" x1="77" y1="1" x2="77" y2="81" gradientUnits="userSpaceOnUse">
            <stop stop-color="#B9B9B9" stop-opacity=".44"/>
            <stop offset="1" stop-color="#5E5E5E" stop-opacity=".58"/>
        </linearGradient>
    </defs>
</svg>
