<svg width="154" height="82" viewBox="0 0 154 82" fill="none" xmlns="http://www.w3.org/2000/svg">
    <rect x="1" y="1" width="152" height="80" rx="8" fill="#fff" stroke="url(#csg4l6d5aa)" stroke-opacity=".27"/>
    <path d="M70.567 46.559a3.177 3.177 0 0 1 3.18 3.174v13.618a3.176 3.176 0 0 1-3.18 3.174 3.177 3.177 0 0 1-3.18-3.174V49.733a3.176 3.176 0 0 1 3.18-3.174z" fill="#A4C639"/>
    <path d="m63.306 30.186-.019.365v20.633c0 2.218 1.76 4.006 3.943 4.006h21.013c2.184 0 3.942-1.788 3.942-4.006l-.014-20.997H63.306v-.001z" fill="#A4C639"/>
    <path d="M84.909 46.56a3.177 3.177 0 0 1 3.18 3.173v13.619a3.176 3.176 0 0 1-3.18 3.174 3.177 3.177 0 0 1-3.18-3.174V49.733a3.176 3.176 0 0 1 3.18-3.175zm-26.73-14.537a3.177 3.177 0 0 1 3.18 3.174v13.617a3.176 3.176 0 0 1-3.18 3.175A3.177 3.177 0 0 1 55 48.814V35.197a3.176 3.176 0 0 1 3.18-3.174zm39.116 0a3.177 3.177 0 0 1 3.18 3.174v13.617a3.177 3.177 0 0 1-3.18 3.175 3.177 3.177 0 0 1-3.18-3.175V35.197a3.18 3.18 0 0 1 3.18-3.174zM63.4 28.83c.089-6.338 5.628-11.534 12.74-12.218h3.194c7.111.684 12.65 5.881 12.739 12.218H63.4z" fill="#A4C639"/>
    <path d="m90.968 16-3.355 5.8 3.355-5.8zm-26.462 0 3.353 5.8-3.353-5.8z" stroke="#A4C639" stroke-width=".675" stroke-linecap="round" stroke-linejoin="round"/>
    <path d="M73.466 23.15c.002.886-.731 1.606-1.64 1.608-.91.003-1.647-.713-1.65-1.6v-.008c-.003-.885.732-1.606 1.64-1.608.909-.003 1.646.713 1.65 1.6v.008zm12.278 0c.002.886-.732 1.606-1.64 1.608-.91.003-1.647-.713-1.65-1.6v-.008c-.003-.885.732-1.606 1.64-1.608.908-.003 1.646.713 1.65 1.6v.008z" fill="#fff"/>
    <defs>
        <linearGradient id="csg4l6d5aa" x1="77" y1="1" x2="77" y2="81" gradientUnits="userSpaceOnUse">
            <stop stop-color="#B9B9B9" stop-opacity=".44"/>
            <stop offset="1" stop-color="#5E5E5E" stop-opacity=".58"/>
        </linearGradient>
    </defs>
</svg>
